SplineFontDB: 3.0
FontName: Mina-Regular
FullName: Mina
FamilyName: Mina
Weight: Regular
Copyright: Copyright 2015 The Mina Project Authors, with Reserved Font Name 'Exo'
UComments: "2015-7-16: Created with FontForge (http://fontforge.org)"
Version: 001.000
ItalicAngle: 0
UnderlinePosition: -24
UnderlineWidth: 24
Ascent: 800
Descent: 200
InvalidEm: 0
LayerCount: 2
Layer: 0 0 "Back" 1
Layer: 1 0 "Fore" 0
XUID: [1021 37 -475828938 8093]
FSType: 0
OS2Version: 4
OS2_WeightWidthSlopeOnly: 0
OS2_UseTypoMetrics: 0
CreationTime: 1437065704
ModificationTime: 1457655135
PfmFamily: 17
TTFWeight: 400
TTFWidth: 5
LineGap: 0
VLineGap: 0
OS2TypoAscent: 1075
OS2TypoAOffset: 0
OS2TypoDescent: -515
OS2TypoDOffset: 0
OS2TypoLinegap: 0
OS2WinAscent: 1075
OS2WinAOffset: 0
OS2WinDescent: 515
OS2WinDOffset: 0
HheadAscent: 1075
HheadAOffset: 0
HheadDescent: -15
HheadDOffset: 0
OS2SubXSize: 700
OS2SubYSize: 650
OS2SubXOff: 0
OS2SubYOff: 93
OS2SupXSize: 700
OS2SupYSize: 650
OS2SupXOff: 0
OS2SupYOff: 313
OS2StrikeYSize: 50
OS2StrikeYPos: 313
OS2CapHeight: 712
OS2XHeight: 511
OS2Vendor: 'SUBY'
OS2CodePages: 00000001.00000000
OS2UnicodeRanges: 80018003.80002042.00000000.00000000
Lookup: 5 0 0 "'psts' Post Base Substitutions lookup 34" { "'psts' Post Base Substitutions lookup 34 subtable"  } ['psts' ('beng' <'dflt' > 'bng2' <'dflt' > ) ]
Lookup: 4 0 0 "Ligature Substitution lookup 33" { "Ligature Substitution lookup 33 subtable"  } []
Lookup: 5 0 0 "'psts' Post Base Substitutions lookup 32" { "'psts' Post Base Substitutions lookup 32 subtable"  } ['psts' ('beng' <'dflt' > 'bng2' <'dflt' > ) ]
Lookup: 1 0 0 "Single Substitution lookup 31" { "Single Substitution lookup 31 subtable"  } []
Lookup: 6 0 0 "'psts' Post Base Substitutions lookup 30" { "'psts' Post Base Substitutions lookup 30 subtable"  } ['psts' ('beng' <'dflt' > 'bng2' <'dflt' > ) ]
Lookup: 1 0 0 "Single Substitution lookup 29" { "Single Substitution lookup 29 subtable"  } []

StartChar: bnA
Encoding: 99 2437 0
Width: 930
VWidth: 0
Flags: HMW
LayerCount: 2
Back
Fore
SplineSet
291 446 m 5
 283 499 l 5
 283 499 417 518 497 518 c 4
 630.126953125 518 683 441.158203125 683 359 c 4
 683 337 678.560546875 313.813476562 671 292 c 4
 667.088867188 280.716796875 654 251 654 251 c 5
 767 209 l 29
 767 573 l 5
 -14 573 l 5
 -14 636.322265625 l 5
 946 636.322265625 l 5
 946 573 l 5
 835 573 l 29
 835 0 l 5
 767 0 l 5
 767 139 l 29
 618 189 l 5
 618 189 574.788085938 133.729492188 494 97 c 4
 469.966796875 86.0732421875 445 80 418 80 c 4
 361 80 294.000976562 105.052734375 221 182 c 4
 147 260 54 402 54 402 c 5
 91 429 l 5
 271 234 l 6
 323 177 371 153 416 153 c 4
 434 153 452 157 469 165 c 4
 541 198 588.249023438 265.278320312 603 304 c 4
 611 325 614 344 614 361 c 4
 614 423 571 446 480 446 c 4
 416 446 291 446 291 446 c 5
EndSplineSet
EndChar

StartChar: bnAA
Encoding: 100 2438 1
Width: 1050
VWidth: 0
Flags: HW
AnchorPoint: "anchor0" 916 636.984 basechar 0
LayerCount: 2
Back
Fore
SplineSet
929 573 m 1
 929 0 l 1
 998 0 l 1
 998 573 l 25
 1065 573 l 1
 1065 636.298828125 l 9
 987 636.298828125 l 17
 964 702 l 1
 928 702 l 1
 932 628 l 1
 859.701171875 636.322265625 l 1
 -14 636.322265625 l 1
 -14 573 l 1
 767 573 l 1
 767 209 l 25
 654 251 l 5
 654 251 667.088867188 280.716796875 671 292 c 4
 678.560546875 313.813476562 683 337 683 359 c 4
 683 441.158203125 630.126953125 518 497 518 c 4
 417 518 283 499 283 499 c 5
 291 446 l 5
 291 446 416 446 480 446 c 4
 571 446 614 423 614 361 c 4
 614 344 611 325 603 304 c 4
 588.249023438 265.278320312 541 198 469 165 c 4
 452 157 434 153 416 153 c 4
 371 153 323 177 271 234 c 6
 91 429 l 5
 54 402 l 5
 54 402 147 260 221 182 c 4
 294.000976562 105.052734375 361 80 418 80 c 4
 445 80 469.966796875 86.0732421875 494 97 c 4
 574.788085938 133.729492188 618 189 618 189 c 5
 767 139 l 25
 767 0 l 1
 835 0 l 1
 835 573 l 1
 929 573 l 1
EndSplineSet
EndChar

StartChar: bnTA
Encoding: 126 2468 2
Width: 775
VWidth: 0
Flags: HW
HStem: 39 73<344.514 489.578> 444 72<298.016 617.772> 575 61<-14 785>
VStem: 646 72<281.005 417.872>
AnchorPoint: "anchor 1" 394 43 basechar 0
AnchorPoint: "anchor0" 350 638 basechar 0
LayerCount: 2
Back
Fore
SplineSet
785 636.328125 m 9
 785 572.998046875 l 17
 -14 572.998046875 l 1
 -14 636.328125 l 1
 785 636.328125 l 9
505 57 m 0
 481 46 448 37 421 37 c 0
 351 37 297 66 224 141 c 0
 147.061078836 220.046836813 67 361 67 361 c 1
 104 388 l 1
 274 193 l 2
 324.320508031 135.279417258 374 112 419 112 c 0
 437 112 462.920222635 117.171768708 480 125 c 0
 552 158 618 240 635 286 c 0
 642.14637573 305.337251975 650 325 650 360 c 0
 650 419 610 444 519 444 c 0
 468 444 315 444 315 444 c 1
 307 496 l 1
 307 496 465 516 536 516 c 0
 673 516 720 446 720 358 c 0
 720 336 712.1953125 295.927734375 704 274 c 0
 667 175 592.874176384 97.275664176 505 57 c 0
EndSplineSet
EndChar

StartChar: bnI
Encoding: 101 2439 3
Width: 585
VWidth: 0
Flags: HW
HStem: 443 74<94 407.623> 575 61<-14 406 476 596> 708 64<119.066 394.863>
VStem: 406 70<636 696.193> 429.003 64.9992<305.705 422.523>
LayerCount: 2
Back
Fore
SplineSet
321 443 m 0xe8
 258 443 104 443 104 443 c 1
 96 496 l 1
 96 496 220 517 315 517 c 4
 488 517 494 426 495 318 c 0
 495.001953125 317.813476562 495.002929688 317.626953125 495.002929688 317.440429688 c 0
 495.002929688 198.766601562 192.900390625 154 192.900390625 154 c 1
 285.900390625 101 492 -18 492 -18 c 9
 467 -65 l 1
 467 -65 222.865234375 35.6982421875 73.900390625 130 c 9
 81.900390625 208 l 1
 81.900390625 208 429.003407179 250.619326403 429.003407179 341.491857622 c 0
 429.003407179 341.661105752 429.002272861 341.830486576 429 342 c 0
 427.69952654 438.991281922 391 443 321 443 c 0xe8
406 636.328125 m 17xf0
 406 690.328125 390 708 342 708 c 0
 256.614290766 708 81 708 81 708 c 9
 77 758 l 1
 77 758 288.281667623 771.939269807 348 772 c 0
 348.231566599 772.000117796 l 0
 442.055796601 772.000117796 476 714.264648438 476 636.328125 c 9
 596 636.328125 l 1
 596 573 l 25
 -14 573 l 1
 -14 636.328125 l 1
 406 636.328125 l 17xf0
EndSplineSet
EndChar

StartChar: e
Encoding: 56 101 4
Width: 525
Flags: W
HStem: -5 73.9763<154.032 450.932> 225 73<124 403.251> 461 74<160.856 389.792>
VStem: 50 74<101.024 225 298 420.766> 411 74<306.569 441.221>
LayerCount: 2
Back
Fore
SplineSet
50 268 m 0
 50 505 118 535 282 535 c 0
 407 535 485 523 485 347 c 0
 485 270 444 225 348 225 c 2
 124 225 l 1
 124 100 147 69 225 69 c 0
 239.153846154 69 253.094674556 68.9763313609 266.826126536 68.9763313609 c 0
 342.349112426 68.9763313609 411.538461538 69.6923076923 475 79 c 1
 475 23 l 1
 394 0 308 -5 225 -5 c 0
 90 -5 50 60 50 268 c 0
124 298 m 1
 348 298 l 2
 392 298 411 314 411 347 c 0
 411 452 391 461 283 461 c 0
 170 461 124 460 124 298 c 1
EndSplineSet
Validated: 1
EndChar

StartChar: bnHA
Encoding: 142 2489 5
Width: 565
VWidth: 0
Flags: HW
HStem: 443 74<94 407.623> 575 61<-14 406 476 596> 708 64<119.066 394.863>
VStem: 406 70<636 696.193> 429.003 64.9992<305.705 422.523>
AnchorPoint: "anchor 1" 334 -1 basechar 0
AnchorPoint: "anchor0" 226 637 basechar 0
LayerCount: 2
Back
Fore
SplineSet
321 443 m 4xe8
 258 443 104 443 104 443 c 5
 96 496 l 5
 96 496 220 517 315 517 c 4
 488 517 494 426 495 318 c 4
 495.001953125 317.813476562 495.002929688 317.626953125 495.002929688 317.440429688 c 4
 495.002929688 198.766601562 192.900390625 154 192.900390625 154 c 5
 285.900390625 101 492 -18 492 -18 c 13
 467 -65 l 5
 467 -65 222.865234375 35.6982421875 73.900390625 130 c 13
 81.900390625 208 l 5
 81.900390625 208 429.003407179 250.619326403 429.003407179 341.491857622 c 4
 429.003407179 341.661105752 429.002272861 341.830486576 429 342 c 4
 427.69952654 438.991281922 391 443 321 443 c 4xe8
576 636.328125 m 17xf0
 576 573 l 25
 -14 573 l 1
 -14 636.328125 l 1
 576 636.328125 l 17xf0
EndSplineSet
EndChar

StartChar: bnU
Encoding: 103 2441 6
Width: 750
VWidth: 0
Flags: HW
HStem: -0.356499 76.9109<346.606 449.277> 358 70<391.221 603.586> 575 61<-14 325 390 527 597 759> 708 64<243.641 515.718>
VStem: 325 65<412 575> 527 70<636 696.292> 613.638 69.363<250.444 347.265>
LayerCount: 2
Back
Fore
SplineSet
527 636.33203125 m 21
 527 690.33203125 511 705 463 705 c 0
 358.056640625 705 137 705 137 705 c 9
 133 758 l 1
 133 758 409.701662133 771.736217044 469 772 c 0
 562.999069964 772.418145827 597 714.33203125 597 636.33203125 c 13
 759 636.33203125 l 5
 759 572.98046875 l 29
 390 572.98046875 l 29
 390 412 l 5
 390 412 482 428 550 428 c 4
 642.997950811 428 684.001953125 370.59765625 684.001953125 310.791992188 c 4
 684.001953125 233.950297564 651.831054688 147.399414062 532 47 c 4
 500.9921875 21.08984375 461.969726562 -0.3564453125 411.94921875 -0.3564453125 c 4
 368.586914062 -0.3564453125 308.623400144 25.1003852034 245 97 c 4
 122 236 74 398 74 398 c 5
 121 416 l 5
 121 416 223.321289062 242.297851562 285 167 c 4
 322.782356255 120.875004686 361.37890625 76 415 76 c 4
 446.852539062 76 479.612304688 95.3349609375 502 115 c 4
 576 180 617.443621091 239 617.443621091 299.999998341 c 4
 617.443621091 335.608792487 597.727432987 356 544 356 c 4
 490 356 325 340 325 340 c 13
 325 572.98046875 l 29
 -14 572.98046875 l 5
 -14 636.33203125 l 5
 527 636.33203125 l 21
EndSplineSet
EndChar

StartChar: bnDDA
Encoding: 123 2465 7
Width: 735
VWidth: 0
Flags: HW
HStem: -0.356499 76.9109<347.135 449.277> 358 70<391.686 603.586> 575 61<-14 325 390 759>
VStem: 325 65<412 575> 613.638 69.363<249.539 347.349>
AnchorPoint: "anchor 1" 356.1 9 basechar 0
AnchorPoint: "anchor0" 398 637 basechar 0
LayerCount: 2
Back
Fore
SplineSet
746 636.33203125 m 21
 746 572.98046875 l 29
 379.103515625 572.98046875 l 29
 379.103515625 412 l 5
 379.103515625 412 471.103515625 428 539.103515625 428 c 4
 632.1015625 428 673.10546875 370.59765625 673.10546875 310.791992188 c 4
 673.10546875 233.950195312 640.934570312 147.399414062 521.103515625 47 c 4
 490.095703125 21.08984375 451.073242188 -0.3564453125 401.052734375 -0.3564453125 c 4
 357.690429688 -0.3564453125 297.7265625 25.1005859375 234.103515625 97 c 4
 111.103515625 236 63.103515625 398 63.103515625 398 c 5
 110.103515625 416 l 5
 110.103515625 416 212.424804688 242.297851562 274.103515625 167 c 4
 311.885742188 120.875 350.482421875 76 404.103515625 76 c 4
 435.956054688 76 468.715820312 95.3349609375 491.103515625 115 c 4
 565.103515625 180 606.546875 239 606.546875 300 c 4
 606.546875 335.608398438 586.830078125 356 533.103515625 356 c 4
 479.103515625 356 314.103515625 340 314.103515625 340 c 13
 314.103515625 572.98046875 l 29
 -14 572.98046875 l 5
 -14 636.33203125 l 5
 746 636.33203125 l 21
EndSplineSet
EndChar

StartChar: bnDDxA
Encoding: 158 2524 8
Width: 740
VWidth: 0
Flags: HW
HStem: -0.356499 76.9109<347.135 449.277> 358 70<391.686 603.586> 575 61<-14 325 390 759>
VStem: 325 65<412 575> 613.638 69.363<249.539 347.349>
AnchorPoint: "anchor 1" 346.1 9 basechar 0
AnchorPoint: "anchor0" 392 636 basechar 0
LayerCount: 2
Back
Fore
SplineSet
749 636.33203125 m 21
 749 572.98046875 l 29
 369.103515625 572.98046875 l 29
 369.103515625 412 l 5
 369.103515625 412 461.103515625 428 529.103515625 428 c 4
 622.1015625 428 663.10546875 370.59765625 663.10546875 310.791992188 c 4
 663.10546875 233.950195312 630.934570312 147.399414062 511.103515625 47 c 4
 480.095703125 21.08984375 441.073242188 -0.3564453125 391.052734375 -0.3564453125 c 4
 347.690429688 -0.3564453125 287.7265625 25.1005859375 224.103515625 97 c 4
 101.103515625 236 53.103515625 398 53.103515625 398 c 5
 100.103515625 416 l 5
 100.103515625 416 202.424804688 242.297851562 264.103515625 167 c 4
 301.885742188 120.875 340.482421875 76 394.103515625 76 c 4
 425.956054688 76 458.715820312 95.3349609375 481.103515625 115 c 4
 555.103515625 180 596.546875 239 596.546875 300 c 4
 596.546875 335.608398438 576.830078125 356 523.103515625 356 c 4
 469.103515625 356 304.103515625 340 304.103515625 340 c 13
 304.103515625 572.98046875 l 29
 -14 572.98046875 l 5
 -14 636.33203125 l 5
 749 636.33203125 l 21
322 -132 m 2xf6
 322 -75 l 2
 322 -62 329 -54 342 -54 c 2
 396 -54 l 2
 411 -54 417 -62 417 -75 c 2
 417 -132 l 2
 417 -147 408 -152 396 -152 c 2
 342 -152 l 2
 330 -152 322 -144 322 -132 c 2xf6
EndSplineSet
EndChar

StartChar: bnUU
Encoding: 104 2442 9
Width: 750
VWidth: 0
Flags: HW
HStem: 0.618857 75.9356<395.561 505.124> 358 70<470.532 682.586> 575 61<-14 404 469 606 676 838> 708 64<317.732 595.832>
VStem: 404 65<412 575> 606 70<636 696.221> 692.638 69.363<256.755 347.265>
LayerCount: 2
Back
Fore
SplineSet
256 86 m 4
 129 190 49 315 49 315 c 5
 86 348 l 5
 232 185 l 5
 199 216 143 417 143 417 c 5
 192 435 l 5
 192 435 253 241 309 167 c 4
 344.979492188 119.455078125 385.37890625 76 439 76 c 4
 470.852539062 76 503.612304688 95.3349609375 526 115 c 4
 600 180 641.443359375 239 641.443359375 300 c 4
 641.443359375 335.608398438 621.727539062 356 568 356 c 4
 514 356 349 340 349 340 c 13
 349 572.98046875 l 29
 -14 572.98046875 l 1
 -14 636.33203125 l 1
 551 636.33203125 l 21
 551 690.33203125 535 705 487 705 c 4
 382.056640625 705 161 705 161 705 c 13
 157 758 l 5
 157 758 433.702148438 771.736328125 493 772 c 4
 586.999023438 772.41796875 621 714.33203125 621 636.33203125 c 13
 759 636.33203125 l 1
 759 572.98046875 l 25
 414 572.98046875 l 29
 414 412 l 5
 414 412 506 428 574 428 c 4
 666.998046875 428 708.001953125 370.59765625 708.001953125 310.791992188 c 4
 708.001953125 233.950195312 675.831054688 147.399414062 556 47 c 4
 524.9921875 21.08984375 485.969726562 -0.3564453125 435.94921875 -0.3564453125 c 4
 376.586914062 -0.3564453125 316.426757812 36.5166015625 256 86 c 4
EndSplineSet
EndChar

StartChar: bnKA
Encoding: 111 2453 10
Width: 860
VWidth: 0
Flags: HW
HStem: 0 21G<422.096 514.044> 575 61<-14 449 514 872>
VStem: 449 65<82 457 532 575> 729.146 71.5596<292.649 386.308>
AnchorPoint: "anchor 1" 449 0 basechar 0
AnchorPoint: "anchor0" 446 637 basechar 0
LayerCount: 2
Back
Fore
SplineSet
516 457 m 1
 516 0 l 1
 449 0 l 1
 71 281 l 1
 71 362 l 1
 449 532 l 25
 449 572.998046875 l 1
 -14 572.998046875 l 1
 -14 636.328125 l 1
 872 636.328125 l 1
 872 572.998046875 l 1
 516 572.998046875 l 25
 516 532 l 1
 703 468 l 2
 751.154296875 452.19921875 802.705078125 411.88671875 802.705078125 348.375976562 c 0
 802.705078125 327.4765625 797.489257812 303.556640625 784 277 c 0
 752 214 700 164 700 164 c 1
 652 197 l 1
 652 197 715.928043069 306.782124611 716 307 c 2
 724.267286504 321.209398678 729.145507812 335.150390625 729.145507812 346.802734375 c 0
 729.145507812 377.979492188 699.315429688 398.168945312 652 412 c 2
 516 457 l 1
449 89 m 29
 449 459 l 25
 142 316 l 25
 449 89 l 29
EndSplineSet
EndChar

StartChar: bnvR
Encoding: 105 2443 11
Width: 800
VWidth: 0
Flags: HW
HStem: 0 21G<441.667 539> 451 60<149.053 268.689> 575 61<713 812>
VStem: 80 59<520.063 583.766> 474 65<82 198 271 418 491 636> 648 65<39 160 219 575>
LayerCount: 2
Back
Fore
SplineSet
648 160 m 25
 542 197 l 25
 542 0 l 5
 474 0 l 1
 86 240 l 1
 86 321 l 1
 366 443 l 25
 337 505 l 17
 337 505 257 451 188 451 c 0
 157 451 125.97731078 458.976203346 105 479 c 0
 83 500 76 528 76 553 c 0
 76 586 89.2825666979 603.021501752 106 614 c 0
 140 636.328125 209 648 209 648 c 1
 218 608 l 17
 218 608 185.608930022 594.850134074 158 583 c 0
 144.843343225 577.352981205 140 566 140 554 c 0
 140 545 144 532 153 523 c 0
 163 513 178 512 190 512 c 0
 250.017557193 512 358.999999466 584.748872574 358.999999466 584.748872574 c 1
 363.108502721 587.659834126 365.567132476 587.7960872 366.884297521 585 c 2
 422 468 l 9
 474 491 l 25
 474 636 l 1
 542 635 l 25
 542 270 l 25
 648 227 l 25
 648 636 l 1
 643 702 l 1
 679 702 l 1
 702 636.328125 l 1
 812 636.328125 l 17
 812 573 l 1
 713 573 l 25
 713 39 l 1
 648 39 l 1
 648 160 l 25
474 82 m 25
 474 418 l 25
 157 275 l 25
 474 82 l 25
EndSplineSet
EndChar

StartChar: bnJHA
Encoding: 119 2461 12
Width: 760
VWidth: 0
Flags: HW
HStem: 0 21G<420.096 512> 575 61<-14 447 686 790>
VStem: 447 65<82 198 271 459 532 575> 621 65<39 160 219 575>
AnchorPoint: "anchor 1" 447 0 basechar 0
AnchorPoint: "anchor0" 573 637 basechar 0
LayerCount: 2
Back
Fore
SplineSet
512 271 m 29
 621 226.7265625 l 29
 621 636.3203125 l 1
 616 702 l 1
 652 702 l 1
 675 636.3203125 l 1
 773.888671875 636.3203125 l 17
 773.888671875 573.013671875 l 1
 686 573.013671875 l 25
 686 39 l 1
 621 39 l 1
 621 160 l 29
 512 198 l 29
 512 0 l 1
 447 0 l 1
 69 281 l 1
 69 362 l 1
 447 532 l 25
 447 573.013671875 l 9
 -14 573.013671875 l 17
 -14 636.3203125 l 1
 512 636.3203125 l 9
 512 271 l 29
447 82 m 25
 447 459 l 25
 140 316 l 25
 447 82 l 25
EndSplineSet
EndChar

StartChar: bnDHA
Encoding: 129 2471 13
Width: 575
VWidth: 0
Flags: HW
HStem: 0 21G<420.096 512> 575 61<512 587> 606 55<157.802 295.474>
VStem: 88.4199 62.707<515.108 600.662> 447 65<77 459 528 575>
LayerCount: 2
Back
Fore
SplineSet
279 453 m 5xb8
 447 528 l 5
 447 636 l 5
 443 702 l 5
 479 702 l 5
 502 636.328125 l 13
 587 636.328125 l 21
 587 572.998046875 l 5
 512 572.998046875 l 29xd8
 512 0 l 21
 447 0 l 5
 69 281 l 5
 69 358 l 5
 205 419.513671875 l 5
 205 419.513671875 81.29296875 463.217773438 81.29296875 540.15625 c 4
 81.29296875 587.002929688 119 661 170 661 c 4
 225 661 302 634 302 634 c 5
 292 592 l 21
 292 592 223.84765625 605 193 605 c 4
 164 605 144 572.21875 144 542 c 4
 144 493.723632812 279 453 279 453 c 5xb8
447 87 m 29
 447 459 l 29
 135 315 l 29
 447 87 l 29
EndSplineSet
EndChar

StartChar: bnBA
Encoding: 133 2476 14
Width: 585
VWidth: 0
Flags: HW
HStem: 0 21G<420.096 512.035> 575 61<-14 447 513 615>
VStem: 447 65<82 459 532 575>
LayerCount: 2
Back
Fore
SplineSet
513 572.998046875 m 21
 512 0 l 1
 447 0 l 5
 69 281 l 5
 69 362 l 5
 447 532 l 29
 447 572.998046875 l 13
 -14 572.998046875 l 21
 -14 636.328125 l 5
 595 636.328125 l 5
 595 572.998046875 l 9
 513 572.998046875 l 21
447 93.7890625 m 5
 447 459 l 5
 144 318 l 29
 447 93.7890625 l 5
EndSplineSet
EndChar

StartChar: bnRA
Encoding: 137 2480 15
Width: 585
VWidth: 0
Flags: HW
HStem: 0 21G<420.096 512.035> 575 61<-14 447 513 615>
VStem: 447 65<82 459 532 575>
LayerCount: 2
Back
Fore
SplineSet
513 572.998046875 m 21
 512 0 l 5
 447 0 l 5
 69 281 l 5
 69 362 l 5
 447 532 l 29
 447 572.998046875 l 13
 -14 572.998046875 l 21
 -14 636.328125 l 5
 595 636.328125 l 5
 595 572.998046875 l 13
 513 572.998046875 l 21
447 93.7890625 m 5
 447 459 l 5
 144 318 l 29
 447 93.7890625 l 5
127.672851562 11.318359375 m 2xb8
 127.672851562 68 l 2
 127.672851562 80.8818359375 134.543945312 89.4697265625 148.284179688 89.4697265625 c 2
 201.530273438 89.4697265625 l 2
 216.989257812 89.4697265625 223 81.740234375 223 68 c 2
 223 11.318359375 l 2
 223 -4.1396484375 213.552734375 -8.43359375 201.530273438 -8.43359375 c 2
 148.284179688 -8.43359375 l 2
 136.26171875 -8.43359375 127.672851562 -0.705078125 127.672851562 11.318359375 c 2xb8
EndSplineSet
EndChar

StartChar: bnE
Encoding: 107 2447 16
Width: 675
VWidth: 0
Flags: HW
HStem: -0 72<242.327 410.643> 556 74<399.698 528.57>
VStem: 553 69<152 529.629> 575 47<0 26.7273>
LayerCount: 2
Back
Fore
SplineSet
181 420 m 9xe0
 151 458 l 1
 223 532 321.501953125 630 421.501953125 630 c 0
 509 630 603 587 603 463 c 2xe0
 603 0 l 1
 556 0 l 1xd0
 534 84 l 21
 534 84 411.524414062 0 317 0 c 4
 274 0 186 0 125 89 c 4
 99.2841796875 126.51953125 75 187 55 254 c 5
 97 276 l 5
 179 145 l 6
 223.928710938 73.22265625 292 72 320 72 c 4
 410.877929688 72 534 160 534 160 c 5
 534 457 l 1
 534 505 494.501953125 556 428.501953125 556 c 0
 351.276367188 556 181 420 181 420 c 9xe0
EndSplineSet
EndChar

StartChar: bnAI
Encoding: 108 2448 17
Width: 800
VWidth: 0
Flags: HW
HStem: -0 72<242.327 410.643> 556 74<399.698 528.57>
VStem: 553 69<152 529.629> 575 47<0 26.7273>
LayerCount: 2
Back
Fore
SplineSet
592 279 m 17
 670 279 747 307 747 407 c 0
 747 465.061523438 733 743 733 743 c 1
 673 739 l 17
 673 739 673 519.432617188 673 413 c 0
 673 365 646 349 592 349 c 9
 592 463 l 2xe0
 592 587 498 630 410.501953125 630 c 0
 310.501953125 630 212 532 140 458 c 1
 170 420 l 17xe0
 170 420 340.276367188 556 417.501953125 556 c 0
 483.501953125 556 523 505 523 457 c 1
 523 160 l 1
 523 160 399.877929688 72 309 72 c 0
 281 72 212.932872045 73.2169970988 168 145 c 2
 86 276 l 5
 44 254 l 1
 64 187 91.2841796875 126.51953125 117 89 c 0
 178 0 263 0 306 0 c 0
 400.524414062 0 523 84 523 84 c 9
 545 0 l 1xd0
 592 0 l 1
 592 279 l 17
EndSplineSet
EndChar

StartChar: bnNYA
Encoding: 120 2462 18
Width: 925
VWidth: 0
Flags: HW
HStem: -0 72<242.327 410.643> 556 74<399.698 528.57>
VStem: 553 69<152 529.629> 575 47<0 26.7273>
AnchorPoint: "anchor0" 533 624 basechar 0
LayerCount: 2
Back
Fore
SplineSet
622 500 m 5xe0
 622 500 705.082704265 519.011480761 742 519 c 4
 805.999996905 518.980096899 860 518 860 405 c 6
 860 397 l 6
 860 364 856 317 815 311 c 5
 856 304 859 257 859 224 c 6
 859 215 l 6
 859 103 799.017131728 103 742 103 c 4
 687 103 622 124 622 124 c 13
 622 0 l 5
 575 0 l 5xd0
 553 84 l 21
 553 84 430.524414062 0 336 0 c 4
 293 0 205 0 144 89 c 4
 118.284179688 126.51953125 94 187 74 254 c 5
 114 279 l 5
 198 145 l 6
 242.982421875 73.2421875 311 72 339 72 c 4
 429.877929688 72 553 160 553 160 c 5
 553 457 l 5
 553 505 513.501953125 556 447.501953125 556 c 4
 370.276367188 556 200 420 200 420 c 13xe0
 170 458 l 5
 242 541 347 630 440.501953125 630 c 4
 600.520178353 630 622 500 622 500 c 5xe0
621 174 m 21
 621 174 701.904807624 166 742 166 c 4
 768 166 788 176 788 208 c 6
 788 229 l 6
 788 267 772 278 735 278 c 6
 682 278 l 21
 682 338 l 13
 735 338 l 6
 772 338 788 349 788 387 c 6
 788 412 l 6
 788 445 769 454 744 454 c 4
 703.355385059 454 622 444 622 444 c 13xfd
 621 174 l 21
EndSplineSet
EndChar

StartChar: bnTTA
Encoding: 121 2463 19
Width: 610
VWidth: 0
Flags: HW
HStem: 0 71<167.78 274.966> 337 66<269 459.086> 575 61<-13 72 147 416 486 620> 708 64<130.676 404.718>
VStem: 70 77<90.6372 575> 416 70<636 696.221> 468 72<241.198 323.883>
AnchorPoint: "anchor 1" 180 5 basechar 0
LayerCount: 2
Back
Fore
SplineSet
416 403 m 4
 488.241210938 403 526 355.7421875 526 296 c 4
 526 267 513.693359375 236.716796875 504 214 c 4
 446.016601562 78.10546875 283 0 208 0 c 4
 143 0 80 37 80 159 c 6
 80 573.0078125 l 5
 -13 573.0078125 l 5
 -13 636.326171875 l 5
 416 636.326171875 l 21
 416 690.326171875 400 705 352 705 c 4
 242 705 47 705 47 705 c 13
 43 758 l 5
 43 758 290 772 358 772 c 4
 452 772 486 714.326171875 486 636.326171875 c 13xfc
 620 636.326171875 l 5
 620 573.0078125 l 5
 147 573.0078125 l 21
 147 573.0078125 147 207 147 166 c 5
 147 106 163 71 212 71 c 4
 267 71 370 128 425 213 c 4
 447 247 455 272 455 291 c 4
 455 327 426.411132812 337 397 337 c 4
 360 337 299 337 299 337 c 5xfa
 293 397 l 5
 293 397 382 403 416 403 c 4
EndSplineSet
EndChar

StartChar: bnDDHA
Encoding: 124 2466 20
Width: 610
VWidth: 0
Flags: HW
HStem: 0 71<158.774 269.966> 337 66<264 454.086> 575 61<-14 75 142 612>
VStem: 75 67<86.6083 575> 463 72<241.198 324.278>
AnchorPoint: "anchor 1" 161 11 basechar 0
AnchorPoint: "anchor0" 269 637 basechar 0
LayerCount: 2
Back
Fore
SplineSet
620 636.326171875 m 21
 620 573.0078125 l 5
 147 573.0078125 l 21
 147 573.0078125 147 207 147 166 c 5
 147 106 163 71 212 71 c 4
 267 71 370 128 425 213 c 4
 447 247 455 272 455 291 c 4
 455 327 426.411132812 337 397 337 c 4
 360 337 299 337 299 337 c 5
 293 397 l 5
 293 397 382 403 416 403 c 4
 488.241210938 403 526 355.7421875 526 296 c 4
 526 267 512.532226562 235.840820312 501 214 c 4
 435 89 279 0 208 0 c 4
 143 0 80 37 80 159 c 6
 80 573.0078125 l 5
 -13 573.0078125 l 5
 -13 636.326171875 l 5
 620 636.326171875 l 21
EndSplineSet
EndChar

StartChar: bnDDHxA
Encoding: 159 2525 21
Width: 600
VWidth: 0
Flags: HW
HStem: 0 71<158.774 269.966> 337 66<264 454.086> 575 61<-14 75 142 612>
VStem: 75 67<86.6083 575> 463 72<241.198 324.278>
AnchorPoint: "anchor 1" 161 11 basechar 0
AnchorPoint: "anchor0" 231 635 basechar 0
LayerCount: 2
Back
Fore
SplineSet
612 636.326171875 m 21
 612 573.0078125 l 5
 147 573.0078125 l 21
 147 573.0078125 147 207 147 166 c 5
 147 106 163 71 212 71 c 4
 267 71 370 128 425 213 c 4
 447 247 455 272 455 291 c 4
 455 327 426.411132812 337 397 337 c 4
 360 337 299 337 299 337 c 5
 293 397 l 5
 293 397 382 403 416 403 c 4
 488.241210938 403 526 355.7421875 526 296 c 4
 526 267 512.532226562 235.840820312 501 214 c 4
 435 89 279 0 208 0 c 4
 143 0 80 37 80 159 c 6
 80 573.0078125 l 5
 -13 573.0078125 l 5
 -13 636.326171875 l 5
 612 636.326171875 l 21
184 -134 m 2
 184 -77 l 2
 184 -64 191 -56 204 -56 c 2
 258 -56 l 2
 273 -56 279 -64 279 -77 c 2
 279 -134 l 2
 279 -149 270 -154 258 -154 c 2
 204 -154 l 2
 192 -154 184 -146 184 -134 c 2
EndSplineSet
EndChar

StartChar: bnYA
Encoding: 136 2479 22
Width: 625
VWidth: 0
Flags: HW
HStem: 0 21G<471.117 575.035> 575 61.3281<-14 115 147 510 576 683>
VStem: 304.048 88.1683<383.657 431.25> 510 65<82 575>
LayerCount: 2
Back
Fore
SplineSet
556.001953125 573 m 25
 556.001953125 0 l 1
 490.001953125 0 l 1
 117.001953125 197 l 1
 116.001953125 272 l 1
 116.001953125 272 294.001953125 346 294.001953125 389 c 0
 294.001953125 421.25 79.001953125 538 79.001953125 538 c 9
 95.001953125 572.998046875 l 9
 -8 573 l 1
 -8 636.328125 l 1
 633 636.328125 l 1
 633 573 l 9
 556.001953125 573 l 25
490.001953125 573 m 25
 130.001953125 572.998046875 l 1
 130.001953125 572.998046875 230.986328125 529.013671875 301.001953125 487 c 0
 336.000976562 465.998046875 375.001953125 440 375.001953125 395 c 0
 375.001953125 336 334.001953125 299 206.001953125 233 c 1
 490.001953125 85 l 1
 490.001953125 573 l 25
EndSplineSet
EndChar

StartChar: bnYxA
Encoding: 160 2527 23
Width: 625
VWidth: 0
Flags: HW
HStem: -56 97<204 299> 0 21G<470.117 574.035> 575 61<-14 105 139 509 575 682>
VStem: 204 95<-56 41> 303.048 83.1682<383.621 427.753> 509 65<82 575>
LayerCount: 2
Back
Fore
SplineSet
556.001953125 573 m 29
 555.001953125 0 l 5
 490.001953125 0 l 5
 117.001953125 197 l 5
 116.001953125 272 l 5
 116.001953125 272 294.001953125 346 294.001953125 389 c 4
 294.001953125 421.25 79.001953125 538 79.001953125 538 c 13
 95.001953125 572.998046875 l 13
 -8 573 l 5
 -8 636.328125 l 5
 633 636.328125 l 5
 633 573 l 13
 556.001953125 573 l 29
490.001953125 573 m 29
 130.001953125 572.998046875 l 5
 130.001953125 572.998046875 230.986328125 529.013671875 301.001953125 487 c 4
 336.000976562 465.998046875 375.001953125 440 375.001953125 395 c 4
 375.001953125 336 334.001953125 299 206.001953125 233 c 5
 490.001953125 85 l 5
 490.001953125 573 l 29
184 -17 m 6xbc
 184 40 l 6
 184 53 191 61 204 61 c 6
 258 61 l 6
 273 61 279 54 279 40 c 6
 279 -17 l 6
 279 -32 270 -36 258 -36 c 6
 204 -36 l 6
 192 -36 184 -29 184 -17 c 6xbc
EndSplineSet
EndChar

StartChar: bnSSA
Encoding: 140 2487 24
Width: 625
VWidth: 0
Flags: HW
HStem: 0 21G<471.117 575.035> 575 61.3281<-14 115 147 510 576 683>
VStem: 304.048 88.1683<383.657 431.25> 510 65<82 575>
LayerCount: 2
Back
Fore
SplineSet
546.001953125 573 m 29
 545.001953125 0 l 5
 480.001953125 0 l 5
 107.001953125 197 l 5
 106.001953125 272 l 5
 106.001953125 272 284.001953125 346 284.001953125 389 c 4
 284.001953125 421.25 69.001953125 538 69.001953125 538 c 13
 85.001953125 572.998046875 l 13
 -8 573 l 5
 -8 636.328125 l 5
 637 636.328125 l 5
 637 573 l 13
 546.001953125 573 l 29
291.001953125 487 m 4
 316.928710938 473.6640625 407 429 480.001953125 429 c 5
 480.001953125 573 l 13
 120.001953125 572.998046875 l 5
 120.001953125 572.998046875 220.986328125 523.013671875 291.001953125 487 c 4
363 373.85546875 m 5
 363 373.85546875 364 311 196.001953125 233 c 5
 480.001953125 85 l 5
 480.001953125 353 l 5
 428 353 363 373.85546875 363 373.85546875 c 5
EndSplineSet
EndChar

StartChar: bnPHA
Encoding: 132 2475 25
Width: 845
VWidth: 0
Flags: HW
HStem: 0 21G<455.741 558.046> 432 61<559 723.115> 575 61<-14 104 139 885>
VStem: 303 81<383.197 426.697> 493 65<75 432> 741 70<314.117 414.661>
AnchorPoint: "anchor 1" 465 5 basechar 0
AnchorPoint: "anchor0" 451 637 basechar 0
LayerCount: 2
Back
Fore
SplineSet
109 572.998046875 m 1
 109 572.998046875 209.984375 529.013671875 280 487 c 0
 314.999023438 465.998046875 354 440 354 395 c 0
 354 336 313 299 185 233 c 1
 463 85 l 1
 463 493 l 25
 631 493 l 18
 743 493 787 443 787 370 c 0
 787 348 778.401367188 322.803710938 766 298 c 0
 744 254 681 194 681 194 c 1
 630 228 l 1
 630 228 672 290 692 321 c 0
 704.374023438 340.1796875 711 362 711 375 c 0
 711 411 680 429 634 429 c 2
 529 429 l 25
 528 0 l 1
 463 0 l 1
 96 197 l 1
 95 272 l 1
 95 272 273 346 273 389 c 0
 273 421.25 58 538 58 538 c 9
 74 572.998046875 l 1
 -14 572.998046875 l 1
 -14 636.330078125 l 1
 855 636.330078125 l 1
 855 572.998046875 l 25
 109 572.998046875 l 1
EndSplineSet
EndChar

StartChar: bnGHA
Encoding: 114 2456 26
Width: 630
VWidth: 0
Flags: HW
HStem: 0 21G<451.595 558> 364.544 61.2654<146.53 341.968> 575 61<-10 132 190 493 558 641>
VStem: 76 65<435.737 520.419> 493 65<78 575>
LayerCount: 2
Back
Fore
SplineSet
197 572.998046875 m 5
 197 572.998046875 148 497 148 472 c 4
 148 463 148 455 156 446 c 4
 168.99609375 431.704101562 220.596679688 428.809570312 281.997070312 428.809570312 c 4
 315.084960938 428.809570312 377 429 377 429 c 5
 398 342 l 5
 192 225 l 5
 493 82 l 29
 493 572.998046875 l 29
 197 572.998046875 l 5
558 572.998046875 m 29
 558 0 l 21
 493 0 l 5
 109 185 l 5
 109 260 l 5
 307 365 l 5
 307 365 280.048596317 364.543773669 256.781083444 364.543773669 c 4
 199.145689463 364.543773669 115 371 88 408 c 4
 78.4950968451 421.025237657 75 436 75 451 c 4
 75 503 132 572.998046875 132 572.998046875 c 5
 -10 572.998046875 l 5
 -10 636.328125 l 5
 641 636.328125 l 5
 641 572.998046875 l 13
 558 572.998046875 l 29
EndSplineSet
EndChar

StartChar: bnBHA
Encoding: 134 2477 27
Width: 825
VWidth: 0
Flags: HW
HStem: 37 75<363.864 503.732> 286 68<371.552 569.747> 340 85<612.321 671.589> 456 60.0979<371.019 500> 575 61<-14 860>
VStem: 305 65<356.449 454.844> 692 79<240.864 319.294>
AnchorPoint: "anchor 1" 387 41 basechar 0
AnchorPoint: "anchor0" 353 637 basechar 0
LayerCount: 2
Back
Fore
SplineSet
432 284 m 0
 327.8515625 284 269 309.602539062 269 403 c 0
 269 449 280.999921186 487.999936949 296 500 c 0
 316 516 330 516.09765625 362.72265625 516.09765625 c 0
 398 516.09765625 478 506 478 506 c 1
 472 452 l 17
 472 452 405.595703125 452 368.498046875 452 c 0
 343.498046875 452 343 422 343 396 c 0
 343 360.8125 389.337890625 359 438 359 c 0
 503.115234375 359 559.598632812 436 613 436 c 0
 658 436 744 323 744 277 c 0
 744 207.56640625 629 109 535 61 c 0
 512.241210938 49.37890625 471 32 421 32 c 0
 355 32 288 65 213 140 c 0
 131 222 61 345 61 345 c 1
 103 376 l 1
 253 210 l 2
 301.584960938 155.416015625 361 109 417 109 c 0
 467 109 492 124 509 133 c 0
 566.40625 163.028320312 661 232.272460938 661 277 c 0
 661 295 623 351 601 351 c 0xbe
 574.631835938 351 522.34765625 284 432 284 c 0
834 573 m 5
 -11 573 l 5
 -11 636.328125 l 5
 834 636.328125 l 5
 834 573 l 5
EndSplineSet
EndChar

StartChar: bnKHA
Encoding: 112 2454 28
Width: 670
VWidth: 0
Flags: HW
HStem: 0 21G<547.191 647> 450.622 62.9746<164.998 297.321> 575 62<647 761>
VStem: 94.1729 62.1426<522.986 578.194> 582 65<82 575>
AnchorPoint: "anchor0" 483 634.328 basechar 0
LayerCount: 2
Back
Fore
SplineSet
470 390 m 13
 212 273 l 29
 542 85 l 29
 542 636 l 21
 537 702 l 5
 573 702 l 5
 596 636.32421875 l 5
 678 636.32421875 l 21
 678 572.998046875 l 5
 607 572.998046875 l 5
 607 0 l 21
 542 0 l 5
 133 235 l 5
 133 316 l 5
 385 426 l 5
 385 426 372.672851562 459.778320312 366 482 c 4
 357.0703125 511.736328125 346 503 346 503 c 6
 346 503 247.709960938 447.622070312 166.05078125 447.622070312 c 4
 134.828125 447.622070312 105.745117188 455.42578125 85 477 c 4
 67.8232421875 494.731445312 53.1728515625 524.5234375 53.1728515625 549.572265625 c 4
 53.1728515625 569.73046875 60.83984375 596.924804688 79 614 c 4
 113.034179688 646.001953125 207 653 207 653 c 5
 219 613 l 21
 219 613 165.108398438 590.325195312 137 577 c 4
 123.583984375 570.639648438 116.315429688 560.45703125 116.315429688 549.35546875 c 4
 116.315429688 541.393554688 120.064453125 532.935546875 128 525 c 4
 136.435546875 516.205078125 149.833007812 513.596679688 166.138671875 513.596679688 c 4
 240.678710938 513.596679688 373 589 373 589 c 6
 373 589 377.3359375 591.2265625 383.76171875 591.2265625 c 4
 396.106445312 591.2265625 410.4609375 582.260742188 425 535 c 4
 440.93359375 483.208007812 470 390 470 390 c 13
EndSplineSet
EndChar

StartChar: bnTHA
Encoding: 127 2469 29
Width: 635
VWidth: 0
Flags: HW
HStem: 0 21G<477.022 577> 533 72<85 334.803> 575 61<577 659>
VStem: 348 69<412.06 516.847> 512 65<82 575> 512 38<683.368 711>
AnchorPoint: "anchor0" 433 637 basechar 0
LayerCount: 2
Back
Fore
SplineSet
221.322265625 533 m 0xd4
 163.322265625 533 69.322265625 533 69.322265625 533 c 1
 61.322265625 586 l 1
 61.322265625 586 145.322265625 605 219.322265625 605 c 0
 378.427734375 605 401.322265625 552 401.322265625 441 c 0
 401.322265625 333.357057443 169.322265625 266 169.322265625 266 c 9
 496.322265625 82 l 29xd8
 496.322265625 711 l 29
 534.322265625 711 l 5xd4
 553.322265625 636.328125 l 13
 643.322265625 636.328125 l 21
 643.322265625 572.998046875 l 5
 561.322265625 572.998046875 l 29
 561.322265625 0 l 21xb8
 496.322265625 0 l 5
 92.322265625 231 l 1
 91.322265625 317 l 1
 91.322265625 317 332.322265625 375.091780166 332.322265625 454 c 0
 332.322265625 514 322.322265625 533 221.322265625 533 c 0xd4
EndSplineSet
EndChar

StartChar: bnCA
Encoding: 116 2458 30
Width: 620
VWidth: 0
Flags: HW
HStem: 0 71<169.774 287.331> 575 61<-10 86 153 631>
VStem: 86 67<86.6083 405 463 575> 473 71<242.424 344.288>
AnchorPoint: "anchor 1" 182 6 basechar 0
AnchorPoint: "anchor0" 254 637 basechar 0
LayerCount: 2
Back
Fore
SplineSet
153 405 m 13
 153 166 l 5
 153 106 169 71 218 71 c 4
 273 71 388 144 443 229 c 4
 465 263 473 288 473 307 c 4
 473 343 449.219930455 348.000260031 415 355 c 4
 317.259079219 374.993057282 153 405 153 405 c 13
153 463 m 29
 153 463 224.710038447 455.448615009 262 451 c 4
 380.977050103 436.806284888 405 434 434 429 c 4
 510.956979911 415.733307955 544 371.742633643 544 312 c 4
 544 283 530.532226562 251.840820312 519 230 c 4
 453 105 285 0 214 0 c 4
 149 0 86 37 86 159 c 6
 86 572.998046875 l 5
 -10 572.998046875 l 5
 -10 636.328125 l 5
 631 636.328125 l 5
 631 572.998046875 l 5
 153 572.998046875 l 21
 153 463 l 29
EndSplineSet
EndChar

StartChar: bnCHA
Encoding: 117 2459 31
Width: 660
VWidth: 0
Flags: HW
HStem: 174 82<151.064 216.691> 575 61<-14 79 146 682>
VStem: 79 67<259.941 461 516 575> 363 70<344.172 404.602> 528 66<254.791 377.704>
AnchorPoint: "anchor 1" 415 1 basechar 0
AnchorPoint: "anchor0" 307 637 basechar 0
LayerCount: 2
Back
Fore
SplineSet
343 344 m 4
 355.62890625 354.463867188 363 369 363 385 c 4
 363 424.76171875 323.272447911 429.969691268 283 437 c 4
 174.123194727 456.006481963 146 461 146 461 c 5
 146 320 l 5
 147 276 176 266 195 266 c 4
 239 266 308 315 343 344 c 4
429.66796875 405 m 5
 429.66796875 405 434 390.366210938 434 381 c 4
 434 347 415.037109375 321.588867188 375 289 c 4
 330.641601562 252.89453125 245.76953125 198 182 198 c 4
 143 198 79 228 79 312 c 6
 79 573.013671875 l 5
 -14 573.013671875 l 5
 -14 636.328125 l 5
 672 636.328125 l 5
 672 573.013671875 l 5
 146 573.013671875 l 5
 146 516 l 21
 146 516 233.976963014 504.461970931 292 496 c 4
 367.008898416 485.060842884 402.327148438 481.064453125 475 464 c 4
 544.9375 447.578125 587 420 587 345 c 4
 587 317 580.454101562 277.564453125 575 247 c 4
 560.754882812 167.17578125 320 102 320 102 c 5
 575 3 l 13
 559 -44 l 5
 559 -44 324 22 228 74 c 5
 228 146 l 5
 228 146 498.494140625 210.89453125 515 281 c 4
 520.447265625 304.13671875 521 315 521 340 c 4
 521 367 514.5703125 377.971679688 476 392 c 4
 448.004882812 402.181640625 429.66796875 405 429.66796875 405 c 5
EndSplineSet
EndChar

StartChar: bnNGA
Encoding: 115 2457 32
Width: 690
Flags: HW
HStem: 8.16211 76.3477<304.288 418.354> 290 70<366.085 567.235> 431 59<366 513.76> 580 57<375.131 515.907>
VStem: 305 61<344 431 500 571.908> 518 55<494.683 576.301> 569.148 68.3691<210.738 285.933>
AnchorPoint: "anchor 1" 336 21 basechar 0
AnchorPoint: "anchor0" 333 636.656 basechar 0
LayerCount: 2
Back
Fore
SplineSet
305 290 m 13xfa
 305 438 l 21
 305 438 231.27576337 459.263645989 177 487 c 4
 151.892295976 499.830702398 141 506 141 506 c 13
 164 552 l 5
 305 500 l 5
 305 537 306.651238865 574.172844418 331 602 c 4
 352 626 373 637 433 637 c 4
 519 637 575 634 575 532 c 4xfc
 575 467 560 431 483 431 c 6
 366 431 l 5
 366 344 l 5
 366 344 482.938611967 360 525 360 c 4
 596 360 637.517578125 321.931640625 637.517578125 268.57421875 c 4
 637.517578125 184.027886432 553 104 464 50 c 4
 430.379105237 29.6008054247 389.525390625 18.1669921875 358.516601562 18.1669921875 c 4
 314.512695312 18.1669921875 268.881876257 36.4223472149 200 106 c 4
 101 206 30 401 30 401 c 5
 77 419 l 5
 77 419 181 234 249 159 c 4
 290.0546875 113.234375 321.59765625 83.509765625 358.565429688 83.509765625 c 4
 376.525390625 83.509765625 403.638714917 89.2166413347 428 103 c 4
 504 146 569.1484375 207 569.1484375 257.221679688 c 4
 569.1484375 274.35546875 555 290 504 290 c 4
 475 290 375 290 305 290 c 13xfa
366 491 m 5
 471 491 l 6
 503 491 518 500 518 525 c 4
 518 567 517 571 440 571 c 4
 378.674804688 571 366 570 366 491 c 5
EndSplineSet
EndChar

StartChar: bnNA
Encoding: 130 2472 33
Width: 590
VWidth: 0
Flags: HW
HStem: 0 21G<488 555> 362.225 70.1726<181.231 337.473> 575 61<-14 488 555 655>
VStem: 89.3553 68.3918<230.646 337.721> 488 67<0 290 356 575>
LayerCount: 2
Back
Fore
SplineSet
458 288 m 5
 458 288 273.875 359.225585938 202.795898438 359.225585938 c 4
 158.532226562 359.225585938 130.834960938 319.1875 130.834960938 280.705078125 c 4
 130.834960938 269.055664062 133.279296875 257.623046875 139.087890625 248 c 4
 166.555664062 202.5 231 145 231 145 c 5
 196 100 l 5
 196 100 125.732421875 151.493164062 105 173 c 4
 74.16015625 204.9921875 59.35546875 248.028320312 59.35546875 289.431640625 c 4
 59.35546875 329.131835938 74.359375 367.202148438 103 393 c 4
 136.502929688 423.177734375 168.908203125 432.3984375 216.963867188 432.3984375 c 4
 293.952148438 432.3984375 458 356 458 356 c 13
 458 572.998046875 l 5
 -14 572.998046875 l 1
 -14 636.328125 l 1
 600 636.328125 l 1
 600 572.998046875 l 1
 525 572.998046875 l 5
 525 0 l 29
 458 0 l 21
 458 288 l 5
EndSplineSet
EndChar

StartChar: bnNNA
Encoding: 125 2467 34
Width: 575
VWidth: 0
Flags: HW
HStem: 0 21G<462 531> 538.592 68.2524<170.512 339.156> 575 61<531 632>
VStem: 77.3553 68.3918<407.145 513.054> 462 69<0 465 540 575 636 665.909> 484 47<700.091 730>
AnchorPoint: "anchor0" 377 634 basechar 0
LayerCount: 2
Back
Fore
SplineSet
501 572.99609375 m 29xb8
 501 0 l 5
 432 0 l 5
 432 465 l 5
 432 465 304.725585938 538.591796875 212.634765625 538.591796875 c 4
 166.318359375 538.591796875 117.747070312 467.666015625 117.747070312 429 c 4
 117.747070312 374.735351562 220 285 220 285 c 13
 184 245 l 5
 184 245 131.23046875 276.041015625 93 317.735351562 c 4
 68 345 47.35546875 384.763671875 47.35546875 426.166992188 c 4
 47.35546875 477.8671875 87.9287109375 546.03515625 117.298828125 571 c 4
 151.846679688 600.365234375 179.677734375 606.84375 218.091796875 606.84375 c 4xd8
 233.393554688 606.84375 264.456054688 603.2421875 281 599 c 4
 359 579 432 540 432 540 c 5
 432 636 l 29xb8
 454 730 l 5
 501 730 l 5xb4
 501 636.328125 l 29
 586 636.328125 l 21
 586 572.99609375 l 5
 501 572.99609375 l 29xb8
EndSplineSet
EndChar

StartChar: bnGA
Encoding: 113 2455 35
Width: 540
VWidth: 0
Flags: HW
HStem: 0 21G<400 469> 549.388 71.3906<131.528 279.778> 575 61<469 572>
VStem: 15.8506 82.9395<445.788 514.57> 220.035 71.0049<259.192 339.464> 401.617 67.3828<0 502 564 575>
AnchorPoint: "anchor0" 351 635.641 basechar 0
LayerCount: 2
Back
Fore
SplineSet
401.6171875 502 m 5
 401.6171875 0 l 5
 469 0 l 5
 469 573 l 29
 552 573 l 5
 552 636.328125 l 13
 456 636.328125 l 21
 430 702 l 5
 394 702 l 5
 401.616210938 617 l 5
 401.6171875 561 l 21
 401.6171875 561 254.265625 621.778320312 159.793945312 621.778320312 c 4
 133.889648438 621.778320312 114 619 91 600 c 4
 71.3525390625 583.76953125 20.8505859375 503.376953125 20.8505859375 448.177734375 c 4
 20.8505859375 391.694335938 129.75 368.682617188 191 344 c 4
 213.856445312 334.4765625 218.03515625 310.245117188 218.03515625 290.23828125 c 4
 218.03515625 268.698242188 93 186 93 186 c 5
 125 135 l 5
 125 135 291.040039062 221 291.040039062 263.68359375 c 4
 291.040039062 295.348632812 277.759765625 348.624023438 273 361 c 4
 264 386 254 397 216 412 c 4
 159.537109375 435.140625 102.790039062 441.001953125 102.790039062 467.06640625 c 4
 102.790039062 494.487304688 138.791992188 549.387695312 160.770507812 549.387695312 c 4
 188 549.387695312 242.241210938 536.090820312 265 531 c 4
 401.6171875 502 l 5
EndSplineSet
EndChar

StartChar: bnPA
Encoding: 131 2474 36
Width: 680
VWidth: 0
Flags: HW
HStem: 0 21G<554.004 621.598> 554 67<255.149 379.027> 575 61<621.598 709.598>
VStem: 554.004 67.5938<0 377 455 575>
AnchorPoint: "anchor0" 487 636 basechar 0
LayerCount: 2
Back
Fore
SplineSet
464 471 m 1xd0
 464 471 433.064421689 500.083943372 411 517 c 0
 381 540 356 554 328 554 c 0
 300 554 276.745117188 537.4296875 263 529 c 0
 238.557617188 514.010742188 192.029296875 479.765625 192.029296875 479.765625 c 1
 304 339 l 1
 464 471 l 1xd0
601.454101562 0 m 17
 534.00390625 0 l 9
 534.00390625 408 l 1
 512 429 l 1
 317 263 l 1
 272 270 l 1
 136.029296875 446.765625 l 1
 90 416 l 1
 58 454 l 1
 58 454 149.1953125 538.662109375 229 585 c 0
 260 603 296 621 325 621 c 0xd0
 365 621 390.391601562 604.65234375 413 589 c 0
 465 553 534 485 534 485 c 1
 534 617 l 1
 526.59765625 702 l 1
 562.59765625 702 l 1
 588.59765625 636.328125 l 9
 689.59765625 636.328125 l 17
 689.59765625 572.998046875 l 1
 601.454101562 572.998046875 l 25xb0
 601.454101562 0 l 17
EndSplineSet
EndChar

StartChar: bnLA
Encoding: 138 2482 37
Width: 725
VWidth: 0
Flags: HW
HStem: 0 21G<588 655> 384 67<158.219 335.585 445.319 572.813> 575 61<-14 588 655 759>
VStem: 73 65<192.364 364.186> 357 52<206 258.182> 588 67<0 369.076 433 575>
LayerCount: 2
Back
Fore
SplineSet
588 423 m 13
 588 573 l 1
 -14 573 l 1
 -14 636.328125 l 1
 741 636.328125 l 1
 741 573 l 1
 655 573 l 1
 655 0 l 25
 588 0 l 17
 588 288 l 4
 588 331 582 381 520 381 c 4
 451.796875 381 415.009765625 367.268554688 404 288 c 6
 393 206 l 5
 337 206 l 5
 334 254 l 5
 329.635742188 369.26171875 299.225585938 381 192 381 c 4
 150.37109375 381 122 348 122 302 c 4
 122 253.916015625 160 117 160 117 c 5
 114 100 l 5
 114 100 47 201.530273438 47 322 c 4
 47 436 128 455 189 455 c 4
 269.517461856 455 351.249023438 452.481445312 371 385 c 5
 399 444 447 451 515 451 c 4
 572.284179688 451 588 423 588 423 c 13
EndSplineSet
EndChar

StartChar: bnDA
Encoding: 128 2470 38
Width: 525
Flags: HW
HStem: 575.328 61<-11 113 179.9 590>
VStem: 112.9 67<332 575.328>
AnchorPoint: "anchor 1" 325 0 basechar 0
AnchorPoint: "anchor0" 202 637 basechar 0
LayerCount: 2
Back
Fore
SplineSet
63 572.998046875 m 13
 -11 572.998046875 l 5
 -11 636.328125 l 5
 534 636.328125 l 5
 534 572.998046875 l 5
 129.900390625 572.998046875 l 5
 129.900390625 332 l 29
 408.900390625 452 l 5
 454.099609375 427 l 5
 409.599609375 66 l 5
 358.19921875 -35 l 5
 320.499023438 -35 l 5
 372.099609375 357 l 5
 100.919921875 238 l 5
 62.900390625 294.500976562 l 5
 63 572.998046875 l 13
EndSplineSet
EndChar

StartChar: bnSHA
Encoding: 139 2486 39
Width: 645
VWidth: 0
Flags: HW
HStem: 0 21G<487 556> 264 65<284.428 401.961> 526 69<17.4187 190.982 284.126 476.52> 575 61<556 660>
VStem: 201 71<348.623 511.392> 487 69<0 509.715 572 575 636 661.773> 509 47<691.227 717>
AnchorPoint: "anchor0" 418 636 basechar 0
LayerCount: 2
Back
Fore
SplineSet
457 608 m 5xec
 457 636 l 5xdc
 479 717 l 5
 526 717 l 5xda
 526 636.328125 l 29
 630 636.328125 l 21
 630 573 l 5
 526 573 l 29xdc
 526 0 l 5
 457 0 l 5
 457 510 l 5
 457 540 397 562 352 562 c 4
 297.770507812 562 275 531 275 478 c 4
 275 417.71484375 279.6953125 400.182617188 315 379 c 4
 350 358 405 336 405 336 c 5
 387 282 l 5
 387 282 347 288 310 303 c 4
 269.330078125 319.487304688 242 340 242 340 c 5
 242 340 222.553710938 321.16796875 176 303 c 4
 135 287 77 279 77 279 c 5
 62 334 l 5
 62 334 106.999023438 350.000976562 149 370 c 4
 193.701171875 391.28515625 198 413.141601562 198 483 c 4
 198 533 182.918945312 555.954101562 146 560 c 4
 108.108398438 564.15234375 -11 573 -11 573 c 5
 -10 636 l 5
 -10 636 108 636 160 636 c 4
 200 636 226 629 250 599 c 5
 277 630 299 634 335 634 c 4
 379 634 423 624 457 608 c 5xec
EndSplineSet
EndChar

StartChar: bnMA
Encoding: 135 2478 40
Width: 585
VWidth: 0
Flags: HW
HStem: 0 21G<450 515.035> 297 73<180.009 252.165> 575 61<-14 81 156 450 516 594>
VStem: 81 71<184.512 264.85> 257 64<357.105 431.08> 450 65<0 224 287 575>
LayerCount: 2
Back
Fore
SplineSet
81 573 m 1
 -14 573 l 17
 -14 636.330078125 l 1
 594 636.330078125 l 1
 594 573 l 9
 514.999023438 573 l 17
 515 0 l 1
 450 0 l 9
 450 220 l 21
 450 220 233.87890625 296 209 296 c 0
 194 296 180 287 167 266 c 0
 157 249 150 234 150 217 c 0
 150 209 152.137744962 202.157281897 159 196 c 0
 197.926757812 161.072265625 236 128 236 128 c 1
 207 89 l 1
 207 89 148 118 114 146 c 0
 93.7963926272 162.638264895 77 185 77 211 c 0
 77 234 83 267 102 300 c 0
 133.15228186 354.106594809 167 370 194 370 c 0
 214 370 233 367 233 367 c 2
 233.1328125 367.926757812 239 403.220703125 239 411 c 0
 239 422 234.814453125 435.805664062 218 452 c 0
 179.033203125 489.530273438 81 573 81 573 c 1
450 287 m 1
 450 572.998046875 l 25
 169 573 l 1
 169 573 188.1015625 560.904296875 225 532 c 0
 297.911132812 474.885742188 311 451 311 417 c 0
 311 403 302 348 302 348 c 1
 450 287 l 1
EndSplineSet
EndChar

StartChar: bnSA
Encoding: 141 2488 41
Width: 620
VWidth: 0
Flags: HW
HStem: 0 21G<550 615.035> 119 75<147.349 233.766> 323 80<378 440.96> 575 61<-9 172 198 550 616 711>
VStem: 550 65<0 266 341 575>
LayerCount: 2
Back
Fore
SplineSet
490 263 m 5
 490 263 399.125 314 368 314 c 4
 355 314 338 314 322 274 c 4
 287.375 187.4375 253 113 187 113 c 4
 135 113 46 158 46 158 c 5
 62 214 l 5
 62 214 153.547851562 188 170 188 c 4
 204 188 237.884765625 260.212890625 263 323 c 4
 267 333 274 355 274 373 c 4
 274 406 226 441 194 464 c 0
 154.381835938 492.475585938 93 535 93 535 c 1
 112 573 l 25
 -9 573 l 1
 -9 636.328125 l 1
 631 636.328125 l 1
 631 573 l 9
 556 573 l 17
 555 0 l 1
 490 0 l 1
 490 263 l 5
490 341 m 5
 490 573 l 25
 138 573 l 1
 138 573 187.463867188 548.0625 200 541 c 0
 248.744140625 513.540039062 304.740234375 481.719726562 328 449 c 0
 345.625976562 424.205078125 350 397 350 397 c 5
 398 397 483.91015625 343.858398438 490 341 c 5
EndSplineSet
EndChar

StartChar: bnJA
Encoding: 118 2460 42
Width: 875
VWidth: 0
Flags: HW
HStem: 24.8799 75.2969<358.076 466.021> 291 66<418.08 603.173> 575 62<-15 355 418 958>
VStem: 355 63<345 493 555 575> 604.099 71.1387<226.334 287.788> 716 35<-16 7.91089>
AnchorPoint: "anchor 1" 675 0 basechar 0
AnchorPoint: "anchor0" 567 638 basechar 0
LayerCount: 2
Back
Fore
SplineSet
315 306 m 21
 315 306 405.6015625 315 459.6015625 315 c 4
 513.328125 315 561.044921875 312.608398438 561.044921875 277 c 4
 561.044921875 243 521 201 459 149 c 4
 436.168945312 129.8515625 404.852539062 107 373 107 c 4
 319.37890625 107 280.782226562 154.875 243 201 c 4
 181.321289062 276.297851562 89 397 89 397 c 5
 44 372 l 5
 44 372 80 270 203 131 c 4
 266.623046875 59.1005859375 316.586914062 33.6435546875 369.94921875 33.6435546875 c 4
 419.969726562 33.6435546875 462.625 55.3505859375 493 82 c 4
 599 175 640.603515625 235.950195312 640.603515625 307.791992188 c 4
 640.603515625 373.59765625 534.599609375 381 465.6015625 381 c 4
 427.6015625 381 378 376 378 376 c 5
 378 493 l 5
 378 493 629 432 687 415 c 4
 735.73828125 400.71484375 754.009765625 371.291992188 740 322 c 4
 714.04296875 230.674804688 668 73 668 73 c 5
 676 -16 l 5
 714 -16 l 5
 815 329 l 6
 819.428710938 345.532226562 821.481445312 360.103515625 821.481445312 373.022460938 c 4
 821.481445312 447.625976562 750.010742188 467.1328125 675 491 c 4
 589 518 378 555 378 555 c 5
 378 573.001953125 l 29
 894 573.001953125 l 29
 894 636.328125 l 5
 -15.009765625 636.328125 l 5
 -15 573.001953125 l 5
 315 573.001953125 l 29
 315 306 l 21
EndSplineSet
EndChar

StartChar: bnO
Encoding: 109 2451 43
Width: 725
VWidth: 0
Flags: HW
HStem: 25 73<333.891 470.405> 346 63<368 510.427> 563 73<253 512.156>
VStem: 521 69<414.879 554.239> 572 71<184.875 305.579>
AnchorPoint: "anchor0" 376 638 basechar 0
LayerCount: 2
Back
Fore
SplineSet
432 563 m 4xf0
 374.293945312 563 253 563 253 563 c 5
 245 616 l 5
 245 616 335 636 432 636 c 4
 546.003759453 636 593 606 593 546 c 4xf0
 593 530 592.6875 503.8125 591 483 c 4
 588 446 588 390 568 376 c 5
 613 362 647 275.76953125 647 232 c 4
 647 176 604 109 510 53 c 4
 482.294921875 36.4951171875 443 25 409 25 c 4
 348 25 268 32 193 142 c 4
 114.92138788 256.515297776 54 395 54 395 c 5
 93 419 l 5
 242 204 l 6
 295.282100371 127.11643235 338 98 407 98 c 4
 453 98 501.369611759 136.557866113 517 150 c 4
 567 193 570 230 570 246 c 4xe8
 570 273 535 333 493 333 c 5
 368 333 l 5
 368 397 l 5
 368 397 437.060546875 397 471 397 c 4
 510 397 513 428 517 474 c 4
 518.706054688 493.623046875 519 503 519 516 c 4
 519 557 489 563 432 563 c 4xf0
EndSplineSet
EndChar

StartChar: bnAU
Encoding: 110 2452 44
Width: 725
VWidth: 0
Flags: HW
HStem: 25 73<333.891 470.405> 346 63<368 510.427> 563 73<253 512.156>
VStem: 521 69<414.879 554.239> 572 71<184.875 305.579>
AnchorPoint: "anchor0" 376 638 basechar 0
LayerCount: 2
Back
Fore
SplineSet
631.162109375 344 m 5
 631.162109375 344 671 261.724484811 671 232 c 0
 671 176 625 107 531 51 c 0
 503.294921875 34.4951171875 460 25 426 25 c 0
 369 25 287.498046875 38.3701171875 217 142 c 0
 139.041015625 256.596679688 78 395 78 395 c 1
 117 419 l 1
 269 198 l 2
 312.896484375 134.177734375 358 98 427 98 c 0
 470 98 524.991210938 137.01171875 541 150 c 0
 594 193 594 234 594 246 c 0xe8
 594 273 559 333 517 333 c 1
 392 333 l 1
 392 397 l 1
 392 397 461.060546875 397 495 397 c 0
 534 397 537 428 541 474 c 0
 542.706054688 493.623046875 543 503 543 516 c 0
 543 557 513 563 456 563 c 0xf0
 398.293945312 563 277 563 277 563 c 1
 269 616 l 1
 269 616 359 636 456 636 c 0
 570.00390625 636 617 606 617 546 c 0xf0
 617 530 616.6875 503.8125 615 483 c 0
 613.32823194 462.381527264 608.799804688 411 608.799804688 411 c 5
 666 411 690 439 690 486 c 0
 690 567.413559577 690 736 690 736 c 9
 740 740 l 1
 740 740 754 541.482365049 754 482 c 0
 754 396 704.162109375 344 631.162109375 344 c 5
EndSplineSet
EndChar

StartChar: bnII
Encoding: 102 2440 45
Width: 750
VWidth: 0
Flags: HW
HStem: 398 42<675.25 693> 450.313 65.6865<155.242 334.252> 575 61<-14 564 634 791> 708 64<278.036 553.09>
VStem: 336 71<366.774 446.646> 520 42<-64 -16.7692> 564 70<636 696.221>
LayerCount: 2
Back
Fore
SplineSet
95 423.60546875 m 1
 81 478 l 1
 134 498 211 516 280 516 c 0
 332 516 384 485 384 431 c 0
 384 404 375.602539062 384.041992188 369 373 c 2
 311 276 l 25
 567 440 l 1
 670 440 l 1
 675 398 l 1
 597 374 l 1
 539 -64 l 1
 493 -69 l 1
 480 28 l 1
 523 328 l 1
 150 96 l 1
 127 147.498046875 l 1
 180 200.498046875 l 1
 283 354 l 2
 298 375 313 403.60546875 313 419.60546875 c 0
 313 441.806640625 294.139648438 448.880859375 269.877929688 448.918945312 c 0
 224.552734375 448.98828125 95 423.60546875 95 423.60546875 c 1
564 636.33203125 m 9
 761 636.33203125 l 1
 761 573.0078125 l 25
 -14 573.0078125 l 1
 -14 636.33203125 l 1
 494 636.33203125 l 17
 494 690.33203125 478 705.509765625 430 705.509765625 c 0
 317.32421875 705.509765625 118 705.509765625 118 705.509765625 c 9
 114 758 l 1
 114 758 376.75390625 772 436 772 c 0
 531 772 564 714.33203125 564 636.33203125 c 9
EndSplineSet
EndChar

StartChar: bnvL
Encoding: 106 2444 46
Width: 650
Flags: HW
HStem: 2 71<359.451 493.868> 250 70<152.422 289.037>
VStem: 75 61<61.2379 235.679> 287 68<456.582 542.829> 301 63<75.0338 241.229> 505 69<86.2611 276.18>
AnchorPoint: "anchor0" 508 572 basechar 0
LayerCount: 2
Back
Fore
SplineSet
150 40 m 1xec
 101.901367188 21.2509765625 l 1
 101.901367188 21.2509765625 83 58 76.673828125 86.955078125 c 0
 57.4638671875 174.880859375 81.15234375 225.12890625 171.989257812 245.068359375 c 0
 224.734375 256.646484375 259.348632812 262.197265625 299.657226562 246.474609375 c 0
 332.056640625 234.133789062 349.234375 193.879882812 360.8828125 140.127929688 c 0xec
 369.529296875 100.23046875 374.15234375 70.3505859375 374.15234375 70.3505859375 c 1
 374.15234375 70.3505859375 429.8046875 79.658203125 458.794921875 85.859375 c 0
 486.048828125 91.6884765625 503.106445312 121 503.106445312 149.84765625 c 0
 503.106445312 164.629882812 502.408203125 203.002929688 491.599609375 219.708007812 c 0
 461 267 206.2734375 384 206.2734375 464.548828125 c 0
 206.2734375 527 264 600 331.216796875 646.635742188 c 1
 366 609 l 1
 307 549 278.12109375 496.873046875 278.12109375 475.174804688 c 0xf4
 278.12109375 433 512.130859375 330.65234375 555 255 c 0
 572 225 575 167.409179688 575 144 c 0
 575 76 528.720703125 28.4951171875 478.901367188 17.58203125 c 0
 429.354492188 6.7294921875 327.220703125 -0.3564453125 327.220703125 -0.3564453125 c 1
 309.424804688 80.7138671875 l 2
 299.991210938 123.690429688 288.388671875 167.21484375 269.87890625 181.580078125 c 0
 258.514648438 191.37109375 236.8125 187.630859375 213.370117188 182.485351562 c 0
 204.580078125 180.555664062 194.8125 178.412109375 186.021484375 176.482421875 c 0
 126.440429688 163.403320312 131.922851562 115.889648438 143.116210938 68.7783203125 c 0
 146.596679688 54.12890625 150 40 150 40 c 1xec
EndSplineSet
EndChar

StartChar: bnTTHA
Encoding: 122 2464 47
Width: 580
Flags: HW
HStem: -0.148438 74.1484<233.84 318.497> 574.179 61.8213<-14 168 240 593>
VStem: 168 72<535.648 574> 455 73<186.759 262.752>
AnchorPoint: "anchor 1" 243 10 basechar 0
LayerCount: 2
Back
Fore
SplineSet
528 225 m 4
 528 143 391.399414062 -0.1484375 269.408203125 -0.1484375 c 4
 161.00463601 -0.1484375 42 216 42 279 c 5
 42 279 156 334 192.094726562 374.038085938 c 4
 214.780369976 399.202142494 226 421.7890625 226 444 c 4
 226 464.1328125 213.094726562 481.038085938 190.094726562 513.038085938 c 4
 170.250976562 540.646484375 168 561.001953125 168 573.001953125 c 5
 -14 573.001953125 l 5
 -14 636.326171875 l 5
 169.591796875 636.326171875 l 5
 169.591796875 636.326171875 170.68612777 659.389358007 196 687 c 4
 249.553511479 745.412510717 350 816 350 816 c 5
 382 779 l 5
 382 779 284.851170428 689.180379846 254 658 c 4
 243.519582607 647.407747235 237.81640625 636.326171875 237.81640625 636.326171875 c 5
 593 636.326171875 l 5
 593 573.001953125 l 5
 240 573.002929688 l 21
 240 505.82421875 528 335 528 225 c 4
455 222 m 4
 455 265 285.094726562 409.038085938 285.094726562 409.038085938 c 5
 285 396 278 372 249.094726562 338.038085938 c 4
 205.98828125 287.390625 124 243 124 243 c 5
 124 243 205 74 276 74 c 4
 353.641601562 74 455 185 455 222 c 4
EndSplineSet
EndChar

StartChar: A
Encoding: 20 65 48
Width: 670
Flags: W
HStem: 0 21G<45 142.471 550.824 645> 204 74<229 468> 712 20G<306.65 395.022>
LayerCount: 2
Back
Fore
SplineSet
45 0 m 5
 314 732 l 5
 388 732 l 5
 645 0 l 5
 557 0 l 5
 494 204 l 5
 202 204 l 5
 136 0 l 5
 45 0 l 5
229 278 m 5
 468 278 l 5
 350 619 l 5
 229 278 l 5
EndSplineSet
Validated: 1
EndChar

StartChar: B
Encoding: 21 66 49
Width: 596
Flags: W
HStem: 0 74<155 437.089> 346 74<155 431.662> 658 74<155 438.829>
VStem: 80 75<74 346 420 658> 482 74<118.643 293.498 467.176 614.376>
LayerCount: 2
Back
Fore
SplineSet
80 0 m 5
 80 732 l 5
 362 732 l 6
 508 732 552 624 552 542 c 4
 552 468 531 402 460 380 c 5
 504 370 556 318 556 204 c 4
 556 102 516 0 362 0 c 6
 80 0 l 5
155 74 m 5
 362 74 l 6
 410 74 482 87 482 206 c 4
 482 280 446 346 362 346 c 6
 155 346 l 5
 155 74 l 5
155 420 m 5
 362 420 l 6
 437 420 478 460 478 542 c 4
 478 639 414 658 362 658 c 6
 155 658 l 5
 155 420 l 5
EndSplineSet
Validated: 1
EndChar

StartChar: C
Encoding: 22 67 50
Width: 578
Flags: W
HStem: -6 74<220.9 539.594> 666 74<203.384 525.638>
VStem: 55 74<193.881 566.781>
LayerCount: 2
Back
Fore
SplineSet
55 368 m 4
 55 602 100 740 299 740 c 4
 351 740 473 728 543 715 c 5
 543 656 l 6
 542 656 391 666 299 666 c 4
 174 666 129 609 129 366 c 4
 129 202 166 68 299 68 c 0
 404 68 543 75 543 75 c 1
 543 16 l 1
 473 3 351 -6 299 -6 c 0
 114 -6 55 153 55 368 c 4
EndSplineSet
Validated: 1
EndChar

StartChar: D
Encoding: 23 68 51
Width: 657
Flags: W
HStem: 0 77<154 432.267> 658 74<154 436.081>
VStem: 80 74<77 658> 538 74<215.053 531.866>
LayerCount: 2
Back
Fore
SplineSet
80 0 m 5
 80 732 l 5
 352 732 l 6
 577 732 612 513 612 363 c 4
 612 197 545 0 352 0 c 6
 80 0 l 5
154 77 m 5
 352 77 l 6
 484 77 538 210 538 364 c 4
 538 578 468 658 352 658 c 6
 154 658 l 5
 154 77 l 5
EndSplineSet
Validated: 1
EndChar

StartChar: E
Encoding: 24 69 52
Width: 567
Flags: W
HStem: -3.51911 74.5191<160.578 338.266> 14 57<396 522> 323 79<154 383.6> 333 59<252.4 482> 658 74.1761<160.901 342.745> 658 58<383.75 522>
VStem: 80 74<76.6798 323 402 652.375>
LayerCount: 2
Back
Fore
SplineSet
80 123 m 2x82
 80 602 l 2
 80 696.180545884 134.490684939 732.176123104 198.205696272 732.176123104 c 4x8a
 200.789632901 732.176123104 203.388740553 732.116922065 206 732 c 2
 522 716 l 1
 522 658 l 1x06
 206 658 l 2
 154 658 154 629 154 602 c 2
 154 402 l 1x2a
 482 392 l 1
 482 333 l 1x12
 154 323 l 1
 154 123 l 2
 154.963636364 71.9272727273 184.713719008 70.998677686 212.826097671 70.998677686 c 0
 213.886942149 70.998677686 214.945454545 71 216 71 c 2
 522 71 l 1
 522 14 l 1x62
 216 -3 l 2
 210.525242644 -3.33180347614 205.022961901 -3.51910917213 199.535394915 -3.51910917213 c 0
 138.868537602 -3.51910917213 80 19.373448201 80 123 c 2x82
EndSplineSet
Validated: 1
EndChar

StartChar: F
Encoding: 25 70 53
Width: 567
Flags: W
HStem: 0 21G<80 154> 323 79<154 383.6> 333 59<252.4 482> 658 74.1761<160.901 342.745> 658 58<383.75 522>
VStem: 80 74<0 323 402 652.375>
LayerCount: 2
Back
Fore
SplineSet
80 0 m 1xc4
 80 602 l 2
 80 696.180545884 134.490684939 732.176123104 198.205696272 732.176123104 c 0xd4
 200.789632901 732.176123104 203.388740553 732.116922065 206 732 c 2
 522 716 l 5
 522 658 l 1x8c
 206 658 l 2
 154 658 154 629 154 602 c 2
 154 402 l 1xd4
 482 392 l 1
 482 333 l 1xa4
 154 323 l 1
 154 0 l 1
 80 0 l 1xc4
EndSplineSet
Validated: 1
EndChar

StartChar: G
Encoding: 26 71 54
Width: 614
Flags: W
HStem: -5.01799 73.018<207.766 412.528> 314 75<328.605 485> 314 50<317 425.87> 666 74<205.82 510.876>
VStem: 55 74<173.936 567.504> 485 74<114 314> 503 56<0 21.4375>
LayerCount: 2
Back
Fore
SplineSet
55 370 m 0xda
 55 570 90 740 289 740 c 0
 341 740 473 726 543 713 c 1
 543 654 l 1
 537 654 388 666 289 666 c 0
 157 666 129 570 129 368 c 0
 129 146 170 70 293 68 c 0
 293.8 67.9894736842 294.604432133 67.984265928 295.413114448 67.984265928 c 0
 371.429252078 67.984265928 485 114 485 114 c 1
 485 314 l 1xdc
 317 314 l 1
 317 364 l 1xbc
 357 375 410 389 491 389 c 0
 512 389 535 388 559 386 c 1
 559 0 l 1
 503 0 l 1
 487 49 l 1
 449 28 383 -5 293 -5 c 0
 291.757800818 -5.01200192447 290.521939668 -5.01798992046 289.292385216 -5.01798992046 c 0
 85.6290566996 -5.01798992046 55 159.272203993 55 370 c 0xda
EndSplineSet
Validated: 1
EndChar

StartChar: H
Encoding: 27 72 55
Width: 638
Flags: W
HStem: 0 21G<80 154 504 578> 317 74<154 504> 712 20G<80 154 504 578>
VStem: 80 74<0 317 391 732> 504 74<0 317 391 732>
LayerCount: 2
Back
Fore
SplineSet
80 0 m 5
 80 732 l 5
 154 732 l 5
 154 391 l 5
 504 391 l 5
 504 732 l 5
 578 732 l 5
 578 0 l 5
 504 0 l 5
 504 317 l 5
 154 317 l 1
 154 0 l 5
 80 0 l 5
EndSplineSet
Validated: 1
EndChar

StartChar: I
Encoding: 28 73 56
Width: 214
Flags: W
HStem: 0 21G<80 154> 712 20G<80 154>
VStem: 80 74<0 732>
LayerCount: 2
Back
Fore
SplineSet
80 0 m 5
 80 732 l 5
 154 732 l 5
 154 0 l 5
 80 0 l 5
EndSplineSet
Validated: 1
EndChar

StartChar: J
Encoding: 29 74 57
Width: 359
Flags: W
HStem: -6.04957 64.9118<44.4683 197.867> 712 20G<225 299>
VStem: 225 74<88.3998 732>
LayerCount: 2
Back
Fore
SplineSet
35 21 m 1
 39 75 l 1
 68.0529903498 67.9330564014 102.809198593 58.8622794888 134.372626352 58.8622794888 c 0
 183.203458393 58.8622794888 224.392607978 80.5725089004 225 165 c 2
 225 732 l 1
 299 732 l 1
 299 165 l 2
 299 118 297 50 247 18 c 0
 221.66685093 1.74854587993 183.996394685 -6.04956813839 145.891905114 -6.04956813839 c 0
 104.277211659 -6.04956813839 62.1448348752 3.25145412007 35 21 c 1
EndSplineSet
Validated: 1
EndChar

StartChar: K
Encoding: 30 75 58
Width: 591
Flags: W
HStem: 0 21G<80 155 452.061 556> 330 74<155 236> 712 20G<80 154 451.976 556>
VStem: 80 75<0 330 404 732>
LayerCount: 2
Back
Fore
SplineSet
80 0 m 5
 80 732 l 5
 154 732 l 5
 154 404 l 5
 236 404 l 5
 466 732 l 5
 556 732 l 5
 304 367 l 5
 556 0 l 5
 466 0 l 5
 236 330 l 5
 155 330 l 5
 155 0 l 5
 80 0 l 5
EndSplineSet
Validated: 1
EndChar

StartChar: L
Encoding: 31 76 59
Width: 557
Flags: W
HStem: 0 74<161.01 522> 712 20G<80 154>
VStem: 80 74<80.0236 732>
LayerCount: 2
Back
Fore
SplineSet
80 126 m 2
 80 732 l 1
 154 732 l 1
 154 126 l 2
 154 74.9272727273 184.643636364 73.998677686 212.822274981 73.998677686 c 0
 213.885619835 73.998677686 214.945454545 74 216 74 c 2
 522 74 l 1
 522 0 l 1
 216 0 l 2
 150 0 80 13 80 126 c 2
EndSplineSet
Validated: 1
EndChar

StartChar: M
Encoding: 32 77 60
Width: 801
Flags: W
HStem: 0 21G<55 130.338 356.512 445.288 670.495 746> 712 20G<101.689 211.404 582.793 691.53>
LayerCount: 2
Back
Fore
SplineSet
55 0 m 5
 103 732 l 5
 205 732 l 5
 400 123 l 5
 589 732 l 5
 690 732 l 5
 746 0 l 5
 672 0 l 5
 627 598 l 5
 439 0 l 5
 363 0 l 5
 169 598 l 5
 129 0 l 5
 55 0 l 5
EndSplineSet
Validated: 1
EndChar

StartChar: N
Encoding: 33 78 61
Width: 680
Flags: W
HStem: 0 21G<80 155 532.835 620> 712 20G<80 169.131 546 620>
VStem: 80 75<0 594> 546 74<138 732>
LayerCount: 2
Back
Fore
SplineSet
80 0 m 1
 80 732 l 1
 156 732 l 1
 546 138 l 1
 546 732 l 1
 620 732 l 1
 620 0 l 1
 546 0 l 1
 155 594 l 1
 155 0 l 1
 80 0 l 1
EndSplineSet
Validated: 1
EndChar

StartChar: O
Encoding: 34 79 62
Width: 676
Flags: W
HStem: -4 74<219.697 475.299> 663 74<215.42 480.653>
VStem: 65 74<165.414 559.094> 557 74<169.3 563.994>
LayerCount: 2
Back
Fore
SplineSet
65 361 m 4
 65 704 181 737 349 737 c 4
 522 737 631 704 631 361 c 4
 631 38 529 -4 349 -4 c 4
 169 -4 65 28 65 361 c 4
139 361 m 4
 139 104 191 70 349 70 c 4
 505 70 557 112 557 361 c 4
 557 660 485 663 349 663 c 4
 216 663 139 660 139 361 c 4
EndSplineSet
Validated: 1
EndChar

StartChar: P
Encoding: 35 80 63
Width: 581
Flags: W
HStem: 0 21G<60 134> 298 74<134.363 426.956> 318 54<134 354.472> 657 75<134 425.273>
VStem: 60 74<0 318 372 657> 461 75<409.245 618.009>
LayerCount: 2
Back
Fore
SplineSet
60 0 m 5xbc
 60 732 l 5
 361 732 l 6
 440 732 536 699 536 520 c 4
 536 311 435 298 361 298 c 4xdc
 321 298 139 315 134 318 c 5
 134 0 l 5
 60 0 l 5xbc
134 372 m 5xbc
 361 372 l 6xdc
 413 372 461 387 461 520 c 4
 459 651 396 657 361 657 c 6
 134 657 l 5
 134 372 l 5xbc
EndSplineSet
Validated: 1
EndChar

StartChar: Q
Encoding: 36 81 64
Width: 676
Flags: W
HStem: -142.846 75.0458<390.139 536.007> -4 74<218.166 473.746> 663 74<216.209 479.207>
VStem: 65 74<165.414 563.994> 557 74<174.009 563.994>
LayerCount: 2
Back
Fore
SplineSet
65 361 m 0
 65 704 175 737 347 737 c 0
 520 737 631 704 631 361 c 0
 631 38 527 -4 347 -4 c 0
 167 -4 65 28 65 361 c 0
139 361 m 0
 139 104 189 70 347 70 c 0
 503 70 557 112 557 361 c 0
 557 660 483 663 347 663 c 0
 214 663 139 660 139 361 c 0
317 -33 m 1
 369 -33 l 1
 404.179551058 -57.966133009 434.851711019 -67.8003101921 465.400848415 -67.8003101921 c 0
 488.691127998 -67.8003101921 511.909902603 -62.0843456093 537 -53 c 1
 537 -133 l 1
 519.728852636 -139.476680262 499.005245418 -142.846146656 477.25846491 -142.846146656 c 0
 408.347215379 -142.846146656 329.161967252 -109.012295327 317 -33 c 1
EndSplineSet
Validated: 1
EndChar

StartChar: R
Encoding: 37 82 65
Width: 593
Flags: W
HStem: 0 21G<60 134 477.699 568> 313 66<134 234> 657 75<134 430.774>
VStem: 60 74<0 313 379 657> 466 75<404.847 621.147>
LayerCount: 2
Back
Fore
SplineSet
60 0 m 5
 60 732 l 5
 372 732 l 6
 467 732 541 678 541 512 c 4
 541 322 442 306 414 302 c 5
 568 0 l 5
 488 0 l 5
 334 299 l 5
 134 313 l 5
 134 0 l 5
 60 0 l 5
134 379 m 5
 372 379 l 6
 418 379 466 379 466 512 c 4
 466 643 416 657 372 657 c 6
 134 657 l 5
 134 379 l 5
EndSplineSet
Validated: 1
EndChar

StartChar: S
Encoding: 38 83 66
Width: 584
Flags: W
HStem: -8 74<108.551 432.534> 322 74<162.037 442.271> 664.518 73.4818<167.448 263>
VStem: 65 74<417.897 635.158> 465 74<97.8527 300.228>
LayerCount: 2
Back
Fore
SplineSet
65 494 m 2
 65 560 l 2
 65 705 151 738 263 738 c 0
 316 738 475 719 513 714 c 1
 513 654 l 1
 449 658 263 664 263 664 c 2
 255.67821785 664.313790664 248.531483843 664.518176238 241.60328302 664.518176238 c 0
 182.294323595 664.518176238 139 649.540311214 139 560 c 2
 139 494 l 2
 139 403 181 396 241 396 c 2
 383 396 l 2
 516 396 539 306 539 224 c 2
 539 156 l 2
 539 14 436 -8 337 -8 c 0
 288 -8 133 9 87 17 c 1
 87 77 l 1
 127 73 244 66 337 66 c 0
 378 66 465 68 465 156 c 2
 465 224 l 2
 465 281 448 322 383 322 c 2
 243 322 l 2
 83 322 65 410 65 494 c 2
EndSplineSet
Validated: 1
EndChar

StartChar: T
Encoding: 39 84 67
Width: 578
Flags: W
HStem: 0 21G<259 333> 658 74<45 259 333 553>
VStem: 259 74<0 658>
LayerCount: 2
Back
Fore
SplineSet
45 658 m 5
 45 732 l 5
 553 732 l 5
 553 658 l 5
 333 658 l 5
 333 0 l 5
 259 0 l 5
 259 658 l 5
 45 658 l 5
EndSplineSet
Validated: 1
EndChar

StartChar: U
Encoding: 40 85 68
Width: 677
Flags: W
HStem: -5.01681 74.0049<221.825 466.311> 712 20G<80 154 542 617>
VStem: 80 74<152.981 732> 542 75<163.07 732>
LayerCount: 2
Back
Fore
SplineSet
80 320 m 2
 80 732 l 1
 154 732 l 1
 154 320 l 2
 154 74.4646840149 227.021655312 68.9880598665 335.566717196 68.9880598665 c 0
 340.634969113 68.9880598665 345.780669145 69 351 69 c 0
 450 69 542 71 542 320 c 2
 542 732 l 1
 617 732 l 1
 617 320 l 2
 617 -3 472 -5 351 -5 c 0
 344.76504298 -5 338.532187749 -5.01681431187 332.314346157 -5.01681431187 c 0
 202.905518017 -5.01681431187 80 2.2664756447 80 320 c 2
EndSplineSet
Validated: 1
EndChar

StartChar: V
Encoding: 41 86 69
Width: 670
Flags: W
HStem: 0 21G<294.978 383.35> 712 20G<45 132.971 556.704 645>
LayerCount: 2
Back
Fore
SplineSet
45 732 m 5
 126 732 l 5
 340 118 l 5
 564 732 l 5
 645 732 l 5
 376 0 l 5
 302 0 l 5
 45 732 l 5
EndSplineSet
Validated: 1
EndChar

StartChar: W
Encoding: 42 87 70
Width: 962
Flags: W
HStem: 0 21G<294.978 382.471 626.674 714.257> 712 20G<45 133.065 513.997 604 849.859 937>
LayerCount: 2
Back
Fore
SplineSet
45 732 m 5
 126 732 l 5
 339 129 l 5
 520 732 l 5
 604 732 l 5
 536 498 l 5
 669 123 l 5
 856 732 l 5
 937 732 l 5
 708 0 l 5
 634 0 l 5
 497 374 l 5
 376 0 l 5
 302 0 l 5
 45 732 l 5
EndSplineSet
Validated: 1
EndChar

StartChar: X
Encoding: 43 88 71
Width: 596
Flags: W
HStem: 0 21G<48 140.494 473.377 566> 712 20G<45 137.726 478.013 571>
LayerCount: 2
Back
Fore
SplineSet
45 732 m 5
 126 732 l 5
 306 425 l 5
 490 732 l 5
 571 732 l 5
 355 371 l 5
 566 0 l 5
 485 0 l 5
 306 308 l 5
 129 0 l 5
 48 0 l 5
 257 371 l 5
 45 732 l 5
EndSplineSet
Validated: 1
EndChar

StartChar: Y
Encoding: 44 89 72
Width: 630
Flags: W
HStem: 0 21G<278 352> 712 20G<45 135.844 513.115 605>
VStem: 278 74<0 260>
LayerCount: 2
Back
Fore
SplineSet
45 732 m 5
 126 732 l 5
 315 348 l 5
 524 732 l 5
 605 732 l 5
 352 260 l 5
 352 0 l 5
 278 0 l 5
 278 260 l 5
 45 732 l 5
EndSplineSet
Validated: 1
EndChar

StartChar: Z
Encoding: 45 90 73
Width: 563
Flags: W
HStem: 0 74<132 528> 658 74<35 431>
LayerCount: 2
Back
Fore
SplineSet
35 0 m 5
 35 74 l 5
 431 658 l 5
 35 658 l 5
 35 732 l 5
 528 732 l 5
 528 658 l 5
 132 74 l 5
 528 74 l 5
 528 0 l 5
 35 0 l 5
EndSplineSet
Validated: 1
EndChar

StartChar: a
Encoding: 52 97 74
Width: 519
Flags: W
HStem: -6 74<124.061 278.286> 262 57.5556<297.875 395> 469 72.0163<92.8965 373.315>
VStem: 40 74<78.9822 232.113> 395 74<119 262 319.623 449.467> 414 55<0 23.5789>
LayerCount: 2
Back
Fore
SplineSet
40 126 m 2xf8
 40 187 l 2
 40 267 90 320 173 320 c 2
 173 320 271.666666667 319.555555556 337.444444444 319.555555556 c 0
 370.333333333 319.555555556 395 319.666666667 395 320 c 2
 395 320 395.444444444 349.333333333 395.444444444 369.185185185 c 0
 395.444444444 379.111111111 395.333333333 386.666666667 395 387 c 0
 395 448 363 469 313 469 c 0
 241 469 154 464 57 457 c 1
 57 511 l 1
 128 531 217 540 316 541 c 0
 316.900157753 541.010845274 317.798786447 541.01628003 318.695813371 541.01628003 c 0
 400.510104981 541.01628003 469 495.807019845 469 387 c 2xf8
 469 0 l 1
 414 0 l 1xf4
 395 64 l 2
 393 64 264 -6 173 -6 c 0
 100 -6 40 41 40 126 c 2xf8
114 131 m 2
 114 83 139 68 173 68 c 0
 253 68 395 119 395 119 c 1
 395 262 l 1
 173 246 l 2
 130 242 114 213 114 181 c 2
 114 131 l 2
EndSplineSet
Validated: 1
EndChar

StartChar: b
Encoding: 53 98 75
Width: 554
Flags: W
HStem: -6 74<225.261 383.478> 465 74<187.279 387.269>
VStem: 60 73<105.707 443.8 499 785> 430 74<128.042 415.865>
LayerCount: 2
Back
Fore
SplineSet
60 0 m 5
 60 785 l 5
 132 785 l 5
 132 499 l 5
 196 525 284 539 329 539 c 4
 480 539 504 399 504 263 c 4
 504 141 474 -6 329 -6 c 4
 261 -6 159 40 133 59 c 5
 113 0 l 5
 60 0 l 5
133 114 m 5
 187 92 250 68 329 68 c 4
 394 68 430 133 430 263 c 4
 430 426 393 465 329 465 c 4
 252 465 202 457 133 439 c 5
 133 114 l 5
EndSplineSet
Validated: 1
EndChar

StartChar: c
Encoding: 54 99 76
Width: 500
Flags: W
HStem: -5 74<162.645 431.709> 462 74<158.815 440.878>
VStem: 50 74<113 420.51>
LayerCount: 2
Back
Fore
SplineSet
50 266 m 4
 50 498 123 536 225 536 c 4
 277 536 383 523 453 510 c 5
 453 456 l 5
 453 456 314 462 225 462 c 4
 165 462 124 451 124 262 c 4
 124 109 153 69 225 69 c 4
 317 69 460 80 460 80 c 5
 460 24 l 5
 379 1 308 -4 225 -5 c 4
 126 -5 50 33 50 266 c 4
EndSplineSet
Validated: 1
EndChar

StartChar: d
Encoding: 55 100 77
Width: 554
Flags: W
HStem: -6 74<170.522 328.739> 465 74<166.731 366.308>
VStem: 50 74<128.042 415.865> 421 73<105.707 443.8 499 785>
LayerCount: 2
Back
Fore
SplineSet
50 263 m 4
 50 399 74 539 225 539 c 4
 270 539 357 525 421 499 c 5
 421 785 l 5
 494 785 l 5
 494 0 l 5
 441 0 l 5
 421 59 l 5
 395 40 293 -6 225 -6 c 4
 80 -6 50 141 50 263 c 4
124 263 m 4
 124 133 160 68 225 68 c 4
 304 68 367 92 421 114 c 5
 421 439 l 5
 352 457 302 465 225 465 c 4
 161 465 124 426 124 263 c 4
EndSplineSet
Validated: 1
EndChar

StartChar: f
Encoding: 57 102 78
Width: 400
Flags: W
HStem: 0 21G<117 191> 457 74<77.0588 117 191 339> 457 57<20 59.9412> 713 49<279.994 380> 714.02 71.9802<204.675 257 257.088 373.154>
VStem: 117 74<0 457 531 703.09>
LayerCount: 2
Back
Fore
SplineSet
20 457 m 1xa4
 20 514 l 1xa4
 117 531 l 1
 117 630 l 2
 117 684 120 786 240 786 c 0xcc
 289 786 331 777 380 762 c 1
 380 713 l 2x94
 379 713 257 714 257 714 c 2
 256.153921065 714.013219983 255.318677744 714.019798784 254.494131411 714.019798784 c 0
 192.947469603 714.019798784 191 677.365440799 191 630 c 2
 191 531 l 1
 339 531 l 1
 339 457 l 1
 191 457 l 1
 191 0 l 1
 117 0 l 1
 117 457 l 1xcc
 20 457 l 1xa4
EndSplineSet
Validated: 1
EndChar

StartChar: g
Encoding: 58 103 79
Width: 554
Flags: W
HStem: -270 74<140.344 413.093> 11 74<124.085 421.923> 149 74<155.811 372.113> 459 74<157.929 380.441> 477 56<502.5 534>
VStem: 48 74<-176.54 -31 87.9633 146.13 259.919 423.39> 410.139 73.8612<260.463 427.75> 431 74<-178.305 0.397503>
LayerCount: 2
Back
Fore
SplineSet
48 115 m 0xf5
 48 148 66 190 107 198 c 1
 63 226 49 291 49 344 c 0
 49 471 115 533 222 533 c 2xf5
 534 533 l 1
 534 477 l 1xed
 453 459 l 1
 464 438 484 417 484 344 c 0xf6
 484 284 461 149 319 149 c 2
 163 149 l 2
 147 149 122 145 122 119 c 0
 122 93 141 85 163 85 c 2
 376 85 l 2
 459 85 505 30 505 -53 c 2
 505 -116 l 2
 505 -176 486 -270 355 -270 c 2
 205 -270 l 2
 111 -270 45 -220 45 -116 c 2
 45 -31 l 1
 85 34 l 1
 57 54 48 88 48 115 c 0xf5
119 -116 m 2
 119 -189 170 -196 205 -196 c 2
 355 -196 l 2
 414 -196 431 -163 431 -116 c 2
 431 -58 l 2
 431 -11 421 11 363 11 c 2
 164 11 l 2
 133 11 119 19 119 19 c 1
 119 -116 l 2
123 344 m 0
 123 295 138 223 215 223 c 2
 313 223 l 2
 389.349151158 223 410.138807654 290.400042704 410.138807654 337.406286745 c 0xf6
 410.138807654 339.654022169 410.091271221 341.855126305 410 344 c 0
 407 414 391 459 312 459 c 2
 222 459 l 2
 140 459 123 399 123 344 c 0
EndSplineSet
Validated: 1
EndChar

StartChar: h
Encoding: 59 104 80
Width: 544
Flags: W
HStem: 0 21G<60 134 420 494> 466 74<227.78 392.774> 764 20G<60 134>
VStem: 60 74<0 418.956 469 784> 420 74<0 437.431>
LayerCount: 2
Back
Fore
SplineSet
60 0 m 5
 60 784 l 5
 134 784 l 5
 134 469 l 5
 195 504 249 540 330 540 c 4
 436 540 494 458 494 370 c 6
 494 0 l 5
 420 0 l 5
 420 370 l 6
 420 436 382 466 330 466 c 4
 250 466 211 446 134 409 c 5
 134 0 l 5
 60 0 l 5
EndSplineSet
Validated: 1
EndChar

StartChar: i
Encoding: 60 105 81
Width: 197
Flags: W
HStem: 0 21G<60 134> 511 20G<60 134> 594 102<50.1465 146.837>
VStem: 50 97<594.104 695.928> 60 74<0 531>
LayerCount: 2
Back
Fore
SplineSet
50 617 m 6xf0
 50 671 l 6
 50 686 58 696 74 696 c 6
 124 696 l 6
 139 696 147 685 147 671 c 6
 147 617 l 6
 147 602 138 594 124 594 c 6
 74 594 l 6
 60 594 50 603 50 617 c 6xf0
60 0 m 5xe8
 60 531 l 5
 134 531 l 5
 134 0 l 5
 60 0 l 5xe8
EndSplineSet
Validated: 1
EndChar

StartChar: j
Encoding: 61 106 82
Width: 217
Flags: W
HStem: -270 21G<71 130.009> 511 20G<71 145> 594 102<60.1465 156.837>
VStem: 60 97<594.104 695.928> 71 74.1958<-253.213 531> 71 48<-270 -151.818>
LayerCount: 2
Back
Fore
SplineSet
60 617 m 2xf0
 60 671 l 2
 60 686 68 696 84 696 c 2
 134 696 l 2
 149 696 157 685 157 671 c 2
 157 617 l 2
 157 602 148 594 134 594 c 2
 84 594 l 2
 70 594 60 603 60 617 c 2xf0
71 -270 m 1xe4
 71 531 l 1
 145 531 l 1
 145 -4 l 2
 145.11925824 -14.2562086707 145.195848897 -24.7115327319 145.195848897 -35.3083029594 c 0xe8
 145.195848897 -113.567197513 141.018543991 -199.540659229 119 -270 c 1
 71 -270 l 1xe4
EndSplineSet
Validated: 1
EndChar

StartChar: k
Encoding: 62 107 83
Width: 500
Flags: W
HStem: 0 21G<60 134 372.03 480> 268 74<134 174> 511 20G<355.519 480> 762 20G<60 134>
VStem: 60 74<0 268 342 782>
LayerCount: 2
Back
Fore
SplineSet
60 0 m 5
 60 782 l 5
 134 782 l 5
 134 342 l 5
 174 342 l 5
 377 531 l 5
 480 531 l 5
 244 305 l 5
 480 0 l 5
 388 0 l 5
 174 268 l 5
 134 268 l 5
 134 0 l 5
 60 0 l 5
EndSplineSet
Validated: 1
EndChar

StartChar: l
Encoding: 63 108 84
Width: 300
Flags: W
HStem: 0 74<154.414 191> 0 53<191.059 280> 763 20G<60 134>
VStem: 60 74<95.4826 783>
LayerCount: 2
Back
Fore
SplineSet
60 189 m 6x70
 60 783 l 5
 134 783 l 5
 134 189 l 6
 134 102 157 82 191 74 c 6xb0
 191 74 273 53 280 53 c 5
 280 0 l 5
 192 0 l 6
 115 0 60 48 60 189 c 6x70
EndSplineSet
Validated: 1
EndChar

StartChar: m
Encoding: 64 109 85
Width: 898
Flags: W
HStem: 0 21G<60 134 414 488 774 848> 463 74<222.499 382.263 566.626 742.395>
VStem: 60 74<0 416.931> 414 74<0 418.709> 774 74<0 431.686>
LayerCount: 2
Back
Fore
SplineSet
60 0 m 5
 60 531 l 5
 112 531 l 5
 134 467 l 5
 195 502 244 537 323 537 c 4
 388 537 447 508 470 459 c 5
 522 502 595 537 684 537 c 4
 776 537 848 468 848 366 c 6
 848 0 l 5
 774 0 l 5
 774 366 l 6
 774 425 736 463 684 463 c 4
 605 463 554 450 488 407 c 5
 488 368 l 5
 488 0 l 5
 414 0 l 5
 414 366 l 6
 414 425 375 463 323 463 c 4
 246 463 211 444 134 407 c 5
 134 0 l 5
 60 0 l 5
EndSplineSet
Validated: 1
EndChar

StartChar: n
Encoding: 65 110 86
Width: 544
Flags: W
HStem: 0 21G<60 134 420 494> 466 74<227.78 392.581> 511 20G<60 119.097>
VStem: 60 74<0 418.956> 420 74<0 437.431>
LayerCount: 2
Back
Fore
SplineSet
60 0 m 5xd8
 60 531 l 5
 112 531 l 5xb8
 134 469 l 5
 195 504 249 540 330 540 c 4
 436 540 494 458 494 370 c 6
 494 0 l 5
 420 0 l 5
 420 370 l 6
 420 436 381 466 330 466 c 4
 250 466 211 446 134 409 c 5
 134 0 l 5
 60 0 l 5xd8
EndSplineSet
Validated: 1
EndChar

StartChar: o
Encoding: 66 111 87
Width: 568
Flags: W
HStem: -5 74<175.515 395.003> 462 74<173.221 396.872>
VStem: 50 74<124.237 406.335> 444 74<126.206 409.804>
LayerCount: 2
Back
Fore
SplineSet
50 258 m 4
 50 475 110 536 284 536 c 4
 463 536 518 469 518 258 c 4
 518 61 463 -5 284 -5 c 4
 105 -5 50 68 50 258 c 4
124 258 m 4
 124 81 181 69 284 69 c 4
 392 69 444 83 444 258 c 4
 444 448 401 462 284 462 c 4
 172 462 124 449 124 258 c 4
EndSplineSet
Validated: 1
EndChar

StartChar: p
Encoding: 67 112 88
Width: 554
Flags: W
HStem: -270 21G<60 132> -8 74<186.875 387.269> 463 74<224.808 383.478>
VStem: 60 72<-270 32 87.1995 425.293> 60 53<509.263 531> 430 74<115.135 402.958>
LayerCount: 2
Back
Fore
SplineSet
60 -270 m 5xf4
 60 531 l 5
 113 531 l 5xec
 132 472 l 5
 158 491 261 537 329 537 c 4
 474 537 504 390 504 268 c 4
 504 132 480 -8 329 -8 c 4
 284 -8 196 6 132 32 c 5
 132 -270 l 5
 60 -270 l 5xf4
132 92 m 5xf4
 201 74 252 66 329 66 c 4
 393 66 430 105 430 268 c 4
 430 398 394 463 329 463 c 4
 250 463 186 439 132 417 c 5
 132 92 l 5xf4
EndSplineSet
Validated: 1
EndChar

StartChar: q
Encoding: 68 113 89
Width: 555
Flags: W
HStem: -270 21G<421 495> -10 74<170.87 370.126> 463 74<175.36 419.713>
VStem: 50 73.9828<116.185 404.035> 421 74<-270 29 84.3832 463>
LayerCount: 2
Back
Fore
SplineSet
50 268 m 0
 50 436 109 537 234 537 c 0
 340 537 448 518 495 514 c 1
 495 -270 l 1
 421 -270 l 1
 421 29 l 1
 357 3 279 -10 234 -10 c 0
 81 -10 50 110 50 268 c 0
124 268 m 0
 124 262.295081967 123.982800322 256.461166353 123.982800322 250.539701561 c 0
 123.982800322 166.158828272 127.475409836 64 234 64 c 0
 308 64 338 68 421 89 c 1
 421 463 l 1
 234 463 l 2
 127 463 124 331 124 268 c 0
EndSplineSet
Validated: 1
EndChar

StartChar: r
Encoding: 69 114 90
Width: 426
Flags: W
HStem: 0 21G<60 134> 462 75<230.081 405.422>
VStem: 60 74<0 413.98> 60 52<509.682 531>
LayerCount: 2
Back
Fore
SplineSet
60 0 m 5xe0
 60 531 l 5
 112 531 l 5xd0
 134 464 l 5
 195 499 250 537 332 537 c 4
 361 537 394 535 406 529 c 5
 406 456 l 5
 394 459 361 462 332 462 c 4
 252 462 211 441 134 404 c 5
 134 0 l 5
 60 0 l 5xe0
EndSplineSet
Validated: 1
EndChar

StartChar: s
Encoding: 70 115 91
Width: 506
Flags: W
HStem: -5 74<97.198 383.312> 14 55<62 282.5> 227 74<120.694 383.578> 463 73<119.823 414.988> 463 57<216.94 439>
VStem: 40 74<307.663 456.151> 392 74<78.2272 217.859>
LayerCount: 2
Back
Fore
SplineSet
40 358 m 2xa6
 40 404 l 2
 40 486 75 536 178 536 c 0xb6
 230 536 387 525 439 520 c 1
 439 463 l 1x2e
 178 463 l 2
 114 463 114 438 114 404 c 2
 114 358 l 2
 114 303 141 301 178 301 c 2
 336 301 l 2
 423 301 466 247 466 172 c 2
 466 123 l 2
 466 14 400 -5 336 -5 c 0xb6
 287 -5 100 10 62 14 c 1
 62 69 l 1x66
 336 69 l 1
 336 69 337.555555556 68.8333333333 340.148148148 68.8333333333 c 0
 353.111111111 68.8333333333 392 73 392 123 c 2
 392 172 l 2
 392 207 380 227 336 227 c 2
 178 227 l 2
 84 227 40 255 40 358 c 2xa6
EndSplineSet
Validated: 1
EndChar

StartChar: t
Encoding: 71 116 92
Width: 378
Flags: W
HStem: 1 74<213.414 250> 1 53<250.059 339> 458 74<193 348> 458 56<20 58.5>
VStem: 119 74<96.4826 458> 137 56<622.444 680>
LayerCount: 2
Back
Fore
SplineSet
20 458 m 5x58
 20 514 l 5x58
 119 532 l 5x28
 137 680 l 5
 193 680 l 5
 193 532 l 5x24
 348 532 l 5
 348 458 l 5
 193 458 l 5
 193 190 l 6
 193 103 216 83 250 75 c 6xa8
 250 75 332 54 339 54 c 5
 339 1 l 5
 251 1 l 6
 174 1 119 49 119 190 c 6
 119 458 l 5
 20 458 l 5x58
EndSplineSet
Validated: 1
EndChar

StartChar: u
Encoding: 72 117 93
Width: 544
Flags: W
HStem: -9 74<151.419 316.22> 0 21G<424.903 484> 511 20G<50 124 410 484>
VStem: 50 74<93.5694 531> 410 74<112.044 531>
LayerCount: 2
Back
Fore
SplineSet
50 161 m 6xb8
 50 531 l 5
 124 531 l 5
 124 161 l 6
 124 95 163 65 214 65 c 4xb8
 294 65 333 85 410 122 c 5
 410 531 l 5
 484 531 l 5
 484 0 l 5
 432 0 l 5x78
 410 62 l 5
 349 27 295 -9 214 -9 c 4
 108 -9 50 73 50 161 c 6xb8
EndSplineSet
Validated: 1
EndChar

StartChar: v
Encoding: 73 118 94
Width: 536
Flags: W
HStem: 0 21G<221.128 311.023> 511 20G<20 108.867 427.038 516>
LayerCount: 2
Back
Fore
SplineSet
20 531 m 5
 101 531 l 5
 267 109 l 5
 435 531 l 5
 516 531 l 5
 303 0 l 5
 229 0 l 5
 20 531 l 5
EndSplineSet
Validated: 1
EndChar

StartChar: w
Encoding: 74 119 95
Width: 801
Flags: W
HStem: 0 21G<211.505 305.692 494.923 585.646> 511 20G<20 108.441 389.46 476 692.322 781>
LayerCount: 2
Back
Fore
SplineSet
20 531 m 5
 101 531 l 5
 258 109 l 5
 396 531 l 5
 476 531 l 5
 422 361 l 5
 538 109 l 5
 700 531 l 5
 781 531 l 5
 578 0 l 5
 504 0 l 5
 386 260 l 5
 299 0 l 5
 219 0 l 5
 20 531 l 5
EndSplineSet
Validated: 1
EndChar

StartChar: x
Encoding: 75 120 96
Width: 524
Flags: W
HStem: 0 21G<24 130.455 393.545 492> 511 20G<24 130.118 393.49 500>
LayerCount: 2
Back
Fore
SplineSet
24 0 m 5
 216 266 l 5
 24 531 l 5
 116 531 l 5
 260 327 l 5
 408 531 l 5
 500 531 l 5
 306 263 l 5
 492 0 l 5
 408 0 l 5
 262 202 l 5
 116 0 l 5
 24 0 l 5
EndSplineSet
Validated: 1
EndChar

StartChar: y
Encoding: 76 121 97
Width: 554
Flags: W
HStem: -270 21G<177 237.706> 0 74.3028<240.509 271> 511 20G<21 108.217 442.304 532>
LayerCount: 2
Back
Fore
SplineSet
21 531 m 1
 102 531 l 1
 231 116 l 2
 242.032258065 81.064516129 264.709677419 74.3028095734 280.383035145 74.3028095734 c 0
 290.024169105 74.3028095734 297.015082 76.8613274863 297.015082 76.9946060236 c 0
 297.015082 76.9981702358 297.010082339 77 297 77 c 2
 449 531 l 1
 532 531 l 1
 298 -168 l 1
 223 -270 l 1
 177 -270 l 1
 271 0 l 1
 250 0 184 2 151 110 c 2
 21 531 l 1
EndSplineSet
Validated: 1
EndChar

StartChar: z
Encoding: 77 122 98
Width: 456
Flags: W
HStem: 1 74<142 426> 457 74<30 334>
LayerCount: 2
Back
Fore
SplineSet
30 457 m 1
 30 531 l 1
 426 531 l 1
 426 457 l 1
 142 75 l 1
 426 75 l 2
 426.333333333 74.6666666667 426.444444444 66.3333333333 426.444444444 55.3703703704 c 0
 426.444444444 33.4444444444 426 1 426 1 c 1
 45 1 l 1
 45 75 l 1
 334 457 l 1
 30 457 l 1
EndSplineSet
Validated: 1
EndChar

StartChar: bnmAA
Encoding: 144 2494 99
Width: 200
VWidth: 0
Flags: HW
HStem: 0 21G<85 154> 575 61<-10 79 154 246>
VStem: 85 69<0 575>
AnchorPoint: "anchor0" 45 637 basechar 0
LayerCount: 2
Back
Fore
SplineSet
-10 573 m 25
 -10 636.328125 l 25
 16 636.328125 l 17
 88 628 l 1
 84 702 l 1
 120 702 l 1
 143 636.328125 l 9
 211 636.328125 l 21
 211 573 l 1
 154 573 l 25
 154 0 l 1
 85 0 l 1
 85 573 l 9
 -10 573 l 25
EndSplineSet
EndChar

StartChar: bnmI
Encoding: 145 2495 100
Width: 233
VWidth: 0
Flags: HW
HStem: 0 21G<96 165> 575 61<-12 82.25 165 244> 813.1 66.3999<144.906 341.032>
VStem: 62 73<640.731 800.62> 96 69<0 575>
LayerCount: 2
Back
Fore
SplineSet
135 706 m 2xf0
 135 677 135 655.328125 162 636.328125 c 9
 244 636.328125 l 17
 244 573 l 1
 165 573 l 25
 165 0 l 1
 96 0 l 1
 96 573 l 9xe8
 -12 573 l 25
 -12 636.328125 l 25
 14 636.328125 l 17
 92 628 l 17
 65 646 62 680 62 704 c 2
 62 764 l 2
 62 851.02616028 110.844013951 879.500179613 188.3128601 879.500179613 c 0
 251.492270202 879.500179613 333.560272734 859.922623472 424 839 c 0
 558 808 707 764 707 764 c 1
 692 715 l 5
 282 797.9609375 l 2
 257.732454022 802.600618326 229.237304688 808.060546875 203.528320312 808.060546875 c 0
 165.995117188 808.060546875 135 801.104289826 135 756 c 2
 135 706 l 2xf0
EndSplineSet
EndChar

StartChar: bnmII
Encoding: 146 2496 101
Width: 244
Flags: HW
HStem: 0 21G<-284 -215> 575 61<-376 -284 -205.5 -106> 680 60<-828.719 -552.861> 844 69<-651.372 -349.212>
VStem: -892 58<746.981 829.942> -550 63<635 673.36> -284 69<0 575 636 760.505>
AnchorPoint: "anchor0" -184 635 mark 0
LayerCount: 2
Back
Fore
SplineSet
150 628 m 9
 218 636.328125 l 9
 258 636.328125 l 25
 258 573 l 25
 149 573 l 17
 149 0 l 1
 80 0 l 1
 80 573 l 25
 -12 573 l 1
 -12 636.328125 l 1
 78 636.328125 l 21
 78 703.328125 58 841 -48 841 c 0
 -140 841 -391 832 -419 830 c 0
 -467 827 -468 830 -468 783 c 0
 -468 742 -454 742 -296 742 c 0
 -136 742 -123 740 -123 635 c 9
 -186 635 l 17
 -186 680 -193 680 -312 680 c 0
 -504 680 -528 685 -528 783 c 0
 -528 882 -505 889 -415 894 c 2
 -415 894 -118.501953125 913 -67 913 c 0
 129 913 150 751 150 628 c 9
EndSplineSet
Substitution2: "Single Substitution lookup 17 subtable" bnmII2
Substitution2: "Single Substitution lookup 31 subtable" bnmII3
EndChar

StartChar: bnmE
Encoding: 151 2503 102
Width: 270
VWidth: 0
Flags: HW
HStem: 575 61<-14 144 214 283>
VStem: 60.0088 71.0781<138.879 344.948>
LayerCount: 2
Back
Fore
SplineSet
214 573 m 5
 214 573 131.086914062 387.020000001 131.086914062 217.426757812 c 4
 131.086914062 167.399985763 143.180664062 125.536132812 196.314453125 92.990234375 c 6
 331.80078125 18.2861328125 l 5
 313.78515625 -26.4794921875 l 5
 313.78515625 -26.4794921875 196.778320312 9.8046875 158.08203125 33.439453125 c 4
 80.2685546875 79.3330078125 60.0087890625 132 60.0087890625 205.8984375 c 4
 60.0087890625 357.072622934 141 573 141 573 c 13
 -14 573 l 29
 -14 636.328125 l 13
 283 636.328125 l 21
 283 573 l 5
 214 573 l 5
EndSplineSet
Substitution2: "'init' Initial Forms in Bengali lookup 0 subtable" bnmE.init
Substitution2: "'init' Initial Forms in Bengali2 lookup 11 subtable" bnmE.init
EndChar

StartChar: bnmAI
Encoding: 152 2504 103
Width: 270
VWidth: 0
Flags: HW
HStem: 575 61<-14 144 214 283>
VStem: 60.0088 71.0781<138.879 344.948>
LayerCount: 2
Back
Fore
SplineSet
213.00390625 636.328125 m 4
 212.990234375 714.322265625 180 773 86 773 c 4
 16 773 -144 759 -144 759 c 5
 -140 706 l 21
 -140 706 48 706 80 706 c 4
 128 706 145 690.328125 145 636.328125 c 4
 -14 636.328125 l 1
 -14 573 l 25
 141 573 l 17
 141 573 60.0087890625 357.072622934 60.0087890625 205.8984375 c 0
 60.0087890625 132 80.2685546875 79.3330078125 158.08203125 33.439453125 c 0
 196.778320312 9.8046875 313.78515625 -26.4794921875 313.78515625 -26.4794921875 c 1
 331.80078125 18.2861328125 l 1
 196.314453125 92.990234375 l 2
 143.180664062 125.536132812 131.086914062 167.399985763 131.086914062 217.426757812 c 0
 131.086914062 387.020000001 214 573 214 573 c 1
 283 573 l 1
 283 636.328125 l 1
 213.00390625 636.328125 l 4
EndSplineSet
Substitution2: "'init' Initial Forms in Bengali lookup 0 subtable" bnmAI.init
Substitution2: "'init' Initial Forms in Bengali2 lookup 11 subtable" bnmAI.init
EndChar

StartChar: bnAUlntmk
Encoding: 157 2519 106
Width: 233
VWidth: 0
Flags: HW
HStem: 0 21G<85 154> 575 61.3281<-10 74 154 246> 708 64<-211.909 60.973>
VStem: 74 69<636 696.221> 85 69<0 575>
LayerCount: 2
Back
Fore
SplineSet
143 636.329101562 m 9xf0
 246 636.327148438 l 17
 246 573 l 1
 154 573 l 25
 154 0 l 1
 85 0 l 1xe8
 85.00390625 573 l 9
 -10 573 l 25
 -10 636.330078125 l 25
 16 636.328125 l 1
 74 630 l 17
 74 689 58 701.900390625 10 701.900390625 c 0
 -58 701.900390625 -332 701.900390625 -332 701.900390625 c 9
 -336 758 l 1
 -336 758 -43.0751464463 772 16 772 c 0
 115 772 143 714.329101562 143 636.329101562 c 9xf0
EndSplineSet
EndChar

StartChar: bnNukta
Encoding: 143 2492 107
Width: 0
VWidth: 0
Flags: W
HStem: -179.752 97.9033<-204.327 -109>
VStem: -204.327 95.3271<-179.752 -81.8486>
LayerCount: 2
Back
Fore
SplineSet
-204.327148438 -160 m 2
 -204.327148438 -103.318359375 l 2
 -204.327148438 -90.4365234375 -197.456054688 -81.8486328125 -183.715820312 -81.8486328125 c 2
 -130.469726562 -81.8486328125 l 2
 -115.010742188 -81.8486328125 -109 -89.578125 -109 -103.318359375 c 2
 -109 -160 l 2
 -109 -175.458007812 -118.447265625 -179.751953125 -130.469726562 -179.751953125 c 2
 -183.715820312 -179.751953125 l 2
 -195.73828125 -179.751953125 -204.327148438 -172.0234375 -204.327148438 -160 c 2
EndSplineSet
Validated: 1
EndChar

StartChar: bnmU
Encoding: 147 2497 108
Width: 0
VWidth: 2048
GlyphClass: 4
Flags: HW
HStem: -286.098 67.918<-297.314 -227.595> -96.6025 74.3525<-303.362 -233.696>
VStem: -412.729 80.6592<-189.638 -130.92>
AnchorPoint: "anchor 1" -131 0 mark 0
LayerCount: 2
Back
Fore
SplineSet
-58 4.6201171875 m 21
 -89.7998046875 -109.60546875 l 5
 -62.06640625 -124.809570312 65 -230 65 -230 c 5
 42 -261 l 5
 -114 -167 l 5
 -114 -167 -161.669921875 -265 -201 -265 c 4
 -238.43359375 -265 -363 -225.313476562 -363 -166 c 4
 -363 -134.823242188 -320.095703125 -30.25 -263.669921875 -30.25 c 4
 -223 -30.25 -153.620117188 -74.16796875 -153.620117188 -74.16796875 c 5
 -129.790039062 4.6201171875 l 5
 -58 4.6201171875 l 21
-172.190429688 -132.432617188 m 5
 -172.190429688 -132.432617188 -227 -94.6025390625 -255.150390625 -94.6025390625 c 4
 -279.490234375 -94.6025390625 -299.0703125 -138.858398438 -299.0703125 -152.740234375 c 4
 -299.0703125 -181.025390625 -230.979492188 -200.1796875 -215.26953125 -200.1796875 c 4
 -193 -200.1796875 -172.190429688 -132.432617188 -172.190429688 -132.432617188 c 5
EndSplineSet
Substitution2: "Single Substitution lookup 29 subtable" bnmU5
Substitution2: "Single Substitution lookup 28 subtable" bnmU4
Substitution2: "Single Substitution lookup 26 subtable" bnmU3
Substitution2: "Single Substitution lookup 25 subtable" bnmU2
Substitution2: "Single Substitution lookup 24 subtable" bnmU1
EndChar

StartChar: bnmUU
Encoding: 148 2498 109
Width: 0
VWidth: 2048
GlyphClass: 4
Flags: HW
HStem: -298.059 76.0293<-280.437 -168.552> -271 21G<23.2785 75.2857> -101 70<-354 -270.247>
VStem: -416 78<-208.5 -109.764>
AnchorPoint: "anchor 1" -225 0 mark 0
LayerCount: 2
Back
Fore
SplineSet
-118 -119 m 1xb0
 -69 -119 l 1
 -13 -151 98 -222 98 -222 c 1
 73 -260 l 1x70
 -86 -187 l 5
 -86 -187 -149.83203125 -278 -189 -278 c 0
 -285 -278 -376 -237 -376 -183 c 0
 -376 -121 -346 -37 -296 -37 c 0
 -272 -37 -248 -47 -248 -47 c 1
 -220 11 l 1
 -156 11 l 1
 -215 -113 l 1
 -215 -113 -256 -98 -271 -98 c 0
 -296 -98 -310 -140.306640625 -310 -162 c 0
 -310 -192 -261 -214.029296875 -202.65234375 -214.029296875 c 0
 -173.594726562 -214.029296875 -118 -119 -118 -119 c 1xb0
EndSplineSet
Substitution2: "Single Substitution lookup 29 subtable" bnmUU5
Substitution2: "Single Substitution lookup 28 subtable" bnmUU4
Substitution2: "Single Substitution lookup 26 subtable" bnmUU3
Substitution2: "Single Substitution lookup 25 subtable" bnmUU2
Substitution2: "Single Substitution lookup 24 subtable" bnmUU1
EndChar

StartChar: bnmvR
Encoding: 149 2499 110
Width: 0
VWidth: 2048
GlyphClass: 4
Flags: HW
AnchorPoint: "anchor 1" -153 0 mark 0
LayerCount: 2
Back
Fore
SplineSet
38 -327 m 1
 -336 -172 l 1
 -345 -99 l 1
 -109 22 l 1
 -74 -39 l 1
 -242 -127 l 1
 -242 -127 -33.3642578125 -225.096679688 62 -281 c 1
 38 -327 l 1
EndSplineSet
Substitution2: "Single Substitution lookup 26 subtable" bnmvR3
Substitution2: "Single Substitution lookup 25 subtable" bnmvR2
Substitution2: "Single Substitution lookup 24 subtable" bnmvR1
EndChar

StartChar: bnOne
Encoding: 166 2535 113
Width: 563
Flags: HW
HStem: -2.06487 84.3218<229.51 348.752>
VStem: 423 87<177.039 286.016>
LayerCount: 2
Back
Fore
SplineSet
266 542 m 0
 291 493 510 361 510 270 c 0
 510 157.182574427 423 -2.06486543924 303.839096082 -2.06486543924 c 0
 256.890671173 -2.06486543924 206.002131675 17.412249477 161 50 c 0
 106 90 44 145 44 145 c 1
 86 201 l 1
 86 201 147 159 199 126 c 0
 227.021484375 108.23046875 251.989257812 87.2568359375 286.919921875 87.2568359375 c 0
 370.638671875 87.2568359375 420 198.129882812 420 260 c 0
 420 332 221 435 193 513 c 0
 178 557 183 652 183 652 c 1
 243 659 l 1
 243 659 246 582 266 542 c 0
EndSplineSet
EndChar

StartChar: bnTwo
Encoding: 167 2536 114
Width: 596
VWidth: 0
Flags: HW
VStem: 420.53 89.8055<350.007 442.16>
LayerCount: 2
Back
Fore
SplineSet
467 299 m 0
 398.677734375 232.396484375 266 204 266 204 c 1
 517 29 l 1
 487 -27 l 1
 487 -27 269.48046875 74.654296875 67 240 c 9
 109 307 l 1
 173 265 l 1
 173 265 328.066533792 290.469500759 399 350 c 0
 414.586891904 363.081208438 420.529674597 378.171978161 420.529674597 392.859087938 c 0
 420.529674597 425.152257715 391.599609375 448.706054688 368 464 c 0
 338.044921875 483.413085938 125 623 125 623 c 13
 153 675 l 1
 153 675 329.854672796 590.19342506 413 531 c 0
 445.30942669 507.998038352 510.335127307 465.879580726 510.335127307 387.750667249 c 0
 510.335127307 360.34082274 497.360351562 328.596679688 467 299 c 0
EndSplineSet
EndChar

StartChar: bnThree
Encoding: 168 2537 115
Width: 825
VWidth: 0
Flags: HW
HStem: -5 86<378.186 515.444> 523 78<355.302 632.094>
VStem: 688 76.5069<305.787 470.258>
LayerCount: 2
Back
Fore
SplineSet
538 591 m 0
 686 591 754.506835938 493.797851562 754.506835938 396.236328125 c 0
 754.506835938 250.737304688 677 17 448 17 c 0
 368 17 289.287109375 60.6552734375 211 159 c 0
 120.338867188 272.889648438 60 397 60 397 c 1
 107 429 l 1
 258 227 l 2
 322.295898438 140.98828125 382 102 446 102 c 0
 599 102 668 268 668 393 c 0
 668 473 605 513 517 513 c 0
 459.6640625 513 267 493 267 493 c 1
 256 556 l 1
 256 556 403.198242188 591 538 591 c 0
EndSplineSet
EndChar

StartChar: bnFour
Encoding: 169 2538 116
Width: 680
Flags: HW
HStem: -1 77<158.02 497.308> 311 80<187.086 472.622> 564 72<186.004 472.155>
VStem: 76 76<83.9189 302.281> 105 76<397.315 556.77> 478 80<398.249 556.747> 506 80<84.5189 301.179>
LayerCount: 2
Back
Fore
SplineSet
424 392 m 2xec
 450 392 476 402 476 436 c 2
 476 516 l 2
 475 552 457 562 425 562 c 2
 235 562 l 2
 203 562 184 552 183 516 c 2
 183 435 l 2
 183 402 209 392 235 392 c 2
 424 392 l 2xec
435 636 m 2
 497 636 558 622 558 518 c 2
 558 456 l 18xec
 558 422 557 376 517 362 c 1
 559 349 585 326 586 279 c 2
 586 124 l 2
 586 123 586 121 586 120 c 0
 586 27 552 -1 451 -1 c 2
 211 -1 l 2
 128 -1 76 21 76 122 c 2
 76 274 l 2xf2
 76 321 104 350 146 363 c 1
 106 377 105 422 105 456 c 2
 105 520 l 2
 105 618 166 636 236 636 c 2
 435 636 l 2
154 125 m 2xf2
 154 82 188 78 222 78 c 2
 436 78 l 2
 491 78 504 98 504 126 c 2
 504 259 l 2
 504 292 489 310 436 310 c 2
 222 310 l 2
 180 310 154 302 154 257 c 2
 154 125 l 2xf2
EndSplineSet
EndChar

StartChar: bnSix
Encoding: 171 2540 117
Width: 725
VWidth: 0
Flags: HW
HStem: -0 77<345.838 450.505> 370 69<405.88 618.903>
VStem: 340 65<429 614> 623 70<268.519 363.958>
LayerCount: 2
Back
Fore
SplineSet
310 614 m 25
 375 614 l 25
 375 409 l 1
 375 409 467.735351562 419 527 419 c 0
 630 419 667 385 667 307 c 0
 667 210 535 0 374 0 c 0
 320 0 267.333007812 21.619140625 204 94 c 0
 113 198 44 394 44 394 c 1
 91 416 l 1
 91 416 189 233 253 147 c 0
 288.500976562 99.2958984375 335 77 371 77 c 0
 501 77 593 249 593 309 c 0
 593 344 568 350 521 350 c 0
 474.732421875 350 310 337 310 337 c 9
 310 614 l 25
EndSplineSet
EndChar

StartChar: bnNine
Encoding: 174 2543 118
Width: 688
Flags: HW
HStem: 0 21G<335 335> 258.829 71.1658<176.589 268.091>
VStem: 61.9861 70.009<117.883 224.907> 539 79<219.283 289.498>
LayerCount: 2
Back
Fore
SplineSet
335 0 m 1
 335 0 329.576171875 92.744140625 310 166 c 0
 297.944335938 211.112304688 279.290039062 256.829101562 237.864257812 256.829101562 c 0
 217.762695312 256.829101562 187.666787712 242.833393856 170 234 c 0
 115.313368821 209.586325367 134.962890625 164.282226562 156 118 c 0
 172 82 177 71 177 71 c 9
 128 43 l 1
 128 43 81 112 74 130 c 0
 40.5546875 209.4296875 61.2975945037 264.027159895 144 301 c 0
 183.541238731 318.753209226 213.314612653 329.99450858 245.93182705 329.99450858 c 0
 300.488145756 329.99450858 333.701528006 298.166353306 358 250 c 0
 380.19966051 205.994076843 396 111 396 111 c 5
 419 111 539 194.461914062 539 238 c 0
 539 327 225 617 225 617 c 1
 262 663 l 1
 530 468 628 342 628 250 c 0
 628 130 439 0 335 0 c 1
EndSplineSet
EndChar

StartChar: bnEight
Encoding: 173 2542 119
Width: 655
VWidth: 0
Flags: HW
HStem: 0 75<128.752 244.371> 355 71<184.039 424.14>
VStem: 46 67<90.6372 337.629 394 636> 432 75.4513<244.237 346.345>
LayerCount: 2
Back
Fore
SplineSet
113 336 m 9
 113 166 l 1
 113 106 143 72 192 72 c 0
 255 72 338 144 400 229 c 0
 424 262 432 288 432 307 c 0
 432 343 401.999016677 354.769568882 375 355 c 0
 336.387217138 355.329552251 113 336 113 336 c 9
46 636 m 9
 113 636 l 17
 113 397 l 17
 113 397 146.683834136 401.883673409 184 408 c 0
 315.085023708 429.485562559 371 427 421 429 c 0
 450 430 626 474 626 474 c 1
 636 428 l 1
 636 428 584.028186096 397.001359153 493 367 c 1
 493 367 507.451250789 353.219585175 507.451250789 315.050475199 c 0
 507.451250789 285.383629999 496.264112362 254.807151935 482 230 c 0
 411 106 295 0 184 0 c 0
 119 0 46 37 46 159 c 2
 46 636 l 9
EndSplineSet
EndChar

StartChar: bnSeven
Encoding: 172 2541 120
Width: 548
VWidth: 0
Flags: HW
HStem: 246 70<117.129 389.914> 561 71<258.668 373.836>
VStem: 33 71<328.646 429.863> 390 67<58.8708 257 316 545.391>
LayerCount: 2
Back
Fore
SplineSet
390 97 m 0
 390 148.002929688 390 253 390 253 c 1
 390 253 272 242 158 242 c 0
 79 242 33 293 33 369 c 0
 33 398 40.59591876 426.255588557 54 447 c 0
 138 577 258 632 329 632 c 0
 394 632 457 594.999023438 457 473 c 1
 457 473 457 137 457 117 c 0
 457 72 497.9375 8.9873046875 497.9375 8.9873046875 c 5
 456 -21 l 1
 456 -21 390 29 390 97 c 0
390 316 m 1
 390 466 l 1
 390 526 377 561 325 561 c 0
 283 561 193 508 142 448 c 0
 115.772460938 417.14453125 104 389 104 370 c 0
 104 334 135 316 162 316 c 0
 235.821764663 316 390 316 390 316 c 1
EndSplineSet
EndChar

StartChar: bnZero
Encoding: 165 2534 121
Width: 600
Flags: HW
HStem: 1 74<193.515 413.003> 468 74<191.221 414.872>
VStem: 68 74<130.237 412.335> 462 74<132.206 415.804>
LayerCount: 2
Back
Fore
SplineSet
68 295 m 0
 68 512 128 573 302 573 c 0
 481 573 536 506 536 295 c 0
 536 98 481 32 302 32 c 0
 123 32 68 105 68 295 c 0
144 295 m 0
 144 118 199 108 302 108 c 0
 410 108 460 120 460 295 c 0
 460 485 419 497 302 497 c 0
 190 497 144 486 144 295 c 0
EndSplineSet
EndChar

StartChar: bnFive
Encoding: 170 2539 122
Width: 585
VWidth: 0
Flags: HW
HStem: -0.157068 84.9448<144.855 254.208>
VStem: 57.1837 78.3915<88.2791 471.598> 373 70<261.524 398.831>
LayerCount: 2
Back
Fore
SplineSet
153 662 m 1
 155 586 l 1
 428 507 l 1
 472 588 l 1
 523 572 l 1
 523 572 446 370 446 304 c 0
 446 277.59375 536.172851562 190.259765625 536.172851562 168.206054688 c 0
 536.172851562 95 187.552805631 -78.8467480411 101 24 c 0
 72.8235012461 57.4808472919 57.18359375 127 57.18359375 233.508789062 c 0
 57.18359375 425.5703125 100 666 100 666 c 1
 153 662 l 1
406 445 m 1
 151 517 l 1
 151 517 135.575195312 358.036132812 135.575195312 247.2734375 c 0
 135.575195312 177.34375 138.09765625 119.501953125 153 102 c 0
 209.772460938 35.3232421875 436.940992768 143 436.940992768 183.384543738 c 0
 436.940992768 198.053090072 373 255.730769231 373 281 c 0
 373 323 406 445 406 445 c 1
EndSplineSet
EndChar

StartChar: bnCandrabindu
Encoding: 96 2433 123
Width: 0
VWidth: 0
GlyphClass: 4
Flags: W
HStem: 656.862 62.0538<-148.198 -63.3252>
AnchorPoint: "anchor0" -157 636 mark 0
LayerCount: 2
Back
Fore
SplineSet
-270 763 m 1
 -232 806 l 1
 -232 806 -133.46440191 718.916154905 -103.41564622 718.916154905 c 0
 -97.9202774333 718.916154905 -92.7875192188 720.207973313 -88 723 c 0
 -47.2850620489 746.744488143 42 835 42 835 c 9
 74 804 l 1
 74 804 6.83370718271 715.746017201 -41 682 c 0
 -65.7392276718 664.546817888 -87.008892452 656.86240321 -107.168005676 656.86240321 c 0
 -157.21342068 656.86240321 -270 763 -270 763 c 1
-111 771 m 2
 -142 795 l 2
 -150 801 -152 809 -146 817 c 2
 -122 849 l 2
 -116 857 -107 857 -99 851 c 2
 -68 828 l 2
 -59 821 -60 813 -65 806 c 2
 -89 774 l 2
 -95 767 -103 766 -111 771 c 2
EndSplineSet
Validated: 1
Substitution2: "Single Substitution lookup 17 subtable" bnCandrabindu2
EndChar

StartChar: bnAnusvara
Encoding: 97 2434 124
Width: 445
Flags: W
HStem: 219 69.3058<92.3128 232.465> 359 61<158.898 289.959> 569 60<160.476 288.865>
VStem: 92 58<428.065 559.238> 298 59<426.934 561.407>
LayerCount: 2
Back
Fore
SplineSet
88 279 m 1
 91.6103884604 279.369244274 166.895998486 288.305783288 185.775166813 288.305783288 c 0
 232.555911955 288.305783288 292.186773245 267.223973494 337 186 c 0
 358 146 412 62 431 -17 c 1
 388 -33 l 1
 275 149 l 2
 236 212 193 219 167 219 c 0
 142.860982965 219 93 213 93 213 c 1
 88 279 l 1
92 490 m 0
 92 608 138 629 224 629 c 0
 314 629 357 608 357 490 c 0
 357 383 314 359 224 359 c 0
 135 359 92 386 92 490 c 0
150 490 m 0
 150 420 175 420 224 420 c 0
 278 420 298 421 298 490 c 0
 298 568 275 569 224 569 c 0
 176 569 150 568 150 490 c 0
EndSplineSet
Validated: 1
EndChar

StartChar: bnVisarga
Encoding: 98 2435 125
Width: 445
Flags: W
HStem: 9 60.208<159.161 290.055> 218.283 60.208<160.623 288.922> 359.342 60.208<159.161 290.055> 568.625 60.208<160.623 288.922>
VStem: 92.1709 58.21<77.6899 208.884 428.032 559.226> 298.22 59.1602<76.4482 209.296 426.79 559.638>
LayerCount: 2
Back
Fore
SplineSet
92.1708984375 140.006835938 m 0
 92.1708984375 257.693359375 137.551757812 278.491210938 224.299804688 278.491210938 c 0
 313.54296875 278.491210938 357.379882812 257.552734375 357.379882812 140.006835938 c 0
 357.379882812 32.2900390625 313.54296875 9 224.299804688 9 c 0
 135.05859375 9 92.1708984375 35.7802734375 92.1708984375 140.006835938 c 0
150.380859375 140.006835938 m 0
 150.380859375 69.341796875 175.28515625 69.2080078125 224.299804688 69.2080078125 c 0
 278.14453125 69.2080078125 298.219726562 70.3388671875 298.219726562 140.006835938 c 0
 298.219726562 217.931640625 274.840820312 218.283203125 224.299804688 218.283203125 c 0
 176.251953125 218.283203125 150.380859375 217.65234375 150.380859375 140.006835938 c 0
92.1708984375 490.348632812 m 0
 92.1708984375 608.03515625 137.551757812 628.833007812 224.299804688 628.833007812 c 0
 313.54296875 628.833007812 357.379882812 607.89453125 357.379882812 490.348632812 c 0
 357.379882812 382.631835938 313.54296875 359.341796875 224.299804688 359.341796875 c 0
 135.05859375 359.341796875 92.1708984375 386.122070312 92.1708984375 490.348632812 c 0
150.380859375 490.348632812 m 0
 150.380859375 419.68359375 175.28515625 419.549804688 224.299804688 419.549804688 c 0
 278.14453125 419.549804688 298.219726562 420.680664062 298.219726562 490.348632812 c 0
 298.219726562 568.2734375 274.840820312 568.625 224.299804688 568.625 c 0
 176.251953125 568.625 150.380859375 567.994140625 150.380859375 490.348632812 c 0
EndSplineSet
Validated: 1
EndChar

StartChar: bnVirama
Encoding: 155 2509 126
Width: 0
VWidth: 2048
Flags: W
HStem: -231 218.148
VStem: -197 275
AnchorPoint: "anchor 1" -195 0 mark 0
LayerCount: 2
Back
Fore
SplineSet
-162.615234375 -12.8515625 m 1
 -162.615234375 -12.8515625 -153.416816453 -18.3920700748 -117 -44 c 0
 -43.0169524943 -96.0241163478 20 -143 78 -194 c 1
 50 -231 l 1
 -197 -73 l 1
 -162.615234375 -12.8515625 l 1
EndSplineSet
Substitution2: "Single Substitution lookup 26 subtable" bnVirama3
Substitution2: "Single Substitution lookup 25 subtable" bnVirama2
Substitution2: "Single Substitution lookup 24 subtable" bnVirama1
EndChar

StartChar: bnTAkhanda
Encoding: 156 2510 127
Width: 500
VWidth: 0
Flags: HW
HStem: 561 76<171.803 348.842>
VStem: 88 73<346.067 547.531> 354.045 67.9551<50.8779 219.5>
AnchorPoint: "anchor0" 162 637.328 basechar 0
LayerCount: 2
Back
Fore
SplineSet
413 545 m 1
 413 545 251 559 218 559 c 0
 160 559 151 500 151 403 c 0
 151 320 422 307.974980048 422 183 c 0
 422 107 386 -15 386 -15 c 5
 331 -6 l 1
 331 -6 354.044921875 106.173250578 354.044921875 156.09765625 c 0
 354.044921875 233.015322079 70 256 70 382 c 0
 70 531 83 637 194 637 c 0
 295 637 422 599 422 599 c 1
 413 545 l 1
EndSplineSet
LCarets2: 2 0 0
Ligature2: "'half' Half Forms in Bengali2 lookup 7 subtable" bnTA bnVirama uni200D
Ligature2: "'half' Half Forms in Bengali lookup 6 subtable" bnTA.half bnVirama uni200D
EndChar

StartChar: NameMe.65536
Encoding: 197 -1 128
Width: 633
VWidth: 2048
Flags: W
HStem: 0 48<132 495> 648 48<132 495>
VStem: 84 48<48 648> 495 48<48 648>
LayerCount: 2
Back
Fore
SplineSet
84 696 m 1
 543 696 l 1
 543 0 l 1
 84 0 l 1
 84 696 l 1
132 48 m 1
 495 48 l 1
 495 648 l 1
 132 648 l 1
 132 48 l 1
EndSplineSet
Validated: 1
EndChar

StartChar: bnK_SSA
Encoding: 225 -1 156
Width: 960
VWidth: 0
Flags: HW
HStem: 0 21G<604 669.053> 256 73<273.014 347.477> 377 61<505.149 604 670 825.115> 456 70<151.041 227.892> 575 61<-14 239 299 449 501 604 670 990>
VStem: 75 67<380.62 452.385> 182 72<163.152 238.238> 264 66<497.436 562.063> 354.586 72.4984<319.159 382.857> 442.701 58.2991<439.431 574.964> 604 66<0 158 221 377 438 575> 843 70<261.002 359.661>
AnchorPoint: "anchor 1" 584 0 basechar 0
AnchorPoint: "anchor0" 583 636 basechar 0
LayerCount: 2
Back
Fore
SplineSet
650 377 m 29
 650 0 l 5
 584 0 l 13
 584 158 l 21
 584 158 345.708007812 236.09765625 295 253 c 4
 270.97265625 261.008789062 257.510742188 258.670898438 241 232 c 4
 226.578125 207.482421875 224.983398438 190.009765625 244 173 c 4
 282.708007812 138.377929688 314 112 314 112 c 5
 283 70 l 5
 283 70 231 94 197 126 c 4
 149.215820312 170.973632812 146.118164062 209.15625 182 270 c 4
 214 324 243 329 270 329 c 4
 287 329 330 316 330 316 c 5
 330 316 347 353 336.5859375 370.35546875 c 4
 328.521484375 383.794921875 204 439 163 454 c 4
 146.534179688 460.024414062 132.528320312 457.741210938 122 438 c 4
 112.833007812 420.975585938 115.165039062 406.747070312 129 394 c 4
 155.168945312 369.889648438 170 356 170 356 c 5
 147 317 l 5
 147 317 118 331 82 359 c 4
 50.720703125 383.328125 41.8466796875 421.629882812 70 468 c 4
 92 507 112 526 141 526 c 4
 169.764648438 526 231 496 231 496 c 5
 231 496 244 515 244 531 c 4
 244 546 219 573 219 573 c 5
 -14 573 l 5
 -14 636.328125 l 5
 970 636.328125 l 5
 970 573 l 29
 650 573 l 5
 650 442 l 29
 783 442 l 6
 908 442 928 333 876 245 c 4
 850.973632812 202.6484375 793 143 793 143 c 5
 744 174 l 21
 810 274 l 6
 844.030273438 325.560546875 835.83203125 377 771 377 c 6
 650 377 l 29
584 442 m 29
 584 573 l 29
 484 573 l 21
 484 573 484 512 484 470 c 4
 484 447.977539062 499 442 512 442 c 5
 584 442 l 29
584 377 m 5
 525 377 458.231445312 377.69140625 432 423 c 4
 410 461 429 573 429 573 c 13
 279 573 l 21
 279 573 310 540 310 518 c 4
 310 498 291 469 291 469 c 5
 291 469 388.3359375 415.162109375 407.084960938 385.0234375 c 4
 423.651367188 358.39453125 396 297 396 297 c 5
 584 221 l 5
 584 377 l 5
EndSplineSet
LCarets2: 2 0 0
Ligature2: "'akhn' Akhand lookup 2 subtable" bnKA bnVirama bnSSA
EndChar

StartChar: bnJ_NYA
Encoding: 226 -1 157
Width: 950
VWidth: 0
Flags: HW
HStem: 24.8799 75.2969<357.924 466.004> 103 66<617.555 829.81> 275 60<751 828.655> 291 66<404.073 570.805> 438 78<743.291 830.362> 575 62<-15 385 448 987>
VStem: 604.099 71.1387<225.992 287.05> 834 71<173.275 269.398 340.44 434.695>
AnchorPoint: "anchor 1" 377 28 basechar 0
AnchorPoint: "anchor0" 509 637 basechar 0
LayerCount: 2
Back
Fore
SplineSet
439.0546875 572.98046875 m 5
 436 555 l 5
 582 409 l 5xdf
 582 409 710 513 790 513 c 4
 846.732421875 513 884 480.778320312 884 394 c 4
 884 361 882 314 841 308 c 5
 884.09375 300.642578125 885 250.932617188 885 215 c 4
 885 106 813.708007812 103 759 103 c 4
 673 103 569 118 569 118 c 5
 569 118 538.230744488 88.7692095614 521 74 c 4
 486 44 443.969726562 26.6435546875 393.94921875 26.6435546875 c 4
 340.586914062 26.6435546875 276 48 212 138 c 4
 146.575195312 230.002929688 75 428 75 428 c 5
 122 446 l 5
 122 446 222.321289062 253.297851562 276 178 c 4
 310.610657371 129.449874713 353.37890625 100 394 100 c 4
 440.852539062 100 468.612304688 119.334960938 491 139 c 4
 565 204 601.443359375 250 601.443359375 284 c 4
 601.443359375 310.608398438 583.7265625 319 530 319 c 4
 476 319 331 303 331 303 c 13
 374.0546875 572.98046875 l 5
 -15 573 l 5
 -15 636.328125 l 5
 962 636.328125 l 5
 962 573 l 5
 439.0546875 572.98046875 l 5
504 387 m 5xdf
 421 476 l 5
 407.9453125 377 l 5
 407.9453125 377 451 387 504 387 c 5xdf
623 173 m 13
 776 173 l 6
 805.993164062 173 814 182 814 214 c 4
 814 259.244140625 804.763671875 275 761 275 c 6
 731 275 l 21
 731 335 l 13
 761 335 l 6xef
 798 335 814 346 814 384 c 4
 814 420.76953125 810.543945312 438 775 438 c 4
 760 438 748.692382812 433.416992188 718 417 c 6
 632 368 l 5
 632 368 673.001953125 348 673.001953125 286.791992188 c 4
 673.001953125 232.57421875 623 173 623 173 c 13
EndSplineSet
LCarets2: 2 0 0
Ligature2: "'akhn' Akhand lookup 2 subtable" bnJA bnVirama bnNYA
EndChar

StartChar: bnReph
Encoding: 227 -1 158
Width: 0
VWidth: 2048
GlyphClass: 4
Flags: W
HStem: 652.612 229.966
VStem: -208.544 293.839
AnchorPoint: "anchor0" -135 636 mark 0
LayerCount: 2
Back
Fore
SplineSet
-208.543945312 704.838867188 m 1
 -208.543945312 704.838867188 -201.334554703 712.726620516 -164.298828125 739.693359375 c 0
 -90.3306321756 793.551652659 -7.6767578125 844.537109375 59.5390625 882.578125 c 1
 85.294921875 843.981445312 l 1
 -163.018554688 652.612304688 l 1
 -208.543945312 704.838867188 l 1
EndSplineSet
LCarets2: 1 0
Ligature2: "'rphf' Reph Form lookup 3 subtable" bnRA bnVirama
EndChar

StartChar: bnRAc2
Encoding: 228 -1 159
Width: 0
VWidth: 0
GlyphClass: 4
Flags: HW
HStem: -228 72<-467.618 -300.435>
VStem: -157 69<-76 99> -135 47<-228 -201.273>
LayerCount: 2
Back
Fore
SplineSet
-157 -144 m 5
 -157 -144 -269.475585938 -228 -374 -228 c 4
 -417 -228 -505 -228 -566 -139 c 4
 -591.715820312 -101.48046875 -616 -41 -636 26 c 5
 -594 48 l 5
 -512 -83 l 6
 -467.071289062 -154.77734375 -399 -156 -371 -156 c 4
 -280.122070312 -156 -157 -68 -157 -68 c 5
 -157 99 l 5xc0
 -88 134 l 13xa0
 -88 -228 l 5
 -135 -228 l 5xa0
 -157 -144 l 5
EndSplineSet
LCarets2: 1 0
Ligature2: "'blwf' Below Base Forms in Bengali2 lookup 5 subtable" bnVirama bnRA
Ligature2: "'blwf' Below Base Forms in Bengali2 lookup 5 subtable" bnVirama asRA
Ligature2: "'blwf' Below Base Forms in Bengali lookup 4 subtable" asRA bnVirama
Ligature2: "'blwf' Below Base Forms in Bengali lookup 4 subtable" bnRA bnVirama
EndChar

StartChar: bnBAc2
Encoding: 229 -1 160
Width: 0
VWidth: 0
GlyphClass: 4
Flags: W
VStem: -177 67.5938<-206 1>
LayerCount: 2
Back
Fore
SplineSet
-109.40625 -281.99609375 m 21
 -177 -282 l 5
 -426 -108 l 5
 -426 -27 l 5
 -176 76 l 29
 -109.40625 76 l 29
 -109.40625 -281.99609375 l 21
-177 -206 m 29
 -177 1 l 29
 -361 -73 l 29
 -177 -206 l 29
EndSplineSet
Validated: 1
LCarets2: 1 0
Ligature2: "'blwf' Below Base Forms in Bengali2 lookup 5 subtable" bnVirama bnBA
Ligature2: "'blwf' Below Base Forms in Bengali lookup 4 subtable" bnBA bnVirama
EndChar

StartChar: bnKA.half
Encoding: 230 -1 161
Width: 635
VWidth: 0
GlyphClass: 3
Flags: HW
HStem: 575 61<-12 312 377 647>
VStem: 312 65<212 467 542 574> 554.146 71.5596<323.019 420.17>
LayerCount: 2
Back
Fore
SplineSet
378 467 m 1
 377 130 l 1
 312 130 l 1
 36 348 l 1
 36 429 l 1
 312 542 l 25
 312 573 l 1
 -12 573 l 1
 -12 636.328125 l 1
 647 636.328125 l 1
 647 572.998046875 l 1
 377 572.994140625 l 25
 377 538 l 1
 526 500 l 2
 580.275390625 486.158203125 625.705078125 445.88671875 625.705078125 380.375976562 c 0
 625.705078125 359.4765625 622.153320312 334.643554688 607 309 c 0
 581 265 537 217 537 217 c 1
 487 248 l 1
 533 324 l 2
 546.402944612 346.143995446 554.145507812 367.150390625 554.145507812 378.802734375 c 0
 554.145507812 411.979492188 531.828125 430.26171875 477 443 c 2
 378 467 l 1
312 215.25 m 29
 312 469 l 25
 104 380 l 25
 312 215.25 l 29
EndSplineSet
LCarets2: 1 0
Ligature2: "'half' Half Forms in Bengali2 lookup 7 subtable" bnKA bnVirama
Ligature2: "'half' Half Forms in Bengali lookup 6 subtable" bnKA bnVirama
EndChar

StartChar: bnGA.half
Encoding: 232 -1 163
Width: 360
VWidth: 0
GlyphClass: 3
Flags: HW
HStem: 553.962 71.3504<109.175 240.311>
VStem: 19 81<479 548.435> 196 71<313.462 382.871>
LayerCount: 2
Back
Fore
SplineSet
401.837890625 564 m 21
 401.837890625 564 254.265265088 624.778320312 159.793945312 624.778320312 c 4
 133.889648438 624.778320312 114 622 91 603 c 4
 71.3520994551 586.769125637 15.8505859375 503.37678978 15.8505859375 448.177734375 c 4
 15.8505859375 391.694335938 129.75 368.682617188 191 344 c 4
 213.856760258 334.476349892 220.03515625 306.245436484 220.03515625 286.23828125 c 4
 220.03515625 264.698242188 95 182 95 182 c 5
 125 135 l 5
 125 135 291.040039062 221 291.040039062 263.68359375 c 4
 291.040039062 295.348816276 277.759931195 348.624178893 273 361 c 4
 264 386 254 397 216 412 c 4
 159.537109375 435.140625 102.790039062 442.001953125 102.790039062 469.06640625 c 4
 102.790039062 496.487304688 138.791992188 549.387695312 160.770507812 549.387695312 c 4
 188 549.387695312 242.241210938 536.090820312 265 531 c 4
 375 507 l 5
 401.837890625 564 l 21
EndSplineSet
LCarets2: 1 0
Ligature2: "'half' Half Forms in Bengali2 lookup 7 subtable" bnGA bnVirama
Ligature2: "'half' Half Forms in Bengali lookup 6 subtable" bnGA bnVirama
EndChar

StartChar: bnNGA.half
Encoding: 234 -1 165
Width: 590
GlyphClass: 3
Flags: HW
HStem: 123 71<227.591 367.435> 342 70<291.085 491.889> 446 59<291 438.76> 575 61<-10 236 495 601> 587 49<298.133 442.071>
VStem: 228 63<396 446 505 574.078> 443 55<509.683 574.636> 494 69<275.076 336.597>
LayerCount: 2
Back
Fore
SplineSet
236 573 m 5xf5
 -10 573 l 5
 -10 636.328125 l 5
 601 636.328125 l 5
 601 573 l 5
 495 573 l 21
 495 573 497.891139968 562.564528136 498 544 c 5xf6
 498 479 490 446 413 446 c 6
 291 446 l 5
 291 396 l 5
 291 396 407.896143602 412 450 412 c 4
 527 412 563 374 563 321 c 4
 563 236.555252557 482 180 400 145 c 4
 363.801757812 129.549804688 337 123 296 123 c 4
 252 123 183.760484713 141.854336014 140 214 c 4
 66 336 44 439 44 439 c 5
 91 458 l 5
 91 458 146 351 191 270 c 4
 221 216 262 194 299 194 c 4
 322.0703125 194 341.011778025 199.969430794 367 210 c 4
 432.020507812 235.095703125 494 273.061749222 494 315 c 4
 494 335 474 341 432 342 c 4
 403 342 228 342 228 342 c 13
 228 521 l 6
 228 553.537224454 236 573 236 573 c 5xf5
291 505 m 5
 396 505 l 6
 428 505 443 517 443 542 c 5
 443 585 442 585 365 585 c 4xee
 303.251953125 585 291 582.650678812 291 505 c 5
EndSplineSet
LCarets2: 1 0
Ligature2: "'half' Half Forms in Bengali2 lookup 7 subtable" bnNGA bnVirama
Ligature2: "'half' Half Forms in Bengali lookup 6 subtable" bnNGA bnVirama
EndChar

StartChar: bnCA.half
Encoding: 235 -1 166
Width: 575
VWidth: 0
GlyphClass: 3
Flags: HW
HStem: 134 71<169.774 301.332> 575 61<-10 86 153 584>
VStem: 86 67<220.608 464.205 516 575> 445 65<321.198 409.448>
LayerCount: 2
Back
Fore
SplineSet
153 464.205078125 m 13
 153 300 l 5
 153 240 169 205 218 205 c 4
 260 205 349 235 410 305 c 4
 436.60546875 335.53125 445 353 445 372 c 4
 445 414.705979222 404.252621681 417.69319387 365 425 c 4
 257.381224458 445.033044805 153 464.205078125 153 464.205078125 c 13
153 516 m 29
 153 516 225.327148438 508.337890625 262 504 c 4
 355 493 383 489.985379156 406 485.205078125 c 4
 476.172095007 470.620567772 510 445.766502434 510 386 c 4
 510 357 501.151367188 325.504882812 489 306 c 4
 414.010742188 185.627929688 283 134 214 134 c 4
 149 134 86 171 86 293 c 6
 86 573 l 5
 -10 573 l 1
 -10 636.328125 l 1
 584 636.328125 l 1
 584 573 l 1
 153 573 l 21
 153 516 l 29
EndSplineSet
LCarets2: 1 0
Ligature2: "'half' Half Forms in Bengali lookup 6 subtable" bnCA bnVirama
EndChar

StartChar: bnTTA.half
Encoding: 240 -1 171
Width: 571
VWidth: 0
GlyphClass: 3
Flags: HW
HStem: 134 71<163.774 280.327> 427 59<256 429.888> 575 61<-13 80 147 404 474 582> 708 64<117.794 392.718>
VStem: 80 67<220.608 575> 404 70<636 696.261> 439 65<326.182 415.551>
LayerCount: 2
Back
Fore
SplineSet
147 300 m 5xfc
 147 240 163 205 212 205 c 4
 254 205 345.176839565 249.775786818 398 305 c 4
 420 328 441 350 441 381 c 4
 441 426 362 427 321 427 c 4
 296.909179688 427 256 427 256 427 c 5
 250 481 l 5
 250 481 333 489 368 489 c 4
 456.8828125 489 504 446.14711977 504 381 c 4xfa
 504 351 489.516601562 317.584960938 476 299 c 4
 396 189 277 134 208 134 c 4
 143 134 80 171 80 293 c 6
 80 573 l 5
 -13 573 l 5
 -13 636.328125 l 5
 404 636.328125 l 21
 404 690.328125 388 705 340 705 c 4
 243.678710938 705 47 705 47 705 c 13
 43 758 l 5
 43 758 287.67348719 771.856055521 346 772 c 4
 439.999713744 772.231982664 474 714.328125 474 636.328125 c 13
 582 636.328125 l 5
 582 573 l 5
 147 573 l 5
 147 300 l 5xfc
EndSplineSet
LCarets2: 1 0
Ligature2: "'half' Half Forms in Bengali2 lookup 7 subtable" bnTTA bnVirama
Ligature2: "'half' Half Forms in Bengali lookup 6 subtable" bnTTA bnVirama
EndChar

StartChar: bnDDHA.half
Encoding: 248 -1 179
Width: 571
VWidth: 0
GlyphClass: 3
Flags: HW
HStem: 134 71<163.774 280.327> 427 59<256 429.888> 575 61<-13 80 147 582>
VStem: 80 67<220.608 575> 439 65<325.668 415.551>
LayerCount: 2
Back
Fore
SplineSet
582 636.328125 m 17
 582 573 l 1
 147 573 l 1
 147 300 l 1
 147 240 163 205 212 205 c 0
 254 205 345.176839565 249.775786818 398 305 c 0
 420 328 441 350 441 381 c 0
 441 426 362 427 321 427 c 0
 296.909179688 427 256 427 256 427 c 1
 250 481 l 1
 250 481 333 489 368 489 c 0
 456.8828125 489 504 446.14711977 504 381 c 0
 504 351 489.516601562 317.584960938 476 299 c 0
 396 189 277 134 208 134 c 0
 143 134 80 171 80 293 c 2
 80 573 l 1
 -13 573 l 1
 -13 636.328125 l 1
 582 636.328125 l 17
-816 39 m 1049
EndSplineSet
LCarets2: 1 0
Ligature2: "'half' Half Forms in Bengali2 lookup 7 subtable" bnDDHA bnVirama
Ligature2: "'half' Half Forms in Bengali lookup 6 subtable" bnDDHA bnVirama
EndChar

StartChar: bnBA.half
Encoding: 249 -1 180
Width: 435
VWidth: 0
GlyphClass: 3
Flags: HW
HStem: 575 61<-12 317 382 444>
VStem: 317 65<212 469 542 575>
LayerCount: 2
Back
Fore
SplineSet
382 573 m 1
 382 130 l 1
 317 130 l 1
 29 348 l 1
 29 429 l 1
 317 540 l 25
 317 573 l 1
 -12 573 l 1
 -12 636.328125 l 1
 444 636.328125 l 1
 444 573 l 1
 382 573 l 1
317 215.00390625 m 1
 317 469 l 1
 98 380 l 25
 317 215.00390625 l 1
EndSplineSet
LCarets2: 1 0
Ligature2: "'half' Half Forms in Bengali2 lookup 7 subtable" bnBA bnVirama
Ligature2: "'half' Half Forms in Bengali lookup 6 subtable" bnBA bnVirama
EndChar

StartChar: bnPA.half
Encoding: 250 -1 181
Width: 540
VWidth: 0
GlyphClass: 3
Flags: HW
HStem: 549.054 69.6719<248.99 385.859>
LayerCount: 2
Back
Fore
SplineSet
464 471 m 5xd0
 464 471 433.064421689 500.083943372 411 517 c 4
 381 540 356 554 328 554 c 4
 300 554 276.745117188 537.4296875 263 529 c 4
 238.557617188 514.010742188 192.029296875 479.765625 192.029296875 479.765625 c 5
 304 339 l 5
 464 471 l 5xd0
525 417 m 5
 512 429 l 5
 317 263 l 5
 272 270 l 5
 136.029296875 446.765625 l 5
 90 416 l 5
 58 454 l 5
 58 454 149.1953125 538.662109375 229 585 c 4
 260 603 296 621 325 621 c 4
 365 621 390.391425779 604.652089845 413 589 c 4
 465 553 564 458 564 458 c 5
 525 417 l 5
EndSplineSet
LCarets2: 1 0
Ligature2: "'half' Half Forms in Bengali2 lookup 7 subtable" bnPA bnVirama
Ligature2: "'half' Half Forms in Bengali lookup 6 subtable" bnPA bnVirama
EndChar

StartChar: bnNA.half
Encoding: 251 -1 182
Width: 450
VWidth: 0
GlyphClass: 3
Flags: HW
HStem: 420.554 70.1729<182.867 334.649> 575.328 61<-13 462>
VStem: 90.3555 68.3916<288.443 396.178>
LayerCount: 2
Back
Fore
SplineSet
466 356 m 5
 466 356 303.875 419.225585938 232.795898438 419.225585938 c 4
 188.532226562 419.225585938 159.834960938 377.1875 159.834960938 338.705078125 c 4
 159.834960938 327.055664062 162.279296875 315.623046875 168.087890625 306 c 4
 195.555664062 260.5 261 203 261 203 c 5
 230 157 l 5
 230 157 155.732421875 208.493164062 135 230 c 4
 104.16015625 261.9921875 89.35546875 306.028320312 89.35546875 347.431640625 c 4
 89.35546875 387.131835938 104.359375 424.202148438 133 450 c 4
 166.502929688 480.177734375 198.908203125 490.3984375 246.963867188 490.3984375 c 4
 323.952148438 490.3984375 488 414 488 414 c 13
 466 356 l 5
462 573 m 17
 -13 573 l 1
 -13 636.1640625 l 1
 462 636.4921875 l 9
 462 573 l 17
EndSplineSet
LCarets2: 1 0
Ligature2: "'half' Half Forms in Bengali2 lookup 7 subtable" bnNA bnVirama
Ligature2: "'half' Half Forms in Bengali lookup 6 subtable" bnNA bnVirama
EndChar

StartChar: bnDA.half
Encoding: 252 -1 183
Width: 455
GlyphClass: 3
Flags: HW
LayerCount: 2
Back
Fore
SplineSet
64.94140625 573 m 17
 64.841796875 382.500976562 l 25
 99.841796875 332 l 1
 313.041015625 434 l 1
 258.440429688 146 l 1
 296.140625 146 l 1
 347.541015625 247 l 1
 392.041015625 500 l 1
 346.841796875 523 l 1
 131.841796875 420 l 25
 131.841796875 573 l 1
 468 573 l 5
 468 636.328125 l 5
 -11 636.328125 l 1
 -11 573 l 9
 64.94140625 573 l 17
EndSplineSet
LCarets2: 1 0
Ligature2: "'half' Half Forms in Bengali2 lookup 7 subtable" bnDA bnVirama
Ligature2: "'half' Half Forms in Bengali lookup 6 subtable" bnDA bnVirama
EndChar

StartChar: bnNNA.half
Encoding: 253 -1 184
Width: 420
VWidth: 0
GlyphClass: 3
Flags: HW
HStem: 538.592 68.2524<170.512 328.274>
VStem: 77.3553 68.3918<407.044 513.054>
LayerCount: 2
Back
Fore
SplineSet
463 526 m 5
 463 526 358.999829576 578.999335359 281 599 c 4
 264.456054688 603.2421875 233.393554688 606.84375 218.091796875 606.84375 c 4
 179.677734375 606.84375 151.846679688 600.365234375 117.298828125 571 c 4
 87.9287109375 546.03515625 47.35546875 477.8671875 47.35546875 426.166992188 c 4
 47.35546875 384.763671875 68 345 93 317.735351562 c 4
 131.23046875 276.041015625 184 245 184 245 c 5
 220 285 l 21
 220 285 117.747070312 374.735351562 117.747070312 429 c 4
 117.747070312 467.666015625 166.318359375 538.591796875 212.634765625 538.591796875 c 4
 304.725585938 538.591796875 432 465 432 465 c 5
 463 526 l 5
EndSplineSet
LCarets2: 1 0
Ligature2: "'half' Half Forms in Bengali2 lookup 7 subtable" bnNNA bnVirama
Ligature2: "'half' Half Forms in Bengali lookup 6 subtable" bnNNA bnVirama
EndChar

StartChar: bnDDA.half
Encoding: 254 -1 185
Width: 630
VWidth: 0
GlyphClass: 3
Flags: HW
HStem: 154 64<265.56 363.563> 410 62<345.986 491.996> 575 61<-14 280 345 645>
VStem: 280 65<458 575> 494 64<330.138 406.9>
LayerCount: 2
Back
Fore
SplineSet
324 154 m 0
 281 154 235.33984027 163.260558246 177 239 c 0
 120 313 80 395 80 395 c 1
 120 423 l 1
 120 423 157 373 221 291 c 0
 258 244 280 218 314 218 c 0
 377.582526252 218 494 317 494 372 c 0
 494 394 489 410 447 410 c 0
 394 410 280 397 280 397 c 9
 280 573 l 25
 -14 573 l 1
 -14 636.328125 l 1
 645 636.328125 l 1
 645 573 l 25
 345 573 l 25
 345 458 l 1
 345 458 393.010638203 472 453 472 c 0
 539 472 558 426 558 382 c 0
 558 285.473716621 413.947144947 154 324 154 c 0
EndSplineSet
LCarets2: 1 0
Ligature2: "'half' Half Forms in Bengali2 lookup 7 subtable" bnDDA bnVirama
Ligature2: "'half' Half Forms in Bengali lookup 6 subtable" bnDDA bnVirama
EndChar

StartChar: bnMA.half
Encoding: 255 -1 186
Width: 525
VWidth: 0
GlyphClass: 3
Flags: HW
HStem: 342 67<340.561 413.263> 421 69<135.765 204.655> 575 61<-10 141 216 409 469 557>
VStem: 54 65<332.566 407.748> 208.834 67.1661<478.118 532.696> 439 67<435.826 544.597>
LayerCount: 2
Back
Fore
SplineSet
392 342 m 4
 354.515625 342 173.301757812 423 146 423 c 4
 132.143554688 423 100 398.895507812 100 362 c 4
 100 337.033203125 156 301 156 301 c 5
 131 262 l 5
 131 262 87.0927734375 281.953125 70 295 c 4
 49.013671875 311.018554688 34 333 34 357 c 4
 34 428.165039062 96.5166015625 490 139 490 c 4
 156 490 183 480 183 480 c 5
 183 480 188.833984375 493.819335938 188.833984375 503.767578125 c 0
 188.833984375 525.211914062 121 573 121 573 c 1
 -10 573 l 17
 -10 636.328125 l 1
 534 636.328125 l 1
 534 573 l 9
 449 573 l 1
 449 573 486 508.090820312 486 478 c 4
 486 434 425 342 392 342 c 4
244 459 m 5
 244 459 348 409 368 409 c 4
 391 409 419 458 419 480 c 4
 419 509 389 573 389 573 c 1
 201 573 l 1
 201 573 256 540 256 510 c 0
 256 486 244 459 244 459 c 5
EndSplineSet
LCarets2: 1 0
Ligature2: "'half' Half Forms in Bengali2 lookup 7 subtable" bnMA bnVirama
Ligature2: "'half' Half Forms in Bengali lookup 6 subtable" bnMA bnVirama
EndChar

StartChar: bnLA.half
Encoding: 256 -1 187
Width: 585
VWidth: 0
GlyphClass: 3
Flags: HW
HStem: 427 67<161.239 322.866 435.236 569.246> 575 61<-14 595>
VStem: 73 65<300.059 403.122> 346 52<272 308.909>
LayerCount: 2
Back
Fore
SplineSet
630 437 m 21
 630 437 613.284179688 490 531 490 c 4
 463 490 415 483 387 424 c 5
 367.249023438 491.481445312 285.517578125 494 205 494 c 4
 144 494 63 475 63 361 c 4
 63 240.530273438 130 139 130 139 c 5
 176 156 l 5
 176 156 138 292.916015625 138 341 c 4
 138 387 166.37109375 420 208 420 c 4
 315.225585938 420 345.635742188 408.26171875 350 293 c 5
 353 244 l 5
 409 245 l 5
 420 327 l 6
 431.009765625 406.268554688 467.796875 420 536 420 c 4
 585.607868242 420 591.956363671 391.999999147 591.956363671 391.999999147 c 5
 630 437 l 21
595 573 m 17
 -14 573 l 1
 -14 636.328125 l 1
 595 636.328125 l 9
 595 573 l 17
EndSplineSet
LCarets2: 1 0
Ligature2: "'half' Half Forms in Bengali2 lookup 7 subtable" bnLA bnVirama
Ligature2: "'half' Half Forms in Bengali lookup 6 subtable" bnLA bnVirama
EndChar

StartChar: bnSHA.half
Encoding: 257 -1 188
Width: 440
VWidth: 0
GlyphClass: 3
Flags: HW
HStem: 264 67<35.886 184.882 281.216 401.958> 526 69<17.4187 190.982 284.603 466.13>
VStem: 201 71<347.538 511.392>
LayerCount: 2
Back
Fore
SplineSet
457 608 m 1
 457 608 419 634 335 634 c 0
 299 634 277 630 250 599 c 1
 226 629 200 636 160 636 c 0
 108 636 -10 636 -10 636 c 1
 -11 573 l 1
 -11 573 108.108398438 564.15234375 146 560 c 0
 182.918945312 555.954101562 198 533 198 483 c 0
 198 413.141601562 193.701171875 391.28515625 149 370 c 0
 106.999023438 350.000976562 62 334 62 334 c 1
 77 279 l 1
 77 279 135 287 176 303 c 0
 222.553710938 321.16796875 242 340 242 340 c 1
 242 340 269.330078125 319.487304688 310 303 c 0
 347 288 387 282 387 282 c 1
 405 336 l 1
 405 336 350 358 315 379 c 0
 279.6953125 400.182617188 275 417.71484375 275 478 c 0
 275 531 297.770507812 562 352 562 c 0
 397 562 457 540 457 510 c 1
 457 608 l 1
EndSplineSet
LCarets2: 1 0
Ligature2: "'half' Half Forms in Bengali2 lookup 7 subtable" bnSHA bnVirama
Ligature2: "'half' Half Forms in Bengali lookup 6 subtable" bnSHA bnVirama
EndChar

StartChar: bnSA.half
Encoding: 258 -1 189
Width: 710
VWidth: 0
GlyphClass: 3
Flags: HW
HStem: 324 75<127.398 206.073 471.796 555.145> 575 61<-10 288 362 554 617 718>
VStem: 578 75<422.597 536.958>
LayerCount: 2
Back
Fore
SplineSet
325 482 m 5
 325 482 500.126953125 400 526 400 c 4
 544 400 578 440 578 463 c 4
 578 503.01 554 573 554 573 c 5
 365 573 l 5
 325 482 l 5
550 322 m 4
 484 322 296 423 296 423 c 5
 296 423 248 322 194 322 c 4
 132 322 49 375 49 375 c 5
 68 423 l 5
 68 423 137 397 182 397 c 4
 220 397 288 573 288 573 c 5
 -10 573 l 21
 -10 636.328125 l 5
 718 636.328125 l 5
 718 573 l 13
 617 573 l 5
 617 573 653 505.01 653 461 c 4
 653 426.756835938 591 322 550 322 c 4
EndSplineSet
LCarets2: 1 0
Ligature2: "'half' Half Forms in Bengali2 lookup 7 subtable" bnSA bnVirama
Ligature2: "'half' Half Forms in Bengali lookup 6 subtable" bnSA bnVirama
EndChar

StartChar: bnSSA.half
Encoding: 260 -1 191
Width: 505
VWidth: 0
GlyphClass: 3
Flags: HW
HStem: 575 61<-14 77 141 372 432 516>
VStem: 40.7046 62.2209<404.617 506.045> 406 63<424.756 536.608>
LayerCount: 2
Back
Fore
SplineSet
57 366.999023438 m 4
 13 428 77 572.999023438 77 572.999023438 c 5
 -14 572.999023438 l 5
 -14 636.328125 l 5
 516 636.328125 l 5
 516 573 l 13
 432 573 l 5
 432 573 469 488.923223454 469 459 c 4
 469 415 412 310 379 302.999023438 c 4
 348.674924296 296.565534217 105.691683515 299.493563326 57 366.999023438 c 4
119 504.999023438 m 5
 119 504.999023438 95.1123046875 426.975585938 110 404.999023438 c 4
 131 374 340 369.999023438 340 369.999023438 c 5
 119 504.999023438 l 5
385 421.999023438 m 5
 385 421.999023438 402 447.999023438 402 469.999023438 c 4
 402 497.056640625 369 572.999023438 369 572.999023438 c 5
 141 572.999023438 l 29
 135 558.999023438 l 5
 385 421.999023438 l 5
EndSplineSet
LCarets2: 1 0
Ligature2: "'half' Half Forms in Bengali2 lookup 7 subtable" bnSSA bnVirama
Ligature2: "'half' Half Forms in Bengali lookup 6 subtable" bnSSA bnVirama
EndChar

StartChar: bnK_RA
Encoding: 294 -1 225
Width: 875
VWidth: 0
GlyphClass: 3
Flags: HW
HStem: -0 72<242.327 411.448> 447 70<398.176 532.238> 575 61<-14 929>
VStem: 553 69<152 354> 575 47<0 26.7273> 774.586 67.5596<219.464 313.434>
AnchorPoint: "anchor 1" 556.96 0 basechar 0
AnchorPoint: "anchor0" 501.96 637 basechar 0
LayerCount: 2
Back
Fore
SplineSet
534.9609375 160 m 21
 535 160 411.877929688 72 321 72 c 4
 293 72 224.928710938 73.22265625 180 145 c 6
 98 276 l 5
 56 254 l 5
 76 187 100.284179688 126.51953125 126 89 c 4
 187 0 275 0 318 0 c 4
 412.524414062 0 535 84 535 84 c 13
 556.9609375 0 l 5xec
 603.9609375 0 l 5
 603.9609375 352 l 5xf4
 697.9609375 326 l 6
 737.922851562 315.390625 756.546875 305.40625 756.546875 274.229492188 c 4
 756.546875 262.577148438 752.001953125 249.551757812 743.401367188 234.426757812 c 6
 702.106445312 161.802734375 l 5
 748 136 l 5
 748 136 771.96091964 167.000013058 796.401367188 200.426757812 c 4
 813.981445312 224.470703125 824.106445312 253.903320312 824.106445312 274.802734375 c 4
 824.106445312 330.313476562 795.361658418 366.315962976 739.9609375 382 c 6
 598.668945312 422 l 5
 598.668945312 422 579 517 453.9609375 517 c 4
 373.960842872 517 280.9609375 452 207.9609375 388 c 5
 239.9609375 347 l 21
 239.9609375 347 386.633789062 447 453.9609375 447 c 4
 502.9609375 447 534.9609375 424 534.9609375 366 c 5
 534.9609375 160 l 21
887.9609375 573 m 29
 -14.0390625 573 l 5
 -14.0390625 636.328125 l 5
 887.9609375 636.328125 l 5
 887.9609375 573 l 29
EndSplineSet
LCarets2: 1 0
Ligature2: "'pres' Pre Base Substitutions in Bengali2 lookup 12 subtable" bnKA bnRAc2
EndChar

StartChar: bnKH_RA
Encoding: 295 -1 226
Width: 685
VWidth: 0
GlyphClass: 3
Flags: HW
HStem: -166 72<244.382 413.18> 450.622 62.9746<137.376 277.826> 575 62<624 738>
VStem: 71.1729 62.1426<519.586 578.22> 559 65<-13 0 82 575> 577 47<-166 -139.273>
AnchorPoint: "anchor0" 503 636.328 basechar 0
LayerCount: 2
Back
Fore
SplineSet
557 -91 m 13
 577 -166 l 1xf4
 625 -166 l 9
 625 572.998046875 l 1
 696 572.998046875 l 1
 696 636.32421875 l 9
 614 636.32421875 l 1
 591 702 l 1
 555 702 l 1
 560 636 l 9
 560 85 l 25
 230 273 l 25
 488 390 l 17
 488 390 458.93359375 483.208007812 443 535 c 0
 428.4609375 582.260742188 414.106445312 591.2265625 401.76171875 591.2265625 c 0
 395.3359375 591.2265625 391 589 391 589 c 2
 391 589 258.678710938 513.596679688 184.138671875 513.596679688 c 0
 167.833007812 513.596679688 154.435546875 516.205078125 146 525 c 0
 138.064453125 532.935546875 134.315429688 541.393554688 134.315429688 549.35546875 c 0
 134.315429688 560.45703125 141.583984375 570.639648438 155 577 c 0
 183.108398438 590.325195312 237 613 237 613 c 9
 225 653 l 1
 225 653 131.034179688 646.001953125 97 614 c 0
 78.83984375 596.924804688 71.1728515625 569.73046875 71.1728515625 549.572265625 c 0
 71.1728515625 524.5234375 85.8232421875 494.731445312 103 477 c 0
 123.745117188 455.42578125 152.828125 447.622070312 184.05078125 447.622070312 c 0
 265.709960938 447.622070312 364 503 364 503 c 2
 364 503 375.0703125 511.736328125 384 482 c 0
 390.672851562 459.778320312 403 426 403 426 c 1
 151 316 l 1
 151 235 l 1
 560 0 l 1
 560 -13 l 5
 560 -13 436.877929688 -101 346 -101 c 4
 318 -101 249.928710938 -99.77734375 205 -28 c 6
 123 103 l 5
 81 81 l 5
 101 14 125.284179688 -46.48046875 151 -84 c 4
 212 -173 300 -173 343 -173 c 4
 437.524414062 -173 557 -91 557 -91 c 13
EndSplineSet
LCarets2: 1 0
Ligature2: "'pres' Pre Base Substitutions in Bengali2 lookup 12 subtable" bnKHA bnRAc2
EndChar

StartChar: bnG_RA
Encoding: 296 -1 227
Width: 660
VWidth: 0
GlyphClass: 3
Flags: HW
HStem: -18 72<209.905 378.874> 549.388 71.3906<243.035 402.325> 575 61<590 693>
VStem: 347 71.04<271.094 351.733> 521 69<133 502 565 575> 543 47<-18 8.72727>
AnchorPoint: "anchor0" 470 635 basechar 0
LayerCount: 2
Back
Fore
SplineSet
588 -18 m 5
 588 573 l 25
 671 573 l 1
 671 636.328125 l 9
 575 636.328125 l 17
 549 702 l 1
 513 702 l 1
 520.616210938 617 l 1
 520.6171875 564 l 17
 520.6171875 564 373.265625 624.778320312 278.793945312 624.778320312 c 0
 252.889648438 624.778320312 233 622 210 603 c 0
 190.352539062 586.76953125 134.850585938 503.376953125 134.850585938 448.177734375 c 0
 134.850585938 391.694335938 248.75 368.682617188 310 344 c 0
 332.856445312 334.4765625 339.03515625 306.245117188 339.03515625 286.23828125 c 0
 339.03515625 264.698242188 214 182 214 182 c 1
 244 135 l 1
 244 135 410.040039062 221 410.040039062 263.68359375 c 0
 410.040039062 295.348632812 396.759765625 348.624023438 392 361 c 0
 383 386 373 397 335 412 c 0
 278.537109375 435.140625 221.790039062 442.001953125 221.790039062 469.06640625 c 0
 221.790039062 496.487304688 257.791992188 549.387695312 279.770507812 549.387695312 c 0
 307 549.387695312 361.241210938 536.090820312 384 531 c 0
 520.6171875 502 l 1
 520.6171875 142 l 5
 521 142 397.877929688 54 307 54 c 4
 279 54 210.928710938 55.22265625 166 127 c 6
 84 258 l 5
 42 236 l 5
 62 169 86.2841796875 108.51953125 112 71 c 4
 173 -18 261 -18 304 -18 c 4
 404.524414062 -18 521 66 521 66 c 5
 543 -18 l 5xb4
 588 -18 l 5
EndSplineSet
LCarets2: 1 0
Ligature2: "'pres' Pre Base Substitutions in Bengali2 lookup 12 subtable" bnGA bnRAc2
EndChar

StartChar: bnGH_RA
Encoding: 297 -1 228
Width: 630
VWidth: 0
GlyphClass: 3
Flags: HW
HStem: -171 72<200.886 370.063> 364.544 61.2656<169.53 364.968> 575 61<-12 155 213 516 582 660>
VStem: 99 65<435.737 515.848> 516 65<-18 0 78 575> 534 47<-171 -144.273>
LayerCount: 2
Back
Fore
SplineSet
220 572.998046875 m 1
 220 572.998046875 171 497 171 472 c 0
 171 463 171 455 179 446 c 0
 191.99609375 431.704101562 243.596679688 428.809570312 304.997070312 428.809570312 c 0
 338.084960938 428.809570312 400 429 400 429 c 1
 421 342 l 1
 215 225 l 1
 516 82 l 25
 516 572.998046875 l 25
 220 572.998046875 l 1
514 -95 m 21
 514 -95 399.524414062 -178 299 -178 c 4
 256 -178 168 -178 107 -89 c 4
 81.2841796875 -51.48046875 57 9 37 76 c 5
 79 98 l 5
 161 -33 l 6
 205.928710938 -104.77734375 274 -106 302 -106 c 4
 392.877929688 -106 516.3828125 -18 516 -18 c 13
 516 0 l 1
 133 185 l 1
 132 260 l 1
 330 365 l 1
 330 365 303.048828125 364.543945312 279.78125 364.543945312 c 0
 222.145507812 364.543945312 138 371 111 408 c 0
 101.495117188 421.025390625 98 436 98 451 c 0
 98 503 155 572.998046875 155 572.998046875 c 1
 -12 572.998046875 l 1
 -12 636.328125 l 1
 642 636.328125 l 1
 642 572.998046875 l 9
 581 572.998046875 l 25
 581 -171 l 21
 534 -171 l 5xf4
 514 -95 l 21
EndSplineSet
LCarets2: 1 0
Ligature2: "'pres' Pre Base Substitutions in Bengali2 lookup 12 subtable" bnGHA bnRAc2
EndChar

StartChar: bnNG_RA
Encoding: 298 -1 229
Width: 690
GlyphClass: 3
Flags: HW
HStem: -181.028 72<214.382 377.107> 3.16211 75.3477<306.156 413.759> 287 70<366.085 568.437> 428 59<366 513.76> 577 57<376.724 515.907>
VStem: 305 61<341 428 497 566.533> 518 55<491.683 573.301> 547 65<-15.0283 118> 565 47<-168.028 -141.301> 569.148 68.3691<214.161 282.735>
AnchorPoint: "anchor0" 373 634 basechar 0
AnchorPoint: "anchor 1" 560 -120 basechar 0
LayerCount: 2
Back
Fore
SplineSet
612.018554688 188.971679688 m 9
 612 -139.028320312 l 21
 565 -139 l 5
 545 -63 l 21
 545 -63 430.524414062 -146 330 -146 c 4
 287 -146 199 -146 138 -57 c 4
 112.284179688 -19.48046875 88 41 68 108 c 5
 110 130 l 5
 192 -1 l 6
 236.928710938 -72.77734375 305 -74 333 -74 c 4
 423.877929688 -74 547.3828125 14 547 13.9716796875 c 5
 547 108 l 17
 547 108 502 72 464 50 c 0
 429.96646857 30.2963765405 402.525390625 16.1669921875 356.516601562 16.1669921875 c 0
 312.512695312 16.1669921875 268.881835938 36.421875 200 106 c 0
 101 206 30 401 30 401 c 1
 77 419 l 1
 77 419 181 234 249 159 c 0
 290.0546875 113.234375 322.59765625 83.509765625 359.565429688 83.509765625 c 0
 377.525390625 83.509765625 403.638671875 89.216796875 428 103 c 0
 504 146 569.1484375 207 569.1484375 257.221679688 c 0
 569.1484375 274.35546875 555 290 504 290 c 0
 475 290 375 290 305 290 c 9xfa
 305 438 l 17
 305 438 231.275390625 459.263671875 177 487 c 0
 151.892578125 499.831054688 141 506 141 506 c 9
 164 552 l 1
 305 500 l 1
 305 537 306.651367188 574.172851562 331 602 c 0
 352 626 373 637 433 637 c 0
 519 637 575 634 575 532 c 0xfc
 575 467 560 431 483 431 c 2
 366 431 l 1
 366 344 l 1
 366 344 482.938476562 360 525 360 c 0
 596 360 637.517578125 321.931640625 637.517578125 268.57421875 c 0
 637.517578125 231.699273432 612.018554688 188.971679688 612.018554688 188.971679688 c 9
366 491 m 1
 471 491 l 2
 503 491 518 500 518 525 c 0
 518 567 517 571 440 571 c 0
 378.674804688 571 366 570 366 491 c 1
EndSplineSet
LCarets2: 1 703
Substitution2: "Single Substitution lookup 21 subtable" bnNG1_RA
Ligature2: "'pres' Pre Base Substitutions in Bengali2 lookup 12 subtable" bnNGA bnRAc2
EndChar

StartChar: bnNG1_RA
Encoding: 299 -1 230
Width: 650
GlyphClass: 3
Flags: HW
HStem: -31 72<193.327 360.671> 123 71<238.335 378.472> 342 70<302.084 503.695> 446 59<302 449.76> 575 61<-11 247 506 635> 587 49<309.133 453.071>
VStem: 239 63<396 446 505 574.078> 454 55<508.84 574.636> 504 69<121 205 269.805 337.276> 526 47<-31 -4.27273>
AnchorPoint: "anchor 1" 555 -11 basechar 0
AnchorPoint: "anchor0" 329 637 basechar 0
LayerCount: 2
Back
Fore
SplineSet
331 505 m 1
 436 505 l 2
 468 505 483 517 483 542 c 1
 483 587 482 585 405 585 c 0xee
 343.251953125 585 331 582.650390625 331 505 c 1
536.6171875 205 m 17
 536.6171875 205 481 164 440 147 c 0
 403.643554688 131.92578125 377 123 336 123 c 0
 292 123 223.760742188 141.854492188 180 214 c 0
 106 336 84 439 84 439 c 1
 131 458 l 1
 131 458 186 351 231 270 c 0
 261 216 302 194 339 194 c 0
 362.0703125 194 381.01171875 199.969726562 407 210 c 0
 472.020507812 235.095703125 534 273.061523438 534 315 c 0
 534 335 514 341 472 342 c 0
 443 342 268 342 268 342 c 9
 268 521 l 2
 268 553.537109375 276 573 276 573 c 1xf5
 -10 573 l 1
 -10 636.328125 l 1
 661 636.328125 l 1
 661 573 l 1
 535 573 l 17
 535 573 537.891601562 562.564453125 538 544 c 1xf6
 538 479 530 446 453 446 c 2
 331 446 l 1
 331 396 l 1
 331 396 447.896484375 412 490 412 c 0
 567 412 603 374 603 321 c 0
 603 272.661007446 603 -28 603 -28 c 1
 559 -28 l 1
 537 56 l 1
 537 56 411.524414062 -28 311 -28 c 0
 268 -28 176 -28 115 61 c 0
 89.2841796875 98.51953125 65 159 45 226 c 1
 87 248 l 1
 169 117 l 2
 214.162654386 44.8499057986 286 44 314 44 c 0
 405 44 537 132 536.6171875 132 c 9
 536.6171875 205 l 17
EndSplineSet
EndChar

StartChar: bnC_RA
Encoding: 300 -1 231
Width: 732
VWidth: 0
GlyphClass: 3
Flags: HW
HStem: -177 72<209.382 373.402> 0 71<277.774 394.795> 575 61<-12 194 261 710>
VStem: 194 67<86.6083 408 463 575> 520 69<-25 102> 542 47<-177 -150.273> 581 71<242.709 344.156>
AnchorPoint: "anchor 1" 536 -159 basechar 0
AnchorPoint: "anchor0" 344 637 basechar 0
LayerCount: 2
Back
Fore
SplineSet
261 405 m 9
 261 166 l 1
 261 106 277 71 326 71 c 0
 381 71 496 144 551 229 c 0
 573 263 581 288 581 307 c 0
 581 343 557.219726562 348 523 355 c 0
 425.258789062 374.993164062 261 405 261 405 c 9
595 160 m 9
 595 -172 l 1
 548 -172 l 1
 526 -88 l 1
 526 -88 409.524414062 -172 309 -172 c 0
 266 -172 178 -172 117 -83 c 0
 91.2841796875 -45.48046875 67 15 47 82 c 1
 89 104 l 1
 171 -27 l 2
 215.928710938 -98.77734375 284 -100 312 -100 c 0
 402.877929688 -100 526 -12 526 -12 c 1
 526 103 l 1xf8
 526 103 430.561917832 -2.84217094304e-14 322 0 c 0
 257 1.70171193534e-14 194 37 194 159 c 2
 194 572.998046875 l 1
 -12 572.998046875 l 1
 -12 636.328125 l 1
 739 636.328125 l 1
 739 572.998046875 l 1
 261 572.998046875 l 17
 261 463 l 25
 261 463 332.709960938 455.448242188 370 451 c 0
 488.9765625 436.806640625 513 434 542 429 c 0
 618.95703125 415.733398438 652 371.7421875 652 312 c 0
 652 262.432742412 595 160.131835938 595 160 c 9
EndSplineSet
LCarets2: 1 0
Ligature2: "'pres' Pre Base Substitutions in Bengali2 lookup 12 subtable" bnCA bnRAc2
EndChar

StartChar: bnCH_RA
Encoding: 301 -1 232
Width: 680
VWidth: 0
GlyphClass: 3
Flags: HW
HStem: -181 72<202.327 370.668> 174 82<214.064 278.305> 575 61<-12 142 209 745>
VStem: 142 67<259.941 463 516 575> 426 70<344.436 404.48> 535 47<-181 -154.273> 591 66<254.757 377.653>
AnchorPoint: "anchor 1" 567 -160 basechar 0
AnchorPoint: "anchor0" 384 637 basechar 0
LayerCount: 2
Back
Fore
SplineSet
383 344 m 0
 395.62890625 354.463867188 403 369 403 385 c 0
 403 424.76171875 363.272460938 429.969726562 323 437 c 0
 214.123046875 456.006835938 186 461 186 461 c 1
 186 320 l 1
 187 276 216 266 235 266 c 0
 279 266 348 315 383 344 c 0
480.6171875 -7 m 17
 480.6171875 -7 372 17 268 74 c 1
 268 146 l 1
 268 146 538.494140625 210.89453125 555 281 c 0
 560.447265625 304.13671875 561 315 561 340 c 0
 561 367 554.5703125 377.971679688 516 392 c 0
 488.004882812 402.181640625 469.66796875 405 469.66796875 405 c 1
 469.66796875 405 474 390.366210938 474 381 c 0
 474 347 455.037109375 321.588867188 415 289 c 0
 370.641601562 252.89453125 285.76953125 198 222 198 c 0
 183 198 119 228 119 312 c 2
 119 573.013671875 l 1
 -14 573.013671875 l 1
 -14 636.328125 l 1
 692 636.328125 l 1
 692 573.013671875 l 1
 186 573.013671875 l 1
 186 516 l 17
 186 516 273.9765625 504.461914062 332 496 c 0
 407.008789062 485.060546875 442.327148438 481.064453125 515 464 c 0
 584.9375 447.578125 627 420 627 345 c 0
 627 317 620.454101562 277.564453125 615 247 c 0
 600.754882812 167.17578125 360 102 360 102 c 1
 615 3 l 9
 599 -44 l 1
 548 -29 l 1
 548 -181 l 1
 503 -181 l 1
 481 -97 l 1
 481 -97 354.524414062 -181 264 -181 c 0
 221 -181 163 -181 102 -92 c 0
 76.2841796875 -54.48046875 41 49 41 49 c 1
 88 72 l 1
 156 -36 l 2
 201.108398438 -107.642578125 239 -109 267 -109 c 0
 348.877929688 -109 480.6171875 -21 480.6171875 -21 c 1
 480.6171875 -7 l 17
EndSplineSet
LCarets2: 1 0
Ligature2: "'pres' Pre Base Substitutions in Bengali2 lookup 12 subtable" bnCHA bnRAc2
EndChar

StartChar: bnJ_RA
Encoding: 302 -1 233
Width: 875
VWidth: 0
GlyphClass: 3
Flags: HW
HStem: -152 72<234.382 445.201> 24.8799 75.2969<362.429 469.213> 291 66<422.08 605.81> 575 62<-13 359 422 935>
VStem: 358 64<345 493 551.756 575> 608.099 71.1387<221.117 287.791> 732 47<-152 -125.273> 794.237 68.2441<270.881 396.423>
AnchorPoint: "anchor0" 628 637 basechar 0
AnchorPoint: "anchor 1" 723 -129 basechar 0
LayerCount: 2
Back
Fore
SplineSet
672 18 m 1
 672 87 l 1
 672 87 714.04296875 230.674804688 740 322 c 0
 754.010061459 371.291908105 735.73828125 400.71484375 687 415 c 0
 629 432 378 493 378 493 c 1
 378 376 l 1
 378 376 427.6015625 381 465.6015625 381 c 0
 534.599609375 381 640.603515625 373.59765625 640.603515625 307.791992188 c 0
 640.603515625 235.950195312 599 175 493 82 c 0
 462.625 55.3505859375 419.969726562 33.6435546875 369.94921875 33.6435546875 c 0
 316.586914062 33.6435546875 266.623046875 59.1005859375 203 131 c 0
 80 270 44 372 44 372 c 1
 89 397 l 1
 89 397 181.321289062 276.297851562 243 201 c 0
 280.782226562 154.875 319.37890625 107 373 107 c 0
 404.852539062 107 436.168945312 129.8515625 459 149 c 0
 521 201 561.044921875 243 561.044921875 277 c 0
 561.044921875 312.608398438 513.328125 315 459.6015625 315 c 0
 405.6015625 315 315 306 315 306 c 9
 315 573.001953125 l 25
 -15 573.001953125 l 1
 -15.009765625 636.328125 l 1
 894 636.328125 l 1
 894 573.001953125 l 25
 378 573.001953125 l 25
 378 555 l 1
 378 555 589 518 675 491 c 0
 750.010742188 467.1328125 821.481445312 447.625976562 821.481445312 373.022460938 c 0
 821.481445312 360.103515625 820 345 815 329 c 2
 738 44 l 9
 738 -148 l 1
 693 -148 l 1
 671 -61 l 1
 671 -61 422.524414062 -148 304 -148 c 4
 261 -148 177 -145 116 -56 c 0
 90.2841796875 -18.48046875 66 42 46 109 c 1
 88 131 l 1
 170 0 l 2
 214.928710938 -71.77734375 279 -76 307 -76 c 4
 397.877929688 -76 672 18 672 18 c 1
EndSplineSet
LCarets2: 1 0
Ligature2: "'pres' Pre Base Substitutions in Bengali2 lookup 12 subtable" bnJA bnRAc2
EndChar

StartChar: bnJH_RA
Encoding: 303 -1 234
Width: 760
VWidth: 0
GlyphClass: 3
Flags: HW
HStem: -166 72<206.382 373.807> 575 61<-15 521 760 840>
VStem: 521 65<-13 0 82 198 271 459 532 575> 539 47<-166 -139.273> 695 65<39 160 219 575>
AnchorPoint: "anchor0" 677 637 basechar 0
AnchorPoint: "anchor 1" 562 -110 basechar 0
LayerCount: 2
Back
Fore
SplineSet
477 12 m 9
 477 30 l 1
 99 281 l 1
 99 362 l 1
 477 532 l 25
 477 573.013671875 l 9
 -14 573.013671875 l 17
 -14 636.3203125 l 1
 542 636.3203125 l 9
 542 271 l 25
 651 226.7265625 l 25
 651 636.3203125 l 1
 646 702 l 1
 682 702 l 1
 705 636.3203125 l 1
 771.888671875 636.3203125 l 21
 771.888671875 573.013671875 l 5
 716 573.013671875 l 25
 716 39 l 1
 651 39 l 1
 651 160 l 25
 542 198 l 25
 542 -150 l 1
 495 -150 l 1
 475 -66 l 1
 475 -66 367.524414062 -150 267 -150 c 0
 224 -150 172 -150 111 -61 c 0
 85.2841796875 -23.48046875 59 56 59 56 c 1
 105 82 l 1
 161 -5 l 2
 206.797851562 -76.150390625 242 -78 270 -78 c 0
 360.877929688 -78 477 12 477 12 c 9
477 112 m 25
 477 459 l 25
 170 316 l 25
 477 112 l 25
EndSplineSet
LCarets2: 1 0
Ligature2: "'pres' Pre Base Substitutions in Bengali2 lookup 12 subtable" bnJHA bnRAc2
EndChar

StartChar: bnNY_RA
Encoding: 304 -1 235
Width: 955
VWidth: 0
GlyphClass: 3
Flags: HW
HStem: -200 72<246.382 415.697> 5 72<247.327 414.671> 108 63<627.056 784.026> 283 60<682 783.639> 459 65<627.056 784.713> 559 76<406.607 537.482>
VStem: 558 69<-48 89 179 449 505 538.558> 580 47<-200 -173.273> 788 71<175.276 277.459 348.875 455.189>
AnchorPoint: "anchor0" 565 635 basechar 0
LayerCount: 2
Back
Fore
SplineSet
661 174 m 17
 661 174 741.905273438 166 782 166 c 0
 808 166 828 176 828 208 c 2
 828 229 l 2
 828 267 812 278 775 278 c 2
 722 278 l 17
 722 338 l 9
 775 338 l 2
 812 338 828 349 828 387 c 2
 828 412 l 2
 828 445 809 454 784 454 c 0
 743.35546875 454 662 444 662 444 c 9xfd
 661 174 l 17
593 84 m 1xfe80
 593 84 470.524414062 0 376 0 c 0
 333 0 245 0 184 89 c 0
 158.284179688 126.51953125 134 187 114 254 c 1
 154 279 l 1
 238 145 l 2
 282.982421875 73.2421875 351 72 379 72 c 0
 469.877929688 72 593 160 593 160 c 1
 593 457 l 1
 593 505 553.501953125 556 487.501953125 556 c 0
 410.276367188 556 240 420 240 420 c 9xe0
 210 458 l 1
 282 541 387 630 480.501953125 630 c 0
 640.520507812 630 662 500 662 500 c 1xe0
 662 500 745.083007812 519.01171875 782 519 c 0
 846 518.98046875 900 518 900 405 c 2
 900 397 l 2
 900 364 896 317 855 311 c 1
 896 304 899 257 899 224 c 2
 899 215 l 2
 899 103 839.017578125 103 782 103 c 0
 727 103 662 124 662 124 c 9
 662 33 l 9
 662 -165 l 1
 615 -165 l 1
 593 -81 l 1
 593 -81 416.524414062 -165 316 -165 c 0
 273 -165 185 -165 124 -76 c 0
 98.2841796875 -38.48046875 74 22 54 89 c 1
 96 111 l 1
 178 -20 l 2
 222.928710938 -91.77734375 291 -93 319 -93 c 0
 409.877929688 -93 593 -5 593 -5 c 9
 593 84 l 1xfe80
EndSplineSet
LCarets2: 1 0
Ligature2: "'blws' Below Base Substitutions lookup 19 subtable" bnNYA bnRAc2
Ligature2: "'pres' Pre Base Substitutions in Bengali2 lookup 12 subtable" bnNYA bnRAc2
EndChar

StartChar: bnTT_RA
Encoding: 305 -1 236
Width: 700
VWidth: 0
GlyphClass: 3
Flags: HW
HStem: -177 72<208.327 377.226> 0 71<277.774 389.997> 337 66<383 573.086> 575 61<-12 194 261 530 600 734> 708 64<247.082 518.718>
VStem: 194 67<86.6083 575> 519 69<-25 102> 530 70<636 696.264> 541 47<-177 -150.273> 582 72<241.512 325.632>
AnchorPoint: "anchor 1" 544 -156 basechar 0
LayerCount: 2
Back
Fore
SplineSet
594 165 m 13
 594 -168 l 5
 547 -168 l 5
 525 -84 l 5
 525 -84 408.524414062 -168 308 -168 c 4
 265 -168 177 -168 116 -79 c 4
 90.2841796875 -41.48046875 66 19 46 86 c 5
 88 108 l 5
 170 -23 l 6
 214.928710938 -94.77734375 283 -96 311 -96 c 4
 401.877929688 -96 525 -8 525 -8 c 5
 525 95 l 5
 525 95 431.029727882 0 322 0 c 4
 257 0 194 37 194 159 c 2
 194 573.0078125 l 1
 -13 573.0078125 l 1
 -13 636.326171875 l 1
 530 636.326171875 l 17
 530 690.326171875 514 705 466 705 c 0
 356 705 161 705 161 705 c 9
 157 758 l 1
 157 758 404 772 472 772 c 0
 566 772 600 714.326171875 600 636.326171875 c 9xfc
 710 636.326171875 l 1
 710 573.0078125 l 1
 261 573.0078125 l 17
 261 573.0078125 261 207 261 166 c 1
 261 106 277 71 326 71 c 0
 381 71 484 128 539 213 c 0
 561 247 569 272 569 291 c 0
 569 327 540.411132812 337 511 337 c 0
 474 337 413 337 413 337 c 1xfa
 407 397 l 1
 407 397 496 403 530 403 c 0
 602.241210938 403 640 355.7421875 640 296 c 0
 640 248.070727518 594 165 594 165 c 13
EndSplineSet
LCarets2: 1 0
Ligature2: "'pres' Pre Base Substitutions in Bengali2 lookup 12 subtable" bnTTA bnRAc2
EndChar

StartChar: bnTTH_RA
Encoding: 306 -1 237
Width: 635
GlyphClass: 3
Flags: HW
HStem: -172 72<195.382 362.671> 0 74<316.427 405.728> 574 62<-13 254 326 679>
VStem: 254 72<534.552 574> 506 69<-20 88.373> 528 47<-172 -145.273> 541 73<186.262 260.814>
AnchorPoint: "anchor 1" 510 -147 basechar 0
LayerCount: 2
Back
Fore
SplineSet
491 93.373046875 m 1
 491 93.373046875 411.934570312 -0.1484375 319.408203125 -0.1484375 c 0
 211.004882812 -0.1484375 92 216 92 279 c 1
 92 279 206 334 242.094726562 374.038085938 c 0
 264.780273438 399.202148438 276 421.7890625 276 444 c 0
 276 464.1328125 263.094726562 481.038085938 240.094726562 513.038085938 c 0
 220.250976562 540.646484375 218 561.001953125 218 573.001953125 c 1
 -14 573.001953125 l 1
 -14 636.326171875 l 1
 219.591796875 636.326171875 l 1
 219.591796875 636.326171875 220.686523438 659.389648438 246 687 c 0
 299.553710938 745.412109375 400 816 400 816 c 1
 432 779 l 1
 432 779 334.8515625 689.180664062 304 658 c 0
 293.51953125 647.408203125 287.81640625 636.326171875 287.81640625 636.326171875 c 1
 643 636.326171875 l 1
 643 573.001953125 l 1
 290 573.002929688 l 17
 290 505.82421875 578 335 578 225 c 0
 578 208.145507812 560 164 560 164 c 9
 560 -158 l 1
 513 -158 l 1
 491 -74 l 1
 491 -74 359.524414062 -158 274 -158 c 0
 240 -158 165 -143 109 -62 c 0
 83.1328125 -24.5849609375 56 55 56 55 c 1
 104 82 l 1
 160 -6 l 2
 204.370117188 -78.1015625 255 -86 277 -86 c 0
 340.877929688 -86 491 2 491 2 c 1
 491 93.373046875 l 1
505 222 m 0
 505 265 335.094726562 409.038085938 335.094726562 409.038085938 c 1
 335 396 328 372 299.094726562 338.038085938 c 0
 255.98828125 287.390625 174 243 174 243 c 1
 174 243 255 74 326 74 c 0
 403.641601562 74 505 185 505 222 c 0
EndSplineSet
LCarets2: 1 0
Ligature2: "'pres' Pre Base Substitutions in Bengali2 lookup 12 subtable" bnTTHA bnRAc2
EndChar

StartChar: bnDDH_RA
Encoding: 307 -1 238
Width: 690
VWidth: 0
GlyphClass: 3
Flags: HW
HStem: -177 72<208.327 377.893> 0 71<277.774 388.694> 337 66<383 573.086> 575 61<-12 194 261 734>
VStem: 194 67<86.6083 575> 519 69<-25 102> 541 47<-177 -150.591> 582 72<241.726 326.011>
AnchorPoint: "anchor 1" 535 -146 basechar 0
AnchorPoint: "anchor0" 292 637 basechar 0
LayerCount: 2
Back
Fore
SplineSet
519 90 m 1
 519 90 425.401012038 2.56584876802e-14 324 0 c 0
 252 -1.82188626706e-14 196 37 196 159 c 2
 196 573.0078125 l 1
 -13 573.0078125 l 1
 -13 636.326171875 l 1
 702 636.326171875 l 17
 702 573.0078125 l 1
 263 573.0078125 l 17
 263 573.0078125 263 207 263 166 c 1
 263 106 279 71 328 71 c 0
 383 71 486 128 541 213 c 0
 563 247 571 272 571 291 c 0
 571 327 542.411132812 337 513 337 c 0
 476 337 415 337 415 337 c 1
 409 397 l 1
 409 397 498 403 532 403 c 0
 604.241210938 403 642 355.7421875 642 296 c 0
 642 246.824380259 603.806640625 181.342773438 588 153 c 9
 588 -166 l 1
 541 -166 l 1
 519 -82 l 1
 519 -82 402.524414062 -166 302 -166 c 0
 259 -166 171 -166 110 -77 c 0
 84.2841796875 -39.48046875 60 21 40 88 c 1
 82 110 l 1
 164 -21 l 2
 208.928710938 -92.77734375 277 -94 305 -94 c 0
 395.877929688 -94 519 -6 519 -6 c 9
 519 90 l 1
EndSplineSet
LCarets2: 1 0
Ligature2: "'pres' Pre Base Substitutions in Bengali2 lookup 12 subtable" bnDDHA bnRAc2
EndChar

StartChar: bnNN_RA
Encoding: 308 -1 239
Width: 655
VWidth: 0
GlyphClass: 3
Flags: HW
HStem: -21 72<202.327 369.343> 539 68<221.577 392.537> 575 61<582 683>
VStem: 128 69<407.959 513.074> 513 69<131 465 540 575> 535 47<-21 5.72727>
AnchorPoint: "anchor0" 472 637 basechar 0
LayerCount: 2
Back
Fore
SplineSet
580 -19 m 1
 580 572.99609375 l 29xb8
 665 572.99609375 l 5
 665 636.328125 l 13
 580 636.328125 l 29
 580 730 l 5xb4
 533 730 l 5
 511 636 l 29xb8
 511 540 l 5
 511 540 438 579 360 599 c 4
 343.456054688 603.2421875 312.393554688 606.84375 297.091796875 606.84375 c 4xd8
 258.677734375 606.84375 230.846679688 600.365234375 196.298828125 571 c 4
 166.928710938 546.03515625 126.35546875 477.8671875 126.35546875 426.166992188 c 4
 126.35546875 384.763671875 147 345 172 317.735351562 c 4
 210.23046875 276.041015625 263 245 263 245 c 5
 299 285 l 21
 299 285 196.747070312 374.735351562 196.747070312 429 c 4
 196.747070312 467.666015625 245.318359375 538.591796875 291.634765625 538.591796875 c 4
 383.725585938 538.591796875 511 465 511 465 c 5
 511 141 l 1
 511 141 397.877929688 53 307 53 c 0
 279 53 210.928710938 54.22265625 166 126 c 2
 84 257 l 1
 42 235 l 1
 62 168 86.2841796875 107.51953125 112 70 c 0
 173 -19 261 -19 304 -19 c 0
 404.524414062 -19 511 65 511 65 c 1
 533 -19 l 1
 580 -19 l 1
EndSplineSet
LCarets2: 1 0
Ligature2: "'pres' Pre Base Substitutions in Bengali2 lookup 12 subtable" bnNNA bnRAc2
EndChar

StartChar: bnT_RA
Encoding: 309 -1 240
Width: 675
VWidth: 0
GlyphClass: 3
Flags: HW
HStem: -1 72<242.327 411.671> 446 73<398.967 532.229> 575 61<-14 699>
VStem: 553 69<151 423.203> 575 47<-1 25.7273>
AnchorPoint: "anchor0" 501.96 637 basechar 0
AnchorPoint: "anchor 1" 556.96 0 basechar 0
LayerCount: 2
Back
Fore
SplineSet
603.9609375 372 m 1
 603.9609375 0 l 1
 556.9609375 0 l 1xec
 535 84 l 17
 535 84 412.524414062 0 318 0 c 0
 275 0 187 0 126 89 c 0
 100.284179688 126.51953125 76 187 56 254 c 1
 98 276 l 1
 180 145 l 2
 224.928710938 73.22265625 293 72 321 72 c 0
 411.877929688 72 535 160 534.9609375 160 c 9
 534.9609375 366 l 1
 534.9609375 424 502.9609375 447 453.9609375 447 c 0
 386.633789062 447 239.9609375 347 239.9609375 347 c 9
 207.9609375 388 l 1
 280.9609375 452 373.9609375 519 453.9609375 519 c 0
 586 519 603.9609375 426 603.9609375 372 c 1
687.9609375 573 m 25
 -14.0390625 573 l 1
 -14.0390625 636.328125 l 1
 687.9609375 636.328125 l 1
 687.9609375 573 l 25
EndSplineSet
LCarets2: 1 0
Ligature2: "'pres' Pre Base Substitutions in Bengali2 lookup 12 subtable" bnTA bnRAc2
EndChar

StartChar: bnTH_RA
Encoding: 310 -1 241
Width: 672
VWidth: 0
GlyphClass: 3
Flags: HW
HStem: -165 72<242.327 411.226> 533 72<130 378.047> 575 61<622 704>
VStem: 393 69<417.541 516.943> 557 38<677.684 702> 575 47<-165 -138.273>
AnchorPoint: "anchor0" 536 635 basechar 0
LayerCount: 2
Back
Fore
SplineSet
536.322265625 1 m 9
 536.322265625 20 l 5
 132.322265625 231 l 5
 131.322265625 317 l 5
 131.322265625 317 372.322265625 375.091796875 372.322265625 454 c 4
 372.322265625 514 362.322265625 533 261.322265625 533 c 4xd4
 203.322265625 533 109.322265625 533 109.322265625 533 c 5
 101.322265625 586 l 5
 101.322265625 586 185.322265625 605 259.322265625 605 c 4
 418.427734375 605 441.322265625 550 441.322265625 441 c 4
 441.322265625 333.357421875 209.322265625 266 209.322265625 266 c 13
 536.322265625 102 l 29xd8
 536.322265625 711 l 29
 574.322265625 711 l 5xd4
 593.322265625 636.328125 l 13
 683.322265625 636.328125 l 21
 683.322265625 572.998046875 l 5
 601.322265625 572.998046875 l 5
 601.322265625 -159 l 17
 555 -159 l 1
 536 -75 l 1
 536 -75 419.524414062 -159 319 -159 c 0
 276 -159 188 -159 127 -70 c 0
 101.284179688 -32.48046875 77 28 57 95 c 1
 99 117 l 1
 181 -14 l 2
 225.928710938 -85.77734375 294 -87 322 -87 c 0
 412.877929688 -87 536.322265625 1 536.322265625 1 c 9
EndSplineSet
LCarets2: 1 0
Ligature2: "'pres' Pre Base Substitutions in Bengali2 lookup 12 subtable" bnTHA bnRAc2
EndChar

StartChar: bnD_RA
Encoding: 311 -1 242
Width: 650
GlyphClass: 3
Flags: HW
HStem: -32 72<196.327 364.64> 575 61<-10 213 280 690>
VStem: 213 67<332 575> 502 74<119 224.778> 529 47<-32 -5.27273>
AnchorPoint: "anchor 1" 511 -12 basechar 0
AnchorPoint: "anchor0" 341 636 basechar 0
LayerCount: 2
Back
Fore
SplineSet
556 -19 m 9
 556 178 l 21
 594.099609375 447 l 5
 548.900390625 472 l 5
 269.900390625 352 l 29
 269.900390625 572.998046875 l 5
 661 572.998046875 l 5
 661 636.328125 l 5
 -10 636.328125 l 5
 -10 572.998046875 l 5
 203 572.998046875 l 21
 202.900390625 314.500976562 l 5
 240.919921875 258 l 5
 512.099609375 377 l 5
 488 199 l 13
 488 141 l 17
 488 141 384.877929688 53 294 53 c 0
 266 53 217.928710938 54.22265625 173 126 c 2
 91 257 l 1
 49 235 l 1
 69 168 93.2841796875 107.51953125 119 70 c 0
 180 -19 248 -19 291 -19 c 0
 391.524414062 -19 488 65 488 65 c 1
 510 -19 l 1
 556 -19 l 9
EndSplineSet
LCarets2: 1 0
Ligature2: "'pres' Pre Base Substitutions in Bengali2 lookup 12 subtable" bnDA bnRAc2
EndChar

StartChar: bnDH_RA
Encoding: 312 -1 243
Width: 635
VWidth: 0
GlyphClass: 3
Flags: HW
HStem: -165 72<227.382 394.125> 575 61<603 678> 606.29 55.7998<250.359 386.11>
VStem: 179.42 62.707<517.736 597.103> 538 65<-13 0 77 459 528 575> 556 47<-165 -137.318>
LayerCount: 2
Back
Fore
SplineSet
513 17 m 9
 513 30 l 17
 135 281 l 1
 135 358 l 1
 271 419.513671875 l 1
 271 419.513671875 147.29296875 463.217773438 147.29296875 540.15625 c 0
 147.29296875 587.002929688 185 661 236 661 c 0
 291 661 368 634 368 634 c 1
 358 592 l 17
 358 592 289.84765625 605 259 605 c 0
 230 605 210 572.21875 210 542 c 0
 210 493.723632812 345 453 345 453 c 1xb8
 513 528 l 1
 513 636 l 1
 509 702 l 1
 545 702 l 1
 568 636.328125 l 9
 653 636.328125 l 17
 653 572.998046875 l 1
 578 572.998046875 l 25xd8
 578 -143 l 17
 535 -143 l 1
 513 -59 l 1
 513 -59 396.524414062 -143 296 -143 c 0
 253 -143 165 -143 104 -54 c 0
 78.2841796875 -16.48046875 54 44 34 111 c 1
 76 133 l 1
 158 2 l 2
 202.928710938 -69.77734375 271 -71 299 -71 c 0
 389.877929688 -71 513 17 513 17 c 9
513 115 m 25
 513 459 l 25
 205 315 l 25
 513 115 l 25
EndSplineSet
LCarets2: 1 0
Ligature2: "'pres' Pre Base Substitutions in Bengali2 lookup 12 subtable" bnDHA bnRAc2
EndChar

StartChar: bnN_RA
Encoding: 313 -1 244
Width: 650
VWidth: 0
GlyphClass: 3
Flags: HW
HStem: -13 72<198.382 367.004> 419.827 70.1729<222.612 393.395> 575 61<-9 509 576 660>
VStem: 130.392 68.3916<286.529 395.451> 509 67<139 353 426 575> 531 45<-13 13.7273>
LayerCount: 2
Back
Fore
SplineSet
590 -68 m 9
 590 572.998046875 l 1
 665 572.998046875 l 1
 665 636.328125 l 1
 -9 636.328125 l 1
 -9 572.998046875 l 1
 523 572.998046875 l 1
 523 413 l 17
 523 413 358.952148438 489.3984375 281.963867188 489.3984375 c 0
 233.908203125 489.3984375 201.502929688 480.177734375 168 450 c 0
 139.359375 424.202148438 124.35546875 386.131835938 124.35546875 346.431640625 c 0
 124.35546875 305.028320312 139.16015625 261.9921875 170 230 c 0
 190.732421875 208.493164062 261 157 261 157 c 1
 296 202 l 1
 296 202 231.555664062 259.5 204.087890625 305 c 0
 198.279296875 314.623046875 195.834960938 326.055664062 195.834960938 337.705078125 c 0
 195.834960938 376.1875 223.532226562 416.225585938 267.795898438 416.225585938 c 0
 338.875 416.225585938 523 345 523 345 c 1
 523 92 l 1
 523 92 397 4 309.3828125 4 c 0
 281.3828125 4 213.311523438 5.22265625 168.3828125 77 c 2
 86.3828125 208 l 1
 44.3828125 186 l 1
 64.3828125 119 88.6669921875 58.51953125 114.3828125 21 c 0
 175.3828125 -68 263.3828125 -68 306.3828125 -68 c 0
 406.907226562 -68 523.3828125 16 523.3828125 16 c 1
 545.3828125 -68 l 1
 590 -68 l 9
EndSplineSet
LCarets2: 1 0
Ligature2: "'pres' Pre Base Substitutions in Bengali2 lookup 12 subtable" bnNA bnRAc2
EndChar

StartChar: bnP_RA
Encoding: 314 -1 245
Width: 660
VWidth: 0
GlyphClass: 3
Flags: HW
HStem: -42 72<204.382 391.959> 549.054 69.6719<281.648 421.513> 575 61<658 746>
VStem: 591 67<111 384 455 575> 611 47<-42 -15.2727>
AnchorPoint: "anchor0" 543 634 basechar 0
LayerCount: 2
Back
Fore
SplineSet
474 471 m 1xd0
 474 471 443.064453125 500.083984375 421 517 c 0
 391 540 366 554 338 554 c 0
 310 554 286.745117188 537.4296875 273 529 c 0
 248.557617188 514.010742188 202.029296875 479.765625 202.029296875 479.765625 c 1
 314 339 l 1
 474 471 l 1xd0
611.59765625 1 m 17
 566.38671875 1 l 1
 544.38671875 85 l 1
 544.38671875 85 387.911132812 1 287.38671875 1 c 0
 244.38671875 1 156.38671875 1 95.38671875 90 c 0
 69.6708984375 127.51953125 45.38671875 188 25.38671875 255 c 1
 67.38671875 277 l 1
 149.38671875 146 l 2
 194.315429688 74.22265625 262.38671875 73 290.38671875 73 c 0
 381.264648438 73 544.00390625 164 544.00390625 164 c 9
 544.00390625 408 l 1
 522 429 l 1
 327 263 l 1
 282 270 l 1
 146.029296875 446.765625 l 1
 100 416 l 1
 68 454 l 1
 68 454 159.1953125 538.662109375 239 585 c 0
 270 603 306 621 335 621 c 0xd0
 375 621 400.391601562 604.65234375 423 589 c 0
 475 553 544 485 544 485 c 1
 544 617 l 1
 536.59765625 702 l 1
 572.59765625 702 l 1
 598.59765625 636.328125 l 9
 670.59765625 636.328125 l 21
 670.59765625 572.998046875 l 5
 611.59765625 572.998046875 l 25xb0
 611.59765625 1 l 17
EndSplineSet
LCarets2: 1 0
Ligature2: "'pres' Pre Base Substitutions in Bengali2 lookup 12 subtable" bnPA bnRAc2
EndChar

StartChar: bnPH_RA
Encoding: 315 -1 246
Width: 900
VWidth: 0
GlyphClass: 3
Flags: HW
HStem: -165 72<223.327 388.497> 432 61<599 763.115> 575 61<-14 144 179 915>
VStem: 343 81<383.343 431.38> 533 66<-13 0 75 432> 552 47<-165 -137.318> 781 70<321.78 414.661>
AnchorPoint: "anchor 1" 546 -132 basechar 0
AnchorPoint: "anchor0" 526 636 basechar 0
LayerCount: 2
Back
Fore
SplineSet
599 -153 m 1
 555 -153 l 1
 533 -69 l 1
 533 -69 416.524414062 -153 316 -153 c 0
 273 -153 185 -153 124 -64 c 0
 98.2841796875 -26.48046875 74 34 54 101 c 1
 96 123 l 1
 178 -8 l 2
 222.928710938 -79.77734375 291 -81 319 -81 c 0
 409.877929688 -81 533 7 533 7 c 1
 533 20 l 1
 166 197 l 1
 165 272 l 1
 165 272 343 346 343 389 c 0
 343 421.25 128 538 128 538 c 9
 144 572.998046875 l 1
 -14 572.998046875 l 1
 -14 636.330078125 l 1
 915 636.330078125 l 1
 915 572.998046875 l 25
 179 572.998046875 l 1
 179 572.998046875 279.984375 529.013671875 350 487 c 0
 384.999023438 465.998046875 424 440 424 395 c 0
 424 336 391 299 263 233 c 5
 533 105 l 1
 533 493 l 25
 701 493 l 18
 813 493 857 443 857 370 c 0
 857 348 848.401367188 322.803710938 836 298 c 0
 814 254 751 194 751 194 c 1
 700 228 l 1
 700 228 742 290 762 321 c 0
 774.374023438 340.1796875 781 362 781 375 c 0
 781 411 750 429 704 429 c 2
 599 429 l 25
 599 -153 l 1
EndSplineSet
LCarets2: 1 0
Ligature2: "'pres' Pre Base Substitutions in Bengali2 lookup 12 subtable" bnPHA bnRAc2
EndChar

StartChar: bnB_RA
Encoding: 316 -1 247
Width: 646
VWidth: 0
GlyphClass: 3
Flags: HW
HStem: 0 21G<420.096 512.035> 575 61<-14 447 513 615>
VStem: 447 65<82 459 532 575>
LayerCount: 2
Back
Fore
SplineSet
511 118.7890625 m 1
 511 459 l 1
 208 318 l 25
 511 118.7890625 l 1
576 30 m 9xe0
 576 -143 l 1
 533 -143 l 1
 511 -64 l 1
 511 -64 364.524414062 -143 264 -143 c 4
 221 -143 153 -143 92 -54 c 4
 66.2841796875 -16.48046875 32 86 32 86 c 5
 78 110 l 5
 146 2 l 6
 191.109375 -69.64453125 239 -71 267 -71 c 4
 357.877929688 -71 511 17 511 17 c 1
 511 30 l 1xe0
 133 281 l 1
 133 362 l 1
 511 532 l 25
 511 572.998046875 l 9
 -14 572.998046875 l 17
 -14 636.328125 l 1
 659 636.328125 l 1
 659 572.998046875 l 9
 577 572.998046875 l 17
 576 30 l 9xe0
EndSplineSet
LCarets2: 1 0
Ligature2: "'pres' Pre Base Substitutions in Bengali2 lookup 12 subtable" bnBA bnRAc2
EndChar

StartChar: bnBH_RA
Encoding: 317 -1 248
Width: 745
VWidth: 0
GlyphClass: 3
Flags: HW
HStem: 0 72<206.615 385.653> 286 68<241.552 439.747> 340 85<482.321 540.594> 456 60.0977<241.122 370> 575 61<-10 710>
VStem: 175 65<356.449 454.844> 562 69<152 318.688> 584 47<0 26.7273>
LayerCount: 2
Back
Fore
SplineSet
753 573 m 1
 -11 573 l 1
 -11 636.328125 l 1
 753 636.328125 l 1
 753 573 l 1
674 1 m 9
 674 1 674 218.56640625 674 288 c 0
 674 334 598 436 553 436 c 0
 499.598632812 436 427.115234375 359 362 359 c 0
 313.337890625 359 273 360.8125 273 396 c 0
 273 422 273.498046875 452 298.498046875 452 c 0
 335.595703125 452 402 452 402 452 c 9
 408 506 l 1
 408 506 331 516.09765625 295.72265625 516.09765625 c 0
 269 516.09765625 247 516 229 504 c 0
 213.016601562 493.344726562 202 453 202 407 c 0
 202 313.602539062 251.8515625 286 356 286 c 0
 446.34765625 286 514.631835938 355 541 355 c 0xbe
 563 355 605 295 605 277 c 0
 605 232.272460938 605 164 605 164 c 17
 605 164 427.877929688 74 337 74 c 0
 309 74 236.157169772 81.8464726816 196 146 c 2
 114 277 l 1
 72 255 l 1
 92 188 116.284179688 127.51953125 142 90 c 0
 203 1 291 1 334 1 c 0
 434.524414062 1 603 85 603 85 c 1
 625 1 l 1
 674 1 l 9
EndSplineSet
LCarets2: 1 0
Ligature2: "'pres' Pre Base Substitutions in Bengali2 lookup 12 subtable" bnBHA bnRAc2
EndChar

StartChar: bnM_RA
Encoding: 318 -1 249
Width: 635
VWidth: 0
Flags: HW
HStem: 0 72<209.327 378.004> 315 70<417.817 497.705> 421 69<188.765 242.35> 575 61<-12 194 269 462 528 662>
VStem: 107 65<332.246 407.748> 520 69<152 335 407.018 509.082> 542 47<0 26.7273>
AnchorPoint: "anchor 1" 540 6 basechar 0
AnchorPoint: "anchor0" 496 638 basechar 0
LayerCount: 2
Back
Fore
SplineSet
337 459 m 1
 337 459 441 409 461 409 c 0
 484 409 512 458 512 480 c 0
 512 509 482 573 482 573 c 1
 294 573 l 1
 294 573 349 540 349 510 c 0
 349 486 337 459 337 459 c 1
579 478 m 9xfc
 579 31 l 1
 532 31 l 1
 510 115 l 1
 510 115 405.524414062 30 305 30 c 0
 262 30 174 30 113 119 c 0
 87.2841796875 156.51953125 63 217 43 284 c 1
 85 306 l 1
 167 175 l 2
 211.928710938 103.22265625 280 102 308 102 c 0
 398.877929688 102 510 191 510 191 c 9xfc
 510.045898438 354 l 1
 510.045898438 354 499.302734375 342 485 342 c 0
 447.515625 342 266.301757812 423 239 423 c 0
 225.143554688 423 193 398.895507812 193 362 c 0
 193 337.033203125 249 301 249 301 c 1
 224 262 l 1
 224 262 180.092773438 281.953125 163 295 c 0
 142.013671875 311.018554688 127 333 127 357 c 0
 127 428.165039062 189.516601562 490 232 490 c 0
 249 490 276 480 276 480 c 1
 276 480 281.833984375 493.819335938 281.833984375 503.767578125 c 0
 281.833984375 525.211914062 214 573 214 573 c 1
 -10 573 l 17
 -10 636.328125 l 1
 647 636.328125 l 1
 647 573 l 9
 542 573 l 1
 542 573 579 508.090820312 579 478 c 9xfc
EndSplineSet
LCarets2: 1 0
Ligature2: "'pres' Pre Base Substitutions in Bengali2 lookup 12 subtable" bnMA bnRAc2
EndChar

StartChar: bnY_RA
Encoding: 319 -1 250
Width: 675
VWidth: 0
GlyphClass: 3
Flags: HW
HStem: 0 21G<471.117 575.035> 575 61.3281<-14 115 147 510 576 683>
VStem: 304.048 88.1683<383.657 431.25> 510 65<82 575>
LayerCount: 2
Back
Fore
SplineSet
540.001953125 573 m 25
 180.001953125 572.998046875 l 1
 180.001953125 572.998046875 280.986328125 529.013671875 351.001953125 487 c 0
 386.000976562 465.998046875 425.001953125 440 425.001953125 395 c 0
 425.001953125 336 384.001953125 299 256.001953125 233 c 1
 540.001953125 85 l 1
 540.001953125 573 l 25
540 -10 m 9
 540.001953125 0 l 1
 167.001953125 197 l 1
 166.001953125 272 l 1
 166.001953125 272 344.001953125 346 344.001953125 389 c 0
 344.001953125 421.25 129.001953125 538 129.001953125 538 c 9
 145.001953125 572.998046875 l 9
 -8 573 l 1
 -8 636.328125 l 1
 683 636.328125 l 1
 683 573 l 9
 606.001953125 573 l 25
 605 -172 l 1
 560 -172 l 1
 538 -88 l 1
 538 -88 421.524414062 -172 321 -172 c 0
 278 -172 190 -172 129 -83 c 0
 103.284179688 -45.48046875 79 15 59 82 c 1
 101 104 l 1
 183 -27 l 2
 227.928710938 -98.77734375 296 -100 324 -100 c 0
 412 -100 540 -10 540 -10 c 9
EndSplineSet
LCarets2: 1 0
Ligature2: "'pres' Pre Base Substitutions in Bengali2 lookup 12 subtable" bnYA bnRAc2
EndChar

StartChar: bnR_RA
Encoding: 320 -1 251
Width: 665
VWidth: 0
GlyphClass: 3
Flags: HW
HStem: -167 72<209.382 376.364> -0.433594 97.9033<245.673 341> 575 61<-10 524 590 672>
VStem: 245.673 95.3271<-0.433594 97.4697> 524 65<-13 0 82 459 532 575> 542 47<-167 -140.273>
LayerCount: 2
Back
Fore
SplineSet
524 93.7890625 m 1
 524 459 l 1
 221 318 l 25
 524 93.7890625 l 1
524 -17 m 9
 524 0 l 1
 146 281 l 1
 146 362 l 1
 524 532 l 25
 524 572.998046875 l 9
 -10 572.998046875 l 17
 -10 636.328125 l 1
 672 636.328125 l 1
 672 572.998046875 l 9
 590 572.998046875 l 17
 589 -179 l 1
 543 -179 l 1
 521 -95 l 1
 521 -95 404.524414062 -179 304 -179 c 0
 261 -179 173 -179 112 -90 c 0
 86.2841796875 -52.48046875 62 8 42 75 c 1
 84 97 l 1
 166 -34 l 2
 210.928710938 -105.77734375 279 -107 307 -107 c 0
 397.877929688 -107 524 -17 524 -17 c 9
245.672851562 19.318359375 m 2xf0
 245.672851562 76 l 2
 245.672851562 88.8818359375 252.543945312 97.4697265625 266.284179688 97.4697265625 c 2
 319.530273438 97.4697265625 l 2
 334.989257812 97.4697265625 341 89.740234375 341 76 c 2
 341 19.318359375 l 2
 341 3.8603515625 331.552734375 -0.43359375 319.530273438 -0.43359375 c 2
 266.284179688 -0.43359375 l 2
 254.26171875 -0.43359375 245.672851562 7.294921875 245.672851562 19.318359375 c 2xf0
EndSplineSet
LCarets2: 1 0
Ligature2: "'pres' Pre Base Substitutions in Bengali2 lookup 12 subtable" bnRA bnRAc2
EndChar

StartChar: bnL_RA
Encoding: 321 -1 252
Width: 815
VWidth: 0
GlyphClass: 3
Flags: HW
HStem: -68 72<217.382 392.228> 426 67<207.219 325.224 426.523 546.813> 575 61<-10 562 629 710>
VStem: 122 65<254.216 406.186> 347 47<292 324.455> 562 67<84 411.076 477 575> 582 47<-68 -41.2727>
LayerCount: 2
Back
Fore
SplineSet
682 68 m 1
 681.6171875 68 408.877929688 -20 318 -20 c 0
 290 -20 219.8984375 -16.7822265625 179 47 c 2
 95 178 l 1
 53 156 l 1
 73 89 97.2841796875 28.51953125 123 -9 c 0
 184 -98 272 -98 315 -98 c 0
 415.524414062 -98 682 -14 682 -14 c 1
 704 -98 l 1
 749 -98 l 9
 749 573 l 1
 826 573 l 5
 826 636.328125 l 5
 -10 636.328125 l 1
 -10 573 l 1
 682 573 l 1
 682 453 l 17
 682 453 666.284179688 481 609 481 c 0
 541 481 493 474 465 415 c 1
 445.249023438 482.481445312 373.517578125 485 293 485 c 0
 232 485 151 466 151 352 c 0
 151 231.530273438 208 148 208 148 c 1
 259 165 l 1
 259 165 226 283.916015625 226 332 c 0
 226 378 254.37109375 411 296 411 c 0
 403.225585938 411 423.635742188 399.26171875 428 284 c 1
 431 235 l 1
 487 236 l 1
 498 318 l 2
 509.009765625 397.268554688 545.796875 411 614 411 c 0
 676 411 682 361 682 318 c 0
 682 68 l 1
EndSplineSet
LCarets2: 1 0
Ligature2: "'pres' Pre Base Substitutions in Bengali2 lookup 12 subtable" bnLA bnRAc2
EndChar

StartChar: bnSH_RA
Encoding: 322 -1 253
Width: 645
VWidth: 0
GlyphClass: 3
Flags: HW
HStem: -74 72<186.382 354.56> 264 66<45.969 199.092 289.603 413.867> 526 69<27.4187 200.982 295.839 486.52> 575 61<566 670>
VStem: 211 71<341.852 510.457> 497 69<78 509.715 572 575 636 661.773> 519 47<-74 -47.2727 691.227 717>
AnchorPoint: "anchor0" 440 637 basechar 0
LayerCount: 2
Back
Fore
SplineSet
498 164 m 5
 498 510 l 5
 498 540 438 562 393 562 c 4
 338.770507812 562 316 531 316 478 c 4
 316 417.71484375 320.6953125 400.182617188 356 379 c 4
 391 358 446 336 446 336 c 5
 428 282 l 5
 428 282 388 288 351 303 c 4
 310.330078125 319.487304688 283 340 283 340 c 5
 283 340 263.553710938 321.16796875 217 303 c 4
 176 287 118 279 118 279 c 5
 103 334 l 5
 103 334 147.999023438 350.000976562 190 370 c 4
 234.701171875 391.28515625 239 413.141601562 239 483 c 4
 239 533 223.918945312 555.954101562 187 560 c 4
 149.108398438 564.15234375 30 573 30 573 c 5
 31 636 l 5
 31 636 149 636 201 636 c 4
 241 636 267 629 291 599 c 5
 318 630 340 634 376 634 c 4
 420 634 464 624 498 608 c 5xec
 498 636 l 5xdc
 520 717 l 5
 567 717 l 5xda
 567 636.328125 l 29
 671 636.328125 l 21
 671 573 l 5
 567 573 l 29xdc
 567 1 l 5
 522 1 l 1
 500 85 l 1
 500 85 324.524414062 1 213 1 c 0
 170 1 82 1 21 90 c 0
 -4.7158203125 127.51953125 -29 188 -49 255 c 1
 -7 277 l 1
 75 146 l 2
 119.928710938 74.22265625 186 74 214 74 c 0
 306 74 498 164 498 164 c 5
EndSplineSet
LCarets2: 1 0
Ligature2: "'pres' Pre Base Substitutions in Bengali2 lookup 12 subtable" bnSHA bnRAc2
EndChar

StartChar: bnSS_RA
Encoding: 323 -1 254
Width: 675
VWidth: 0
GlyphClass: 3
Flags: HW
HStem: -167 72<227.382 395.028> 335 64<445.339 542> 575 61<-10 170 199 542 607 689>
VStem: 542 65<-15 0 70 335 399 575> 560 47<-167 -140.273>
LayerCount: 2
Back
Fore
SplineSet
542.001953125 -21 m 9
 542.001953125 0 l 1
 169.001953125 197 l 1
 168.001953125 272 l 1
 168.001953125 272 346.001953125 346 346.001953125 389 c 0
 346.001953125 421.25 131.001953125 538 131.001953125 538 c 9
 147.001953125 572.998046875 l 9
 -8 573 l 1
 -8 636.328125 l 1
 689 636.328125 l 1
 689 573 l 9
 608.001953125 573 l 25
 607.001953125 -181 l 1
 562 -181 l 1
 540 -97 l 1
 540 -97 423.524414062 -181 323 -181 c 0
 280 -181 192 -181 131 -92 c 0
 105.284179688 -54.48046875 81 6 61 73 c 1
 103 95 l 1
 185 -36 l 2
 229.928710938 -107.77734375 298 -109 326 -109 c 0
 416.877929688 -109 542.384765625 -21 542.001953125 -21 c 9
353.001953125 487 m 0
 378.928710938 473.6640625 469 429 542.001953125 429 c 1
 542.001953125 573 l 9
 182.001953125 572.998046875 l 1
 182.001953125 572.998046875 282.986328125 523.013671875 353.001953125 487 c 0
425 373.85546875 m 1
 425 373.85546875 426 311 258.001953125 233 c 1
 542.001953125 85 l 1
 542.001953125 353 l 1
 490 353 425 373.85546875 425 373.85546875 c 1
EndSplineSet
LCarets2: 1 0
Ligature2: "'blws' Below Base Substitutions lookup 19 subtable" bnSSA bnRAc2
EndChar

StartChar: bnS_RA
Encoding: 324 -1 255
Width: 710
VWidth: 0
GlyphClass: 3
Flags: HW
HStem: 0 72<222.382 395.03> 324 75<123.294 206.272 476.759 549.484> 575 61<-10 288 362 554 617 718>
VStem: 550 69<152 324> 572 47<0 26.7273> 578 75<423.071 542.184>
AnchorPoint: "anchor 1" 571 0 basechar 0
AnchorPoint: "anchor0" 529 637 basechar 0
LayerCount: 2
Back
Fore
SplineSet
325 482 m 5
 325 482 500.126953125 400 526 400 c 4
 544 400 578 440 578 463 c 0
 578 503.01 554 573 554 573 c 5
 365 573 l 5
 325 482 l 5
550 159 m 9
 550 322 l 5xf0
 484 322 296 423 296 423 c 5
 296 423 248 322 194 322 c 4
 132 322 49 375 49 375 c 5
 68 423 l 5
 68 423 137 397 182 397 c 4
 220 397 288 573 288 573 c 5
 -10 573 l 21
 -10 636.328125 l 5
 718 636.328125 l 5
 718 573 l 9
 617 573 l 1
 617 573 653 505.01 653 461 c 0
 653 434.87157195 619 381 619 381 c 9
 619 0 l 1
 574 0 l 1
 552 84 l 1
 552 84 435.524414062 0 335 0 c 0
 292 0 204.000301053 0.00020634021196 143 89 c 0
 117.284179688 126.51953125 108 148 88 215 c 1
 137 241 l 1
 197 145 l 2
 241.842896501 73.2513655983 310 72 338 72 c 0
 427 72 550 159 550 159 c 9
EndSplineSet
LCarets2: 1 0
Ligature2: "'pres' Pre Base Substitutions in Bengali2 lookup 12 subtable" bnSA bnRAc2
EndChar

StartChar: bnH_RA
Encoding: 325 -1 256
Width: 690
VWidth: 0
GlyphClass: 3
Flags: HW
HStem: -162 72<171.947 320.915> 443 72<192 505.565> 575 61<-12 687>
VStem: 453 47<-162 -134.667> 527 65<302.978 421.85>
AnchorPoint: "anchor 1" 447 -150 basechar 0
AnchorPoint: "anchor0" 566 638 basechar 0
LayerCount: 2
Back
Fore
SplineSet
508.6171875 6 m 9
 508.6171875 -8 l 1
 509 -8 385.877929688 -96 295 -96 c 0
 267 -96 198.928710938 -94.77734375 154 -23 c 2
 72 108 l 1
 30 86 l 1
 50 19 74.2841796875 -41.48046875 100 -79 c 0
 161 -168 249 -168 292 -168 c 0
 392.524414062 -168 509 -84 509 -84 c 1
 531 -168 l 1
 576 -168 l 1
 576 -16 l 0
 605 -25 l 1
 630 22 l 17
 630 22 422 121 330.900390625 166 c 1
 330.900390625 166 633.002929688 198.766601562 633.002929688 317.440429688 c 0
 633.002929688 317.626953125 633.001953125 317.813476562 633 318 c 0
 632 436 626 517 453 517 c 0
 358 517 234 496 234 496 c 1
 242 443 l 1
 242 443 396 443 459 443 c 0xe8
 529 443 565.69921875 438.991210938 567 342 c 0
 567.001953125 341.830078125 567.002929688 341.661132812 567.002929688 341.4921875 c 0
 567.002929688 250.619140625 219.900390625 220 219.900390625 220 c 1
 211.900390625 142 l 1
 300.043945312 86.201171875 508.6171875 6 508.6171875 6 c 9
706 636.328125 m 17xf0
 706 573 l 25
 -14 573 l 1
 -14 636.328125 l 1
 706 636.328125 l 17xf0
EndSplineSet
LCarets2: 1 0
Ligature2: "'pres' Pre Base Substitutions in Bengali2 lookup 12 subtable" bnHA bnRAc2
EndChar

StartChar: bnDDx_RA
Encoding: 326 -1 257
Width: 750
VWidth: 0
GlyphClass: 3
Flags: HW
HStem: -200 72<293.327 461.714> -88 98<338 433> 44 77<352.189 456.669> 378 70<397.17 611.845> 575 61<-8 334 396 760>
VStem: 334 62<432 575> 338 95<-88 10> 604 69<-48 182> 620 69<274.804 368.209>
AnchorPoint: "anchor0" 513 636 basechar 0
LayerCount: 2
Back
Fore
SplineSet
613 159 m 1
 612.6171875 -40 l 1
 613 -40 489.877929688 -128 399 -128 c 0
 371 -128 302.928710938 -126.77734375 258 -55 c 2
 176 76 l 1
 134 54 l 1
 154 -13 178.284179688 -73.48046875 204 -111 c 0
 265 -200 353 -200 396 -200 c 0
 496.524414062 -200 613 -116 613 -116 c 1
 635 -200 l 1
 682 -200 l 1
 682 266 l 17
 682 266 692.10546875 297.461914062 692.10546875 350.791992188 c 0
 692.10546875 410.59765625 651.1015625 468 558.103515625 468 c 0
 490.103515625 468 398.103515625 452 398.103515625 452 c 1
 398.103515625 572.98046875 l 25
 760 572.98046875 l 25
 760 636.33203125 l 9
 -10 636.33203125 l 1
 -10 572.98046875 l 1
 333.103515625 572.98046875 l 25
 333.103515625 380 l 17
 333.103515625 380 498.103515625 396 552.103515625 396 c 0
 605.830078125 396 625.546875 375.608398438 625.546875 340 c 0
 625.546875 279 584.103515625 220 510.103515625 155 c 0
 487.715820312 135.334960938 454.956054688 116 423.103515625 116 c 0
 369.482421875 116 330.885742188 160.875 293.103515625 207 c 0
 231.424804688 282.297851562 129.103515625 456 129.103515625 456 c 1
 82.103515625 438 l 1
 82.103515625 438 130.103515625 276 253.103515625 137 c 0
 316.7265625 65.1005859375 376.690429688 39.6435546875 420.052734375 39.6435546875 c 0
 470.073242188 39.6435546875 509.129882812 61.048828125 540.103515625 87 c 0
 566.08984375 108.772460938 613 159 613 159 c 1
338 -68 m 2xfa
 338 -11 l 2
 338 2 345 10 358 10 c 2
 412 10 l 2
 427 10 433 2 433 -11 c 2
 433 -68 l 2
 433 -83 424 -88 412 -88 c 2
 358 -88 l 2
 346 -88 338 -80 338 -68 c 2xfa
EndSplineSet
LCarets2: 1 0
Substitution2: "Single Substitution lookup 21 subtable" bnDDx1_RA
Ligature2: "'pres' Pre Base Substitutions in Bengali2 lookup 12 subtable" bnDDxA bnRAc2
EndChar

StartChar: bnDDx1_RA
Encoding: 327 -1 258
Width: 630
VWidth: 0
GlyphClass: 3
Flags: HW
HStem: -200 98<230 325> -68 72<294.327 458.301> 78 77<351.012 456.904> 403 70<397.286 612.432> 575 61<-12 332 397 761>
VStem: 230 95<-200 -102> 332 65<457 575> 605 69<84 207> 621 69<301.227 393.209>
AnchorPoint: "anchor 1" 551 -43 basechar 0
AnchorPoint: "anchor0" 404 636 basechar 0
LayerCount: 2
Back
Fore
SplineSet
481 237 m 1xff
 481 237 400.338156691 154 324 154 c 0
 281 154 235.33984027 163.260558246 177 239 c 0
 120 313 74 403 74 403 c 1
 120 423 l 1
 120 423 157 373 221 291 c 0
 258 244 280 218 314 218 c 0
 377.582526252 218 494 317 494 372 c 0
 494 394 489 410 447 410 c 0
 394 410 280 397 280 397 c 9
 280 573 l 25
 -14 573 l 1
 -14 636.328125 l 1
 645 636.328125 l 1
 645 573 l 25
 345 573 l 25
 345 458 l 1
 345 458 393.010638203 472 453 472 c 0
 539 472 558 426 558 382 c 0
 558 365.161415848 550 343 550 343 c 1
 550 0 l 1
 503 0 l 1
 481 84 l 1
 481 84 376.524414062 0 284 0 c 0
 241 0 153 0 92 89 c 0
 66.2841796875 126.51953125 42 187 22 254 c 1
 64 276 l 1
 146 145 l 2
 190.928710938 73.22265625 259 72 287 72 c 0
 366.877929688 72 481.3828125 160 481 160 c 9
 481 237 l 1xff
230 -110 m 2xfe
 230 -53 l 2
 230 -40 237 -32 250 -32 c 2
 304 -32 l 2
 319 -32 325 -40 325 -53 c 2
 325 -110 l 2
 325 -125 316 -130 304 -130 c 2
 250 -130 l 2
 238 -130 230 -122 230 -110 c 2xfe
EndSplineSet
EndChar

StartChar: bnDDHx_RA
Encoding: 328 -1 259
Width: 725
VWidth: 0
GlyphClass: 3
Flags: HW
HStem: -200 71<215.327 383.798> -92 98<268 363> 35 71<284.774 396.997> 372 66<390 580.086> 575 61<-10 201 268 734>
VStem: 201 67<121.608 575> 268 95<-92 6> 526 69<-49 137> 548 47<-200 -173.273> 589 72<276.096 361.011>
AnchorPoint: "anchor0" 347 637 basechar 0
LayerCount: 2
Back
Fore
SplineSet
595 198 m 13
 595 -199 l 1
 550 -199 l 1
 528 -115 l 1
 528 -115 411.524414062 -199 311 -199 c 0
 268 -199 180 -199 119 -110 c 0
 93.2841796875 -72.48046875 69 -12 49 55 c 1
 91 77 l 1
 173 -54 l 2
 217.928710938 -125.77734375 286 -127 314 -127 c 0
 404.877929688 -127 528 -39 527.6171875 -39 c 1
 527.6171875 129 l 17
 527.6171875 129 424.902012327 35 328 35 c 0
 263 35 200 72 200 194 c 2
 200 573.0078125 l 1
 -13 573.0078125 l 1
 -13 636.326171875 l 1
 732 636.326171875 l 17
 732 573.0078125 l 1
 267 573.0078125 l 17
 267 573.0078125 267 242 267 201 c 1
 267 141 283 106 332 106 c 0
 387 106 490 163 545 248 c 0
 567 282 575 307 575 326 c 0
 575 362 546.411132812 372 517 372 c 0
 480 372 419 372 419 372 c 1
 413 432 l 1
 413 432 502 438 536 438 c 0
 608.241210938 438 646 390.7421875 646 331 c 0
 646 302 634.532226562 268.840820312 623 247 c 4
 618.915039062 239.263671875 595 198 595 198 c 13
268 -72 m 2xfa
 268 -15 l 2
 268 -2 275 6 288 6 c 2
 342 6 l 2
 357 6 363 -2 363 -15 c 2
 363 -72 l 2
 363 -87 354 -92 342 -92 c 2
 288 -92 l 2
 276 -92 268 -84 268 -72 c 2xfa
EndSplineSet
Substitution2: "Single Substitution lookup 21 subtable" bnDDHx1_RA
LCarets2: 1 0
Ligature2: "'pres' Pre Base Substitutions in Bengali2 lookup 12 subtable" bnDDHxA bnRAc2
EndChar

StartChar: bnYx_RA
Encoding: 329 -1 260
Width: 665
VWidth: 0
GlyphClass: 3
Flags: HW
HStem: 0 21G<471.117 575.035> 575 61.3281<-14 115 147 510 576 683>
VStem: 304.048 88.1683<383.657 431.25> 510 65<82 575>
LayerCount: 2
Back
Fore
SplineSet
540.001953125 573 m 25
 180.001953125 572.998046875 l 1
 180.001953125 572.998046875 280.986328125 529.013671875 351.001953125 487 c 0
 386.000976562 465.998046875 425.001953125 440 425.001953125 395 c 0
 425.001953125 336 384.001953125 299 256.001953125 233 c 1
 540.001953125 85 l 1
 540.001953125 573 l 25
540 -15 m 9
 540.001953125 0 l 1
 167.001953125 197 l 1
 166.001953125 272 l 1
 166.001953125 272 344.001953125 346 344.001953125 389 c 0
 344.001953125 421.25 129.001953125 538 129.001953125 538 c 9
 145.001953125 572.998046875 l 9
 -14 573 l 1
 -14 636.328125 l 1
 683 636.328125 l 1
 683 573 l 9
 606.001953125 573 l 25
 605 -177 l 1
 560 -177 l 1
 538 -95 l 1
 538 -95 418 -177 321 -177 c 0
 278 -177 190 -177 129 -88 c 0
 103.284179688 -50.48046875 79 10 59 77 c 1
 101 99 l 1
 183 -32 l 2
 227.928710938 -103.77734375 296 -105 324 -105 c 0
 414 -105 540 -15 540 -15 c 9
259 -20 m 2xf0
 259 37 l 2
 259 50 266 58 279 58 c 2
 333 58 l 2
 348 58 354 51 354 37 c 2
 354 -20 l 2
 354 -35 345 -39 333 -39 c 2
 279 -39 l 2
 267 -39 259 -32 259 -20 c 2xf0
EndSplineSet
LCarets2: 1 0
Ligature2: "'pres' Pre Base Substitutions in Bengali2 lookup 12 subtable" bnYxA bnRAc2
EndChar

StartChar: bnK_SS_RA
Encoding: 330 -1 261
Width: 975
VWidth: 0
GlyphClass: 3
Flags: HW
HStem: -118 72<253.327 422.875> 256 73<277.014 350.583> 377 61<509.149 608 674 829.115> 456 70<155.041 231.432> 575 61<-10 243 306 453 505 608 674 994>
VStem: 79 67<380.601 452.385> 186 72<163.136 238.238> 268 66<497.377 563.831> 358.586 72.499<319.162 383.211> 446.701 58.2988<439.431 574.97> 608 66<37 158 221 377 438 575> 626 48<-118 -91.2727> 847 70<261.002 359.661>
AnchorPoint: "anchor 1" 623 -103 basechar 0
AnchorPoint: "anchor0" 606 638 basechar 0
LayerCount: 2
Back
Fore
SplineSet
609 442 m 25
 609 573 l 25
 509 573 l 17
 509 573 509 512 509 470 c 0
 509 447.977539062 524 442 537 442 c 1
 609 442 l 25
609 377 m 1
 550 377 483.231445312 377.69140625 457 423 c 0
 435 461 454 573 454 573 c 9
 304 573 l 17
 304 573 335 540 335 518 c 0
 335 498 316 469 316 469 c 1
 316 469 413.3359375 415.162109375 432.084960938 385.0234375 c 0
 448.651367188 358.39453125 421 297 421 297 c 1
 609 221 l 1
 609 377 l 1
609 43 m 1
 609 158 l 1
 609 158 370.708007812 236.09765625 320 253 c 0
 295.97265625 261.008789062 282.510742188 258.670898438 266 232 c 0
 251.578125 207.482421875 249.983398438 190.009765625 269 173 c 0
 307.708007812 138.377929688 339 112 339 112 c 1
 308 70 l 1
 308 70 256 94 222 126 c 0
 174.215820312 170.973632812 171.118164062 209.15625 207 270 c 0
 239 324 268 329 295 329 c 0
 312 329 355 316 355 316 c 1
 355 316 372 353 361.5859375 370.35546875 c 0
 353.521484375 383.794921875 229 439 188 454 c 0
 171.534179688 460.024414062 157.528320312 457.741210938 147 438 c 0
 137.833007812 420.975585938 140.165039062 406.747070312 154 394 c 0
 180.168945312 369.889648438 195 356 195 356 c 1
 172 317 l 1
 172 317 143 331 107 359 c 0
 75.720703125 383.328125 66.8466796875 421.629882812 95 468 c 0
 117 507 137 526 166 526 c 0
 194.764648438 526 256 496 256 496 c 1
 256 496 269 515 269 531 c 0
 269 546 244 573 244 573 c 1
 11 573 l 1
 11 636.328125 l 1
 995 636.328125 l 1
 995 573 l 25
 675 573 l 1
 675 442 l 25
 808 442 l 2
 933 442 953 333 901 245 c 0
 875.973632812 202.6484375 818 143 818 143 c 1
 769 174 l 17
 835 274 l 2
 869.030273438 325.560546875 860.83203125 377 796 377 c 2
 675 377 l 25
 674 -118 l 1
 629 -118 l 1
 607 -34 l 1
 607 -34 429.562260065 -118 330 -118 c 0
 286 -118 199 -118 138 -29 c 0
 112.284179688 8.51953125 88 69 68 136 c 1
 110 158 l 1
 192 27 l 2
 236.928710938 -44.77734375 305 -46 333 -46 c 0
 422 -46 609 43 609 43 c 1
EndSplineSet
LCarets2: 1 0
Ligature2: "'pres' Pre Base Substitutions in Bengali2 lookup 12 subtable" bnK_SSA bnRAc2
EndChar

StartChar: bnJ_NY_RA
Encoding: 331 -1 262
Width: 950
VWidth: 0
GlyphClass: 3
Flags: HW
HStem: -125 72<298.327 482.11> 25 75<362.719 470.282> 103 66<675.058 834.882> 275 60<756 834.639> 291 64<409.07 571.047> 438 78<745.5 835.064> 575 62<-10 390 453 986>
VStem: 609 71<225.821 287.511> 659 69<27 108> 681 47<-125 -98.2727> 839 71<175.018 269.459 340.9 433.887>
AnchorPoint: "anchor0" 466 637 basechar 0
LayerCount: 2
Back
Fore
SplineSet
678 106.541992188 m 9
 678 -139 l 1
 633 -139 l 1
 611 -55 l 1
 611 -55 454.524414062 -140 354 -140 c 0
 311 -140 223 -139 162 -50 c 0
 136.284179688 -12.48046875 112 48 92 115 c 1
 134 137 l 1
 216 6 l 2
 260.928710938 -65.77734375 329 -67 357 -67 c 0
 447.877929688 -67 611 24 610.6171875 24 c 1
 610.6171875 113 l 16
 569 118 l 1
 569 118 538.230744488 88.7692095614 521 74 c 0
 486 44 443.969726562 26.6435546875 393.94921875 26.6435546875 c 0
 340.586914062 26.6435546875 276 48 212 138 c 0
 146.575195312 230.002929688 75 428 75 428 c 1
 122 446 l 1
 122 446 222.321289062 253.297851562 276 178 c 0
 310.610657371 129.449874713 353.37890625 100 394 100 c 0
 440.852539062 100 468.612304688 119.334960938 491 139 c 0
 565 204 601.443359375 250 601.443359375 284 c 0
 601.443359375 310.608398438 583.7265625 319 530 319 c 0
 476 319 331 303 331 303 c 9
 374.0546875 572.98046875 l 1
 -15 573 l 1
 -15 636.328125 l 1
 962 636.328125 l 1
 962 573 l 1
 439.0546875 572.98046875 l 1
 436 555 l 1
 582 409 l 1xdf
 582 409 710 513 790 513 c 0
 846.732421875 513 884 480.778320312 884 394 c 0
 884 361 882 314 841 308 c 1
 884.09375 300.642578125 885 250.932617188 885 215 c 0
 885 106 813.708007812 103 759 103 c 0
 731.847746966 103 678 106.541992188 678 106.541992188 c 9
504 387 m 1xdf
 421 476 l 1
 407.9453125 377 l 1
 407.9453125 377 451 387 504 387 c 1xdf
623 173 m 9
 776 173 l 2
 805.993164062 173 814 182 814 214 c 0
 814 259.244140625 804.763671875 275 761 275 c 2
 731 275 l 17
 731 335 l 9
 761 335 l 2xef
 798 335 814 346 814 384 c 0
 814 420.76953125 810.543945312 438 775 438 c 0
 760 438 748.692382812 433.416992188 718 417 c 2
 632 368 l 1
 632 368 673.001953125 348 673.001953125 286.791992188 c 0
 673.001953125 232.57421875 623 173 623 173 c 9
EndSplineSet
LCarets2: 1 0
MultipleSubs2: "Multiple Substitution lookup 22 subtable" bnJA.half bnNY_RA
Ligature2: "'pres' Pre Base Substitutions in Bengali2 lookup 12 subtable" bnJ_NYA bnRAc2
EndChar

StartChar: bnYAc2
Encoding: 332 -1 263
Width: 235
VWidth: 0
Flags: HW
HStem: 575 61<-14 99 165 246>
VStem: 41.1172 67.3458<356.631 504.293> 124.255 69.4916<120.379 259.478>
LayerCount: 2
Back
Fore
SplineSet
99 573 m 9
 -14 573 l 1
 -14 636.328125 l 1
 246 636.328125 l 1
 246 573 l 1
 165 573 l 17
 165 573 148.988461342 541.943109064 131 506 c 0
 120.923676681 485.866294224 113.462890625 461.325195312 113.462890625 439.599609375 c 0
 113.462890625 347.002929688 193.747070312 269.2421875 193.747070312 183.02734375 c 0
 193.747070312 142.577148438 172.780532961 91.7805329608 130 49 c 0
 112 31 57 -13 57 -13 c 1
 25 22 l 1
 82 92 l 2
 101.794914524 116.50798941 124.255398034 149.01268578 124.255398034 179.46366811 c 0
 124.255398034 247.069750803 41.1171858225 368.387978741 41.1171858225 439.998481556 c 0
 41.1171858225 468.766689304 54.1649651401 496.151750022 69 524 c 0
 85.2946983942 554.588322743 99 573 99 573 c 9
EndSplineSet
LCarets2: 2 0 0
Ligature2: "Ligature Substitution lookup 33 subtable" uni200D bnVirama bnYA
Ligature2: "'pstf' Post Base Forms in Bengali2 lookup 9 subtable" bnVirama bnYA
Ligature2: "'pstf' Post Base Forms in Bengali lookup 8 subtable" bnYA bnVirama
EndChar

StartChar: bnK_BA
Encoding: 333 -1 264
Width: 695
VWidth: 0
GlyphClass: 3
Flags: HW
HStem: 575 61<-12 336 401 704>
VStem: 336 66<1.48633 207.486 278.096 467 542 574> 578.146 71.5596<324.93 420.17>
AnchorPoint: "anchor 1" 335 -76 basechar 0
AnchorPoint: "anchor0" 333 637 basechar 0
LayerCount: 2
Back
Fore
SplineSet
278 256 m 25
 336 278.095703125 l 1
 336 469 l 25
 128 380 l 1
 278 256 l 25
207 229.216796875 m 1
 60 348 l 1
 60 429 l 1
 336 542 l 25
 336 572.994140625 l 1
 -12 573 l 1
 -12 636.328125 l 1
 704 636.328125 l 1
 704 573 l 1
 402 573 l 25
 402 538 l 1
 550 501 l 2
 596.117647059 489.470588235 651.705078125 445.88671875 651.705078125 380.375976562 c 0
 651.705078125 359.4765625 646.153320312 334.643554688 631 309 c 0
 605 265 591 252 561 217 c 1
 508 242 l 17
 508 242 564.999718409 338.999147381 565 339 c 2
 573.833984375 354.033203125 579.125976562 372.150390625 579.125976562 383.802734375 c 0
 579.125976562 416.979492188 548.67578125 432.6875 499.98046875 444 c 2
 402 467 l 1
 400.9921875 -75.513671875 l 1
 335.294921875 -75.513671875 l 1
 86.294921875 98.486328125 l 1
 86.294921875 179.486328125 l 1
 207 229.216796875 l 1
335.294921875 207.486328125 m 25
 151.294921875 133.486328125 l 25
 335.294921875 2.486328125 l 25
 335.294921875 207.486328125 l 25
EndSplineSet
LCarets2: 1 0
Ligature2: "'pres' Pre Base Substitutions lookup 13 subtable" bnKA bnBAc2
EndChar

StartChar: bnG_BA
Encoding: 335 -1 266
Width: 572
VWidth: 0
GlyphClass: 3
Flags: HW
HStem: 548 74.7783<155.588 302.821> 575 61<499 582>
VStem: 51.8506 83.9395<462.531 528.863> 222 71.0049<296.502 369.21> 433 66<-54 152 226 502 564 575>
AnchorPoint: "anchor0" 388 636 basechar 0
LayerCount: 2
Back
Fore
SplineSet
433 502 m 1
 320 529 l 0
 297.241210938 534.090820312 243 547.387695312 215.770507812 547.387695312 c 0
 193.791992188 547.387695312 157.790039062 494.487304688 157.790039062 467.06640625 c 0
 157.790039062 440.001953125 181.537109375 442.140625 238 419 c 0
 276 404 285.461914062 392.799804688 295 368 c 0
 299.759765625 355.624023438 312 307.665039062 312 276 c 0
 312 233.31640625 167 156 167 156 c 1
 137 203 l 1
 137 203 240.995117188 277.014648438 240.995117188 298.5546875 c 0
 240.995117188 318.561523438 235.966796875 341.745117188 213 351 c 0
 151.75 375.682617188 70.8505859375 389.694335938 70.8505859375 446.177734375 c 0
 70.8505859375 501.376953125 126.352539062 584.76953125 146 601 c 0
 169 620 188.889648438 622.778320312 214.793945312 622.778320312 c 0
 293.265625 622.778320312 431.6171875 564 431.6171875 564 c 1
 431.616210938 617 l 1
 424 702 l 1
 460 702 l 1
 486 636.328125 l 9
 582 636.328125 l 17
 582 573 l 1
 499 573 l 17
 499 -181 l 5
 433 -181 l 5
 184 -7 l 5
 184 74 l 5
 433 176 l 5
 433 502 l 1
433 -104 m 29
 433 102 l 29
 249 28 l 29
 433 -104 l 29
EndSplineSet
LCarets2: 1 0
Ligature2: "'pres' Pre Base Substitutions lookup 13 subtable" bnGA bnBAc2
EndChar

StartChar: bnJ_BA
Encoding: 336 -1 267
Width: 886
VWidth: 0
GlyphClass: 3
Flags: HW
HStem: 24.8799 75.2969<329.71 437.201> 291 66<389.081 574.518> 575 62<-11 326 390 895>
VStem: 326 63<345 493 555 575> 576.099 71.1387<225.565 287.791> 692 65<-171 35> 762.237 68.2441<271.29 396.423>
AnchorPoint: "anchor 1" 692 -248 basechar 0
AnchorPoint: "anchor0" 419 638 basechar 0
LayerCount: 2
Back
Fore
SplineSet
757 69 m 13
 757 -248 l 1
 692 -248 l 1
 443 -74 l 1
 443 7 l 1
 691 109 l 17
 691 109 719.04296875 230.674804688 740 322 c 0
 751.461471214 371.946057946 735.73828125 400.71484375 687 415 c 0
 629 432 378 493 378 493 c 1
 378 376 l 1
 378 376 427.6015625 381 465.6015625 381 c 0
 534.599609375 381 640.603515625 373.59765625 640.603515625 307.791992188 c 0
 640.603515625 235.950195312 599 175 493 82 c 0
 462.625 55.3505859375 419.969726562 33.6435546875 369.94921875 33.6435546875 c 0
 316.586914062 33.6435546875 266.623046875 59.1005859375 203 131 c 0
 80 270 44 372 44 372 c 1
 89 397 l 1
 89 397 181.321289062 276.297851562 243 201 c 0
 280.782226562 154.875 319.37890625 107 373 107 c 0
 404.852539062 107 436.168945312 129.8515625 459 149 c 0
 521 201 561.044921875 243 561.044921875 277 c 0
 561.044921875 312.608398438 513.328125 315 459.6015625 315 c 0
 405.6015625 315 315 306 315 306 c 9
 315 573.001953125 l 25
 -15 573.001953125 l 1
 -15.009765625 636.328125 l 1
 894 636.328125 l 1
 894 573.001953125 l 25
 378 573.001953125 l 25
 378 555 l 1
 378 555 589 518 675 491 c 0
 750.010742188 467.1328125 821.481445312 447.625976562 821.481445312 373.022460938 c 0
 821.481445312 360.103515625 819.054507875 345.98698989 815 329 c 2
 757 69 l 13
692 -171 m 25
 692 35 l 25
 508 -39 l 25
 692 -171 l 25
EndSplineSet
LCarets2: 1 0
Ligature2: "'pres' Pre Base Substitutions lookup 13 subtable" bnJA bnBAc2
EndChar

StartChar: bnNN_BA
Encoding: 337 -1 268
Width: 585
VWidth: 0
GlyphClass: 3
Flags: HW
HStem: 538.592 68.252<140.6 311.82> 575 61<501 592>
VStem: 47.3555 68.3916<404.667 512.927> 432 69<-4 202 276 465 540 575>
AnchorPoint: "anchor0" 381 637 basechar 0
LayerCount: 2
Back
Fore
SplineSet
501 573 m 25
 501 -81 l 1x70
 432 -81 l 1
 183 93 l 1
 183 174 l 1
 432 276 l 1
 432 465 l 1
 432 465 306.725585938 538.591796875 229.634765625 538.591796875 c 4
 183.318359375 538.591796875 134.747070312 467.666015625 134.747070312 429 c 0
 134.747070312 374.735351562 223 299 223 299 c 9
 187 259 l 1
 187 259 132 293 110 317.735351562 c 0
 85.416015625 345.375976562 64.35546875 374.763671875 64.35546875 426.166992188 c 0
 64.35546875 477.8671875 104.928710938 546.03515625 134.298828125 571 c 0
 168.846679688 600.365234375 196.677734375 606.84375 235.091796875 606.84375 c 0
 310.982568706 606.84375 432 540 432 540 c 5
 432 636 l 25
 454 730 l 1
 501 730 l 1
 501 636.328125 l 25
 594 636.328125 l 17
 594 572.99609375 l 1
 501 573 l 25
432 -4 m 25
 432 202 l 25
 248 128 l 25
 432 -4 l 25
EndSplineSet
LCarets2: 1 0
Ligature2: "'pres' Pre Base Substitutions lookup 13 subtable" bnNNA bnBAc2
EndChar

StartChar: bnT_BA
Encoding: 338 -1 269
Width: 650
VWidth: 0
GlyphClass: 3
Flags: HW
HStem: 444 72<245 509.383> 575 61<-11 660>
VStem: 480 65<-58 148> 529 71<289.818 424.92>
AnchorPoint: "anchor 1" 480 -135 basechar 0
AnchorPoint: "anchor0" 356 636 basechar 0
LayerCount: 2
Back
Fore
SplineSet
659.701171875 573 m 9
 659.701171875 636.322265625 l 1
 -14 636.322265625 l 1
 -14 573 l 1
 659.701171875 573 l 9
266 124 m 0
 266 124 216 148 161 204 c 0
 85.6616677398 280.708120119 44 369 44 369 c 1
 81 396 l 1
 211 256 l 2
 263.473632812 199.490234375 311 175 356 175 c 0
 374 175 392 179 409 187 c 0
 481 220 503.249023438 264.278320312 518 303 c 0
 526 324 529 343 529 360 c 0
 529 422 486 445 395 445 c 0
 331 445 206 445 206 445 c 1
 198 498 l 1
 198 498 332 517 412 517 c 0
 545.126953125 517 598 440.158203125 598 358 c 0
 598 336 593.013088408 312.995595463 586 291 c 0
 564 222 525 172 525 172 c 1
 525 -157 l 1
 460 -157 l 1
 211 17 l 1
 211 98 l 1
 266 124 l 0
460 -80 m 25xe0
 460 126 l 25
 276 52 l 25
 460 -80 l 25xe0
EndSplineSet
LCarets2: 1 0
Ligature2: "'pres' Pre Base Substitutions lookup 13 subtable" bnTA bnBA
EndChar

StartChar: bnTH_BA
Encoding: 339 -1 270
Width: 610
VWidth: 0
GlyphClass: 3
Flags: HW
HStem: 533 72<62 297.91> 575 61<539 621>
VStem: 310 69<440.411 519.066> 474 65<-81 125 198 575> 474 38<677.684 702>
AnchorPoint: "anchor0" 410 636 basechar 0
LayerCount: 2
Back
Fore
SplineSet
309 132 m 0
 90 281 l 1
 90 367 l 1
 90 367 310 389.091796875 310 454 c 0
 310 514 300 533 199 533 c 0
 141 533 67 533 67 533 c 1
 59 586 l 1
 59 586 123 605 197 605 c 0
 356.10546875 605 379 550 379 441 c 0
 379 340.357421875 182 308 182 308 c 1
 387 166 l 0
 474 198 l 1
 474 711 l 25
 512 711 l 1
 531 636.328125 l 9
 621 636.328125 l 17
 621 572.998046875 l 1
 539 573 l 9
 539 -158 l 17
 473 -158 l 1
 224 16 l 1
 224 97 l 1
 309 132 l 0
474 -81 m 25
 474 125 l 25
 289 51 l 25
 474 -81 l 25
EndSplineSet
LCarets2: 1 0
Ligature2: "'pres' Pre Base Substitutions lookup 13 subtable" bnTHA bnBAc2
EndChar

StartChar: bnD_BA
Encoding: 340 -1 271
Width: 530
VWidth: 0
GlyphClass: 3
Flags: HW
HStem: 575.328 61<-11.9004 113 181 589.1>
VStem: 113 68<332 574.656> 410.1 65<-63 143>
AnchorPoint: "anchor0" 374 637 basechar 0
LayerCount: 2
Back
Fore
SplineSet
360 215 m 1
 382.099609375 377 l 1
 110.919921875 258 l 1
 72.900390625 314.500976562 l 1
 73 572.998046875 l 9
 -10 572.998046875 l 1
 -10 636.328125 l 1
 541 636.328125 l 1
 541 572.998046875 l 1
 139.900390625 572.998046875 l 1
 139.900390625 352 l 25
 418.900390625 472 l 1
 464.099609375 447 l 1
 431.099609375 214 l 9
 431.099609375 -140 l 1
 366.099609375 -140 l 1
 117.099609375 34 l 1
 117.099609375 115 l 1
 360 215 l 1
366.099609375 -63 m 25
 366.099609375 143 l 25
 182.099609375 69 l 25
 366.099609375 -63 l 25
EndSplineSet
LCarets2: 1 0
Ligature2: "'pres' Pre Base Substitutions lookup 13 subtable" bnDA bnBAc2
EndChar

StartChar: bnDH_BA
Encoding: 341 -1 272
Width: 950
VWidth: 0
GlyphClass: 3
Flags: HW
HStem: 0 21G<407.096 499 782.039 874.035> 575 61<499 809 875 958> 606.29 55.7998<146.359 282.082>
VStem: 75.4199 62.707<517.736 597.102> 434 65<77 229.963 393.481 459 528 575> 809 65<82 459 532 575>
LayerCount: 2
Back
Fore
SplineSet
809 93.7890625 m 5
 809 459 l 5
 506 318 l 29
 809 93.7890625 l 5
434 87 m 25
 434 459 l 25
 122 315 l 25
 434 87 l 25
499 0 m 1
 434 0 l 1
 56 281 l 1
 56 358 l 1
 192 419.513671875 l 1
 192 419.513671875 68.29296875 463.217773438 68.29296875 540.15625 c 0
 68.29296875 587.002929688 106 661 157 661 c 0
 212 661 289 634 289 634 c 1
 279 592 l 17
 279 592 210.84765625 605 180 605 c 0
 151 605 131 572.21875 131 542 c 0
 131 493.723632812 266 453 266 453 c 1xb8
 434 528 l 1
 434 636 l 1
 430 702 l 1
 466 702 l 1
 489 636.328125 l 13
 958 636.328125 l 21
 958 572.998046875 l 5
 874 573 l 5xdc
 874 0 l 5
 809 0 l 5
 499 229.962890625 l 5
 499 0 l 1
809 572.999023438 m 4
 499 573 l 5
 499 393.481445312 l 29
 809 532 l 13
 809 572.999023438 l 4
EndSplineSet
LCarets2: 1 0
Ligature2: "'pres' Pre Base Substitutions lookup 13 subtable" bnDHA bnBAc2
EndChar

StartChar: bnN_BA
Encoding: 342 -1 273
Width: 586
VWidth: 0
GlyphClass: 3
Flags: HW
HStem: 449.226 70.1729<193.576 348.319> 575 61<-11 491 558 658>
VStem: 101.355 68.3916<322.541 424.85> 491 67<-41 165 240 370 431 575>
LayerCount: 2
Back
Fore
SplineSet
522 245 m 25
 522 -118 l 17
 455 -118 l 1
 206 56 l 1
 206 137 l 1
 455 240 l 1
 455 375 l 1
 455 375 270.875 446.225585938 199.795898438 446.225585938 c 0
 155.532226562 446.225585938 127.834960938 406.1875 127.834960938 367.705078125 c 0
 127.834960938 356.055664062 130.279296875 344.623046875 136.087890625 335 c 0
 163.555664062 289.5 228 232 228 232 c 1
 193 187 l 1
 193 187 122.732421875 238.493164062 102 260 c 0
 71.16015625 291.9921875 56.35546875 335.028320312 56.35546875 376.431640625 c 0
 56.35546875 416.131835938 71.359375 454.202148438 100 480 c 0
 133.502929688 510.177734375 165.908203125 519.3984375 213.963867188 519.3984375 c 0
 290.952148438 519.3984375 455 443 455 443 c 9
 455 572.998046875 l 1
 -12 572.998046875 l 1
 -12 636.328125 l 1
 597 636.328125 l 1
 597 572.998046875 l 1
 522 572.998046875 l 1
 522 245 l 25
455 -41 m 25
 455 165 l 25
 271 91 l 25
 455 -41 l 25
EndSplineSet
LCarets2: 1 0
Ligature2: "'pres' Pre Base Substitutions lookup 13 subtable" bnNA bnBAc2
EndChar

StartChar: bnB_BA
Encoding: 343 -1 274
Width: 950
VWidth: 0
GlyphClass: 3
Flags: HW
HStem: 0 21G<420.096 512.035 794.095 886.035> 575 61<-14 447 513 821 887 988.973>
VStem: 447 65<82 229.398 393.072 459 532 575> 821 65<82 459 532 575>
LayerCount: 2
Back
Fore
SplineSet
499 0 m 13
 433 0 l 17
 55 281 l 1
 55 362 l 1
 433 532 l 25
 433 572.998046875 l 9
 -16 572.998046875 l 21
 -16 636.328125 l 5
 961 636.328125 l 5
 961 572.998046875 l 5
 874 573 l 5
 874 0 l 5
 809 0 l 5
 499 229.962890625 l 5
 499 0 l 13
433 93.7890625 m 1
 433 459 l 1
 130 318 l 25
 433 93.7890625 l 1
809 93.7890625 m 5
 809 459 l 5
 506 318 l 29
 809 93.7890625 l 5
809 572.999023438 m 4
 499 573 l 5
 499 393.481445312 l 29
 809 532 l 13
 809 572.999023438 l 4
EndSplineSet
LCarets2: 1 0
Ligature2: "'pres' Pre Base Substitutions lookup 13 subtable" bnBA bnBAc2
EndChar

